<svg width="21" height="16" viewBox="0 0 21 16" fill="none" xmlns="http://www.w3.org/2000/svg">
<path d="M1 7C0.447715 7 0 7.44772 0 8C0 8.55228 0.447715 9 1 9V7ZM20.1238 8.70711C20.5143 8.31658 20.5143 7.68342 20.1238 7.29289L13.7598 0.928932C13.3693 0.538408 12.7361 0.538408 12.3456 0.928932C11.9551 1.31946 11.9551 1.95262 12.3456 2.34315L18.0025 8L12.3456 13.6569C11.9551 14.0474 11.9551 14.6805 12.3456 15.0711C12.7361 15.4616 13.3693 15.4616 13.7598 15.0711L20.1238 8.70711ZM1 9H19.4167V7H1V9Z" fill="#171717"/>
</svg>
