<svg width="21" height="16" viewBox="0 0 21 16" fill="none" xmlns="http://www.w3.org/2000/svg">
<path d="M1.10352 6.90381C0.551231 6.90381 0.103516 7.35152 0.103516 7.90381C0.103516 8.45609 0.551231 8.90381 1.10352 8.90381V6.90381ZM20.2273 8.61092C20.6178 8.22039 20.6178 7.58723 20.2273 7.1967L13.8633 0.832741C13.4728 0.442216 12.8396 0.442216 12.4491 0.832741C12.0586 1.22327 12.0586 1.85643 12.4491 2.24695L18.106 7.90381L12.4491 13.5607C12.0586 13.9512 12.0586 14.5844 12.4491 14.9749C12.8396 15.3654 13.4728 15.3654 13.8633 14.9749L20.2273 8.61092ZM1.10352 8.90381H19.5202V6.90381H1.10352V8.90381Z" fill="white"/>
</svg>
