<svg width="74" height="75" viewBox="0 0 74 75" fill="none" xmlns="http://www.w3.org/2000/svg">
<g clip-path="url(#clip0_3_3259)">
<path d="M40.6853 9.65492H35.7774V7.56906C35.7774 6.58747 35.0412 5.85128 34.0596 5.85128H25.348C24.3665 5.85128 23.6303 6.58747 23.6303 7.56906V9.65492H18.7224V6.34207C18.7224 3.39732 21.1763 0.943359 24.1211 0.943359H35.2866C38.2313 0.943359 40.6853 3.39732 40.6853 6.34207V9.65492Z" fill="#9553FB"/>
<path d="M73.6937 47.3234C73.6937 40.0842 67.9269 34.3174 60.6877 34.3174C53.4485 34.3174 47.6817 40.0842 47.6817 47.3234C47.6817 52.4767 50.6265 56.7711 54.9209 58.9797V65.36H66.9453V58.857C70.9944 56.5257 73.6937 52.2313 73.6937 47.3234Z" fill="#4AE3CE"/>
<path d="M66.9434 70.022H54.919V74.3164H66.9434V70.022Z" fill="#4AE3CE"/>
<path d="M46.9446 31.2492H12.3437C5.59533 31.2492 0.0739136 25.7277 0.0739136 18.9793V15.7892C0.0739136 12.3537 2.77327 9.6543 6.20882 9.6543H53.0795C56.515 9.6543 59.2144 12.3537 59.2144 15.7892V18.9793C59.2144 25.7277 53.693 31.2492 46.9446 31.2492Z" fill="#9553FB"/>
<path d="M42.7728 47.3232C42.7728 43.1515 44.2452 39.2252 46.6992 36.1577H12.3437C7.5585 36.1577 3.26406 34.1945 0.0739136 31.0044V40.5748C0.0739136 47.3232 5.59533 52.8447 12.3437 52.8447H43.6317C43.1409 51.0042 42.7728 49.1637 42.7728 47.3232Z" fill="#9553FB"/>
</g>
<defs>
<clipPath id="clip0_3_3259">
<rect width="73.6188" height="73.6188" fill="white" transform="translate(0.0728455 0.697998)"/>
</clipPath>
</defs>
</svg>
