<svg width="59" height="44" viewBox="0 0 59 44" fill="none" xmlns="http://www.w3.org/2000/svg">
<g clip-path="url(#clip0_3_2691)">
<path d="M36.6024 1.07471H6.03507H5.9407C3.44286 1.07471 1.41797 3.09961 1.41797 5.59744V38.106C1.41797 40.6038 3.44285 42.6288 5.94068 42.6288H36.6024C39.1003 42.6288 41.1251 40.6038 41.1251 38.1059V27.8539L55.8998 34.3179V8.46209L41.1251 14.926V5.59743C41.1251 3.09961 39.1003 1.07471 36.6024 1.07471Z" fill="white"/>
<path fill-rule="evenodd" clip-rule="evenodd" d="M8.69727 0.688477C4.09474 0.688477 0.363647 4.41957 0.363647 9.0221V33.9742C0.363647 38.5767 4.09474 42.3077 8.69727 42.3077H33.6493C38.2519 42.3077 41.9829 38.5767 41.9829 33.9742V29.2125L51.9264 35.0128C54.1552 36.313 56.9542 34.7053 56.9542 32.125V10.8711C56.9542 8.29081 54.1552 6.68315 51.9264 7.98327L41.9829 13.7836V9.0221C41.9829 4.41957 38.2519 0.688477 33.6493 0.688477H8.69727ZM52.781 33.5479L41.9829 27.249V15.7471L52.781 9.44825C53.879 8.80769 55.2581 9.59978 55.2581 10.8711V32.125C55.2581 33.3963 53.879 34.1884 52.781 33.5479ZM2.05967 9.0221C2.05967 5.35626 5.03143 2.3845 8.69727 2.3845H33.6493C37.3151 2.3845 40.2869 5.35626 40.2869 9.0221V33.9742C40.2869 37.64 37.3151 40.6117 33.6493 40.6117H8.69727C5.03143 40.6117 2.05967 37.64 2.05967 33.9742V9.0221ZM22.0214 15.6758C22.0214 15.2074 21.6417 14.8278 21.1734 14.8278C20.7051 14.8278 20.3254 15.2074 20.3254 15.6758V20.65H15.3512C14.8828 20.65 14.5032 21.0297 14.5032 21.498C14.5032 21.9663 14.8828 22.346 15.3512 22.346H20.3254V27.3201C20.3254 27.7884 20.7051 28.1681 21.1734 28.1681C21.6417 28.1681 22.0214 27.7884 22.0214 27.3201V22.346H26.9955C27.4638 22.346 27.8435 21.9663 27.8435 21.498C27.8435 21.0297 27.4638 20.65 26.9955 20.65H22.0214V15.6758Z" fill="#0098FD"/>
</g>
<defs>
<clipPath id="clip0_3_2691">
<rect width="57.6648" height="42.9659" fill="white" transform="translate(0.363647 0.688477)"/>
</clipPath>
</defs>
</svg>
