<svg width="371" height="259" viewBox="0 0 371 259" fill="none" xmlns="http://www.w3.org/2000/svg">
<path d="M0 40.5002C0 33.151 6.25944 27.1933 13.9809 27.1933H356.512C364.233 27.1933 370.493 33.151 370.493 40.5002V245.693C370.493 253.042 364.233 259 356.512 259H13.9808C6.25943 259 0 253.042 0 245.693V40.5002Z" fill="#4252FF"/>
<path d="M358.002 0.34314H202.044C197.157 0.34314 192.712 3.03648 190.643 7.25087L177.625 33.777C173.729 41.7174 179.818 50.8217 189.026 50.8217H358.002C364.951 50.8217 370.585 45.4597 370.585 38.8455V12.3193C370.585 5.70507 364.951 0.34314 358.002 0.34314Z" fill="#4252FF"/>
</svg>
