<svg width="26" height="18" viewBox="0 0 26 18" fill="none" xmlns="http://www.w3.org/2000/svg">
<g clip-path="url(#clip0_3_2573)">
<path d="M25.2202 12.3134L21.2345 16.191C20.8634 16.552 20.2619 16.552 19.8909 16.191L15.905 12.3134C15.5341 11.9524 15.5341 11.3672 15.905 11.0063L16.3335 10.5895C16.712 10.2212 17.3284 10.2298 17.696 10.6084L19.2959 12.2564V5.24271H11.8715C11.6196 5.2427 11.3779 5.14533 11.1997 4.97201L10.5663 4.35583C9.96784 3.77353 10.3917 2.77796 11.2382 2.77796H20.8794C21.404 2.77796 21.8294 3.19177 21.8294 3.70225V12.2564L23.4293 10.6084C23.7968 10.2298 24.4133 10.2212 24.7919 10.5895L25.2204 11.0063C25.5913 11.3672 25.5913 11.9525 25.2202 12.3134ZM14.7245 12.9077C14.6362 12.8219 14.5315 12.7538 14.4162 12.7073C14.301 12.6609 14.1774 12.637 14.0526 12.637H6.6283V5.62326L8.22822 7.27125C8.59582 7.64986 9.21218 7.65845 9.59074 7.29016L10.0191 6.87338C10.3902 6.51241 10.3902 5.92719 10.0191 5.56625L6.03336 1.6887C5.66232 1.32773 5.06076 1.32773 4.68977 1.6887L0.703941 5.56629C0.332899 5.92726 0.332899 6.51249 0.703941 6.87343L1.13234 7.2902C1.51087 7.65845 2.12727 7.6499 2.49486 7.27128L4.09478 5.62326V14.1774C4.09478 14.6879 4.52014 15.1017 5.04485 15.1017H14.686C15.5324 15.1017 15.9563 14.1062 15.3578 13.5239L14.7245 12.9077Z" fill="#B0B0B0"/>
</g>
<defs>
<clipPath id="clip0_3_2573">
<rect width="25.0729" height="16.2974" fill="white" transform="translate(0.425659 0.791016)"/>
</clipPath>
</defs>
</svg>
