<svg width="75" height="75" viewBox="0 0 75 75" fill="none" xmlns="http://www.w3.org/2000/svg">
<g clip-path="url(#clip0_3_3244)">
<path d="M10.9935 12.4763C14.2462 12.4763 16.883 9.83946 16.883 6.58677C16.883 3.33409 14.2462 0.697266 10.9935 0.697266C7.74083 0.697266 5.104 3.33409 5.104 6.58677C5.104 9.83946 7.74083 12.4763 10.9935 12.4763Z" fill="#4AE3CE"/>
<path d="M10.9926 13.4583C5.22578 13.4583 0.440552 18.1208 0.440552 24.0103H21.5446C21.5446 18.1208 16.7594 13.4583 10.9926 13.4583Z" fill="#4AE3CE"/>
<path d="M48.5385 63.1512H21.0542C14.0604 63.1512 8.41626 57.5071 8.41626 50.5133C8.41626 43.5195 14.0604 37.8754 21.0542 37.8754H51.3606C58.3544 37.8754 63.9985 32.2313 63.9985 25.2375C63.9985 18.2437 58.3544 12.5996 51.3606 12.5996H23.9989" stroke="#9553FB" stroke-width="8.58887" stroke-miterlimit="10"/>
<path d="M62.8951 52.1086C56.7602 52.1086 51.7296 57.1393 51.7296 63.2742C51.7296 69.4091 56.7602 74.4397 62.8951 74.4397C69.03 74.4397 74.0607 69.4091 74.0607 63.2742C74.0607 57.0166 69.03 52.1086 62.8951 52.1086ZM61.0547 69.7772L56.1467 64.8692L58.2326 62.7834L60.932 65.4827L67.5577 58.857L69.6435 60.9429L61.0547 69.7772Z" fill="#4AE3CE"/>
</g>
<defs>
<clipPath id="clip0_3_3244">
<rect width="73.6188" height="73.6188" fill="white" transform="translate(0.441162 0.697998)"/>
</clipPath>
</defs>
</svg>
