<svg width="184" height="42" viewBox="0 0 184 42" fill="none" xmlns="http://www.w3.org/2000/svg">
<path d="M24.2449 37.4964H16.4252L6.40118 25.1317V37.4964H0V4.56446H6.40118V23.1746L16.1821 11.7167H23.8656L13.1439 24.0466L24.2449 37.4964Z" fill="white"/>
<path d="M48.7663 11.7167V37.4964H42.4154V35.3436C40.2719 37.0963 37.569 38.0596 34.7654 38.0596C31.9619 38.0596 29.6864 37.1398 28.0374 35.324C26.4303 33.4473 25.8059 31.3054 25.8059 27.6847V11.7167H32.205V26.6583C32.205 28.7763 32.5444 30.0506 33.3344 30.9205C34.0887 31.749 35.2662 32.1861 36.7413 32.1861C39.2033 32.1861 41.2944 30.7769 42.3652 29.8897V11.7167H48.7663Z" fill="white"/>
<path d="M69.1579 4.56446V12.3169C67.8421 11.758 66.0778 11.1513 63.8798 11.1513C60.2717 11.1513 56.9821 12.5604 54.6144 15.1177C52.2613 17.6598 50.9664 21.1761 50.9664 25.0165C50.9664 28.8568 52.1691 32.1361 54.4425 34.5455C56.584 36.8114 59.4964 38.0596 62.6457 38.0596C65.1098 38.0596 67.4461 37.2942 69.2564 35.8959V37.4964H75.5591V4.56446H69.1579ZM69.1579 30.4529C67.62 31.7403 65.927 32.3927 64.1271 32.3927C60.1146 32.3927 57.4158 29.3461 57.4158 24.8121C57.4158 19.3625 60.9611 16.9226 64.4728 16.9226C66.4906 16.9226 68.1187 17.5859 69.1579 18.1687V30.4529Z" fill="white"/>
<path d="M127.714 29.5831C127.714 34.8108 123.598 38.0596 116.973 38.0596C113.289 38.0596 109.629 37.205 107.182 35.7742L107.075 35.7133V29.4396L107.4 29.657C110.584 31.7881 114.601 32.5449 117.074 32.5449C120.577 32.5449 121.312 31.2423 121.312 30.1463C121.312 29.1373 120.879 28.4458 118.656 27.8956C118.117 27.763 117.447 27.6238 116.736 27.4759C114.693 27.0497 112.147 26.5191 110.41 25.6754C107.967 24.5141 106.779 22.4852 106.779 19.4756C106.779 14.3414 110.723 11.1513 117.074 11.1513C120.273 11.1513 123.841 11.9472 126.165 13.1758L126.278 13.2367V19.1712L125.97 19.0016C122.794 17.2423 119.343 16.6139 117.172 16.6139C115.68 16.6139 113.178 16.9139 113.178 18.9124C113.178 20.0562 113.939 20.6455 116.082 21.1631C116.539 21.261 117.074 21.3653 117.639 21.4741C119.705 21.8764 122.278 22.3743 124.08 23.229C126.559 24.4315 127.714 26.4517 127.714 29.5831Z" fill="white"/>
<path d="M137.048 4.06648C137.048 6.30848 135.292 8.13079 133.132 8.13079C130.972 8.13079 129.166 6.34545 129.166 4.06648C129.166 1.78751 130.945 0 133.132 0C135.32 0 137.048 1.82448 137.048 4.06648Z" fill="white"/>
<path d="M136.306 11.7167H129.907V37.4964H136.306V11.7167Z" fill="white"/>
<path d="M149.212 17.488V27.9913C149.212 30.8835 150.322 32.2905 152.61 32.2905C153.857 32.2905 155.055 31.8795 155.841 31.5359L156.132 31.4098V37.005L156.013 37.0637C154.775 37.6791 152.885 38.0596 151.078 38.0596C145.668 38.0596 142.81 34.7912 142.81 28.6089V17.488H138.511V11.7167H142.81V5.24728L149.212 3.65548V11.7167H156.132V17.488H149.212Z" fill="white"/>
<path d="M91.1692 11.1535C83.5234 11.1535 77.7592 16.9379 77.7592 24.6076C77.7592 28.2675 79.1065 31.6468 81.5517 34.1345L81.9456 38.4641L86.5323 37.2877C87.999 37.7987 89.5579 38.0575 91.1692 38.0575C98.8129 38.0575 104.577 32.2752 104.577 24.6076C104.577 16.94 98.8129 11.1535 91.1692 11.1535ZM91.1692 32.1361C87.1734 32.1361 84.1604 28.9003 84.1604 24.6076C84.1604 20.315 87.1734 17.0249 91.1692 17.0249C95.165 17.0249 98.1759 20.3563 98.1759 24.6076C98.1759 28.859 95.165 32.1361 91.1692 32.1361Z" fill="white"/>
<path d="M94.2158 26.0016L96.0827 25.995C95.628 28.4545 93.6103 30.2724 91.1671 30.2724C88.724 30.2724 86.7062 28.4545 86.2515 25.995L88.1205 26.0016H94.2158Z" fill="#FFB3B3"/>
<path d="M184 11.7167L170.638 42H164.046L167.931 33.5343L158.211 11.7167H165.088L168.157 18.8254C169.195 21.2631 170.23 23.7813 171.231 26.3212C172.419 23.4116 173.429 21.0043 174.399 18.7732L177.465 11.7167H184Z" fill="white"/>
</svg>
