<svg width="97" height="34" viewBox="0 0 97 34" fill="none" xmlns="http://www.w3.org/2000/svg">
<g clip-path="url(#clip0_3_2430)">
<path d="M5.53626 24.2485C5.91068 25.2735 6.48476 26.214 7.22525 27.0155C7.94104 27.7791 8.81325 28.379 9.78226 28.7745C10.8028 29.188 11.8952 29.3954 12.9963 29.3845C14.0841 29.3922 15.1619 29.1768 16.1632 28.7515C17.1353 28.3379 18.0134 27.7313 18.7443 26.9685C19.4939 26.1781 20.0762 25.2445 20.4562 24.2235C20.8768 23.0827 21.0836 21.8742 21.0663 20.6585V0.390503H25.9923V33.2325H21.1133V30.1835C20.0245 31.3362 18.7057 32.2472 17.2423 32.8575C15.7186 33.4902 14.083 33.8093 12.4333 33.7955C10.7562 33.8089 9.09242 33.4982 7.53325 32.8805C6.05374 32.296 4.71174 31.4107 3.59226 30.2805C2.45633 29.1153 1.56336 27.7359 0.96526 26.2225C0.305311 24.5422 -0.0214317 22.7496 0.00325448 20.9445V0.394531H4.93026V20.6635C4.91424 21.8853 5.11955 23.0998 5.53626 24.2485Z" fill="white"/>
<path d="M34.4832 0.390503V12.3545C35.5787 11.2608 36.867 10.3793 38.2833 9.75452C39.7616 9.10555 41.3608 8.778 42.9753 8.79352C44.6673 8.78153 46.3439 9.11676 47.9012 9.7785C50.9115 11.0367 53.305 13.4302 54.5633 16.4405C55.2219 17.9823 55.5572 19.6429 55.5482 21.3195C55.5589 22.9888 55.2235 24.6422 54.5633 26.1755C53.2946 29.1734 50.9036 31.5562 47.9012 32.8145C46.3439 33.4763 44.6673 33.8115 42.9753 33.7995C41.3535 33.8132 39.747 33.4854 38.2603 32.8375C36.8343 32.2174 35.5372 31.3355 34.4362 30.2375V33.2375H29.7443V0.390503H34.4832ZM35.0222 24.5535C35.4319 25.5356 36.0299 26.428 36.7823 27.1805C37.5378 27.935 38.4291 28.54 39.4092 28.9635C40.4307 29.4057 41.5332 29.6295 42.6462 29.6205C43.7441 29.6263 44.831 29.4026 45.8372 28.9635C46.811 28.5428 47.6939 27.9372 48.4373 27.1805C49.1793 26.4195 49.7758 25.5293 50.1973 24.5535C50.6396 23.5318 50.8633 22.4288 50.8542 21.3155C50.8617 20.1952 50.6381 19.0854 50.1973 18.0555C49.7803 17.0702 49.1834 16.1712 48.4373 15.4045C47.6971 14.6498 46.8129 14.0513 45.8372 13.6445C44.3304 13.0122 42.6696 12.8418 41.0657 13.1552C39.4618 13.4686 37.9873 14.2514 36.8293 15.4045C36.0708 16.1659 35.4655 17.0659 35.0463 18.0555C34.6055 19.0854 34.3818 20.1952 34.3893 21.3155C34.3803 22.4265 34.596 23.5279 35.0233 24.5535H35.0222Z" fill="white"/>
<path d="M58.2225 16.484C58.8284 15.0136 59.7033 13.6692 60.8025 12.52C62.5352 10.7687 64.7497 9.57245 67.1642 9.08363C69.5788 8.59481 72.0842 8.83545 74.3615 9.77492C75.7926 10.3727 77.0859 11.2576 78.1615 12.375C79.2418 13.512 80.0867 14.8513 80.6475 16.3159C81.2537 17.8951 81.5564 19.5745 81.5395 21.2659V22.8159H62.0695C62.2185 23.7649 62.5365 24.6794 63.0085 25.5159C63.4663 26.3315 64.0613 27.0619 64.7675 27.6749C65.4758 28.2877 66.2856 28.772 67.1605 29.106C68.0663 29.4527 69.0287 29.6276 69.9985 29.622C71.3494 29.6487 72.6861 29.3415 73.8898 28.7276C75.0935 28.1137 76.127 27.2122 76.8985 26.1029L80.3235 28.6359C79.1396 30.254 77.5836 31.5634 75.7871 32.4535C73.9905 33.3436 72.0061 33.7883 70.0015 33.75C68.2899 33.764 66.5917 33.4455 65.0015 32.812C63.495 32.2137 62.1232 31.3206 60.9665 30.1849C59.8185 29.0504 58.9015 27.7038 58.2665 26.2199C56.9693 23.1078 56.9524 19.6095 58.2195 16.4849L58.2225 16.484ZM64.8145 14.6309C63.465 15.7748 62.5327 17.3338 62.1635 19.0639H76.7545C76.4171 17.3336 75.5 15.77 74.1545 14.6309C72.8374 13.5536 71.1881 12.965 69.4865 12.965C67.7849 12.965 66.1357 13.5536 64.8185 14.6309H64.8145Z" fill="white"/>
<path d="M90.4079 15.1695C89.3563 16.4087 88.8195 18.0037 88.9079 19.6265V33.2325H84.1699V9.3055H88.8609V12.2605C89.4325 11.313 90.2308 10.5226 91.1839 9.96053C92.2197 9.37588 93.3949 9.08377 94.5839 9.11549H96.2259V13.5255H94.2559C93.5336 13.5038 92.8153 13.6396 92.1508 13.9235C91.4863 14.2074 90.8916 14.6326 90.4079 15.1695Z" fill="white"/>
</g>
<defs>
<clipPath id="clip0_3_2430">
<rect width="96.225" height="33.405" fill="white" transform="translate(0 0.390503)"/>
</clipPath>
</defs>
</svg>
