<svg width="57" height="68" viewBox="0 0 57 68" fill="none" xmlns="http://www.w3.org/2000/svg">
<g clip-path="url(#clip0_3_2510)">
<path d="M28.1891 67.608C27.2981 67.608 26.6012 67.026 25.5452 66.144C23.6385 64.4865 21.5024 63.113 19.2031 62.066C18.4151 61.699 17.3901 61.344 16.2031 60.932C11.7861 59.4 5.73818 57.303 2.48718 51.64C0.823183 49.255 0.143148 44.705 0.0771484 42.878C0.265036 37.4394 0.887313 32.0245 1.93811 26.685C2.43211 23.785 2.85911 21.271 2.99011 19.459C3.36711 14.247 2.93517 9.59501 2.30017 8.10901C1.34317 5.86701 1.20913 4.50903 1.88013 3.84003C2.0032 3.71093 2.15174 3.6087 2.31628 3.53986C2.48082 3.47101 2.65784 3.43702 2.83618 3.44C3.53525 3.52131 4.21564 3.71939 4.84912 4.026C5.10712 4.126 5.3902 4.23804 5.7002 4.35504C8.63202 5.49597 11.7444 6.1025 14.8901 6.146C15.4591 6.146 16.0102 6.12102 16.5282 6.07202C20.1505 5.83575 23.571 4.32068 26.1802 1.797C26.9582 1.087 27.5212 0.573998 28.1852 0.572998C28.8502 0.572998 29.4141 1.08504 30.1931 1.79504C31.6851 3.15304 34.1811 5.425 39.8531 6.065C40.3642 6.113 40.9151 6.138 41.4851 6.138C44.6309 6.095 47.7435 5.48839 50.6752 4.34698C50.9852 4.23098 51.2671 4.12004 51.5261 4.01904C52.1591 3.71215 52.8393 3.51405 53.5381 3.43304C53.7164 3.42988 53.8935 3.4638 54.0581 3.53265C54.2227 3.60151 54.3712 3.70377 54.4941 3.83301C55.1661 4.50401 55.0332 5.86001 54.0752 8.10101C53.4392 9.58801 53.0071 14.24 53.3851 19.452C53.5151 21.264 53.9431 23.773 54.4371 26.678C55.4871 32.0139 56.1091 37.4251 56.2971 42.86C56.2311 44.698 55.5512 49.248 53.8732 51.66C50.6372 57.3 44.5891 59.398 40.1731 60.929C38.9861 61.341 37.9601 61.697 37.1731 62.063C34.8727 63.1109 32.7363 64.4866 30.8302 66.147C29.7752 67.028 29.0792 67.611 28.1902 67.612L28.1891 67.608ZM2.83521 4.07599C2.74026 4.07242 2.64557 4.08937 2.55774 4.12561C2.46991 4.16185 2.39098 4.21653 2.32617 4.28601C2.01417 4.59801 1.85815 5.46999 2.87915 7.85999C3.65015 9.66499 3.96814 14.671 3.61914 19.505C3.48614 21.347 3.0562 23.87 2.5592 26.791C1.51559 32.0919 0.896245 37.4676 0.707153 42.867C0.786153 45.038 1.57519 49.232 3.01819 51.302C6.16619 56.784 12.0862 58.837 16.4082 60.336C17.6082 60.753 18.6511 61.113 19.4681 61.494C21.8154 62.5677 23.9977 63.9705 25.9491 65.66C26.9321 66.48 27.5261 66.976 28.1881 66.976C28.8501 66.976 29.4411 66.476 30.4231 65.659C32.3733 63.9654 34.5562 62.5602 36.9052 61.486C37.7222 61.106 38.7621 60.745 39.9651 60.328C44.2871 58.828 50.2081 56.776 53.3401 51.318C54.7981 49.224 55.5871 45.03 55.6661 42.848C55.4761 37.4527 54.8572 32.0811 53.8152 26.784C53.3152 23.862 52.8881 21.339 52.7551 19.497C52.4051 14.663 52.7231 9.65703 53.4941 7.85303C54.5161 5.46203 54.3591 4.58999 54.0481 4.27899C53.9833 4.20957 53.9043 4.15488 53.8165 4.11865C53.7287 4.08242 53.6341 4.06552 53.5392 4.06903C52.921 4.15755 52.32 4.34033 51.7572 4.61102C51.4952 4.71102 51.2101 4.82599 50.8971 4.94299C47.8947 6.1108 44.7073 6.7313 41.4861 6.77502C40.8961 6.77502 40.3251 6.74902 39.7861 6.69702C33.9061 6.03502 31.3151 3.67603 29.7671 2.26703C29.0921 1.65303 28.6052 1.20898 28.1842 1.20898C27.7632 1.20898 27.2762 1.65301 26.6022 2.26801C25.0542 3.68001 22.4641 6.04204 16.5891 6.70404C16.0471 6.75604 15.4752 6.78204 14.8892 6.78204C11.6677 6.73837 8.48007 6.1182 5.47717 4.95099C5.16517 4.83299 4.87716 4.72102 4.61816 4.61902C4.05511 4.34786 3.45382 4.16469 2.83521 4.07599ZM28.1871 51.008C28.1249 51.0078 28.0642 50.9892 28.0126 50.9545C27.9609 50.9198 27.9207 50.8706 27.897 50.8131C27.8733 50.7556 27.8671 50.6924 27.8793 50.6313C27.8915 50.5703 27.9215 50.5143 27.9655 50.4703C28.0094 50.4263 28.0655 50.3963 28.1265 50.3841C28.1875 50.3719 28.2507 50.3781 28.3082 50.4018C28.3657 50.4255 28.4149 50.4657 28.4496 50.5174C28.4843 50.569 28.503 50.6298 28.5032 50.692C28.5032 50.7335 28.495 50.7746 28.4791 50.8129C28.4632 50.8513 28.44 50.8861 28.4106 50.9155C28.3813 50.9448 28.3464 50.9681 28.3081 50.9839C28.2698 50.9998 28.2286 51.008 28.1871 51.008Z" fill="white"/>
<path d="M42.8909 18.2453C42.4909 17.2533 41.806 17.5453 41.403 18.1863C40.603 19.4633 40.6029 21.0043 40.5029 23.1513C40.5255 24.5195 40.7544 25.8764 41.1819 27.1763C41.5139 27.9493 42.089 27.8583 42.424 27.2073C42.8491 26.1331 43.1039 24.9991 43.179 23.8463C43.4586 21.9788 43.3606 20.0742 42.8909 18.2453Z" fill="white"/>
<path d="M30.6051 42.2665C30.3051 42.4035 30.1621 42.4025 30.1611 42.8445C30.1601 43.2865 30.2322 47.0085 30.2322 47.0085C30.2322 47.4235 30.5782 47.5205 30.9212 47.2865C31.385 46.9453 31.764 46.502 32.0288 45.9907C32.2936 45.4795 32.4371 44.9141 32.4481 44.3385C32.6931 41.9285 30.9091 42.1285 30.6051 42.2665Z" fill="white"/>
<path d="M14.1508 38.109C14.1218 38.409 13.7638 40.509 13.7288 40.782C13.6718 41.223 13.8109 41.417 13.9759 41.334C14.2353 41.196 14.4848 41.0403 14.7228 40.868C14.7905 40.81 14.8452 40.7382 14.8832 40.6576C14.9213 40.5769 14.9419 40.4892 14.9438 40.4C14.9438 40.4 14.4898 38.362 14.4278 38.027C14.3458 37.585 14.1798 37.805 14.1508 38.109Z" fill="white"/>
<path d="M24.4498 48.3293C24.4198 48.6293 23.8388 51.6932 23.8028 51.9692C23.7478 52.4102 23.6638 52.7142 24.0508 52.5212C24.2158 52.4392 24.9628 51.9992 25.1828 51.8342C25.3293 51.6867 25.418 51.4916 25.4328 51.2842C25.4328 51.2842 24.7868 48.5842 24.7248 48.2482C24.6428 47.8062 24.4768 48.0273 24.4498 48.3293Z" fill="white"/>
<path d="M28.8725 29.8066C28.8445 30.1066 28.4855 31.9066 28.4515 32.1766C28.3955 32.6186 28.4215 32.8386 28.5885 32.7586C28.8469 32.63 29.0956 32.4826 29.3325 32.3176C29.4006 32.2595 29.4558 32.1878 29.4942 32.107C29.5327 32.0261 29.5535 31.938 29.5555 31.8486C29.5555 31.8486 29.2125 30.0606 29.1475 29.7246C29.0665 29.2836 28.8975 29.5026 28.8725 29.8066Z" fill="white"/>
<path d="M51.8213 19.085C51.2069 14.4103 51.6638 9.65702 53.1573 5.18494C53.1573 5.18494 46.0993 8.06795 40.8983 7.63995C30.7713 6.80595 29.7453 2.36597 28.1853 2.36597C26.6253 2.36597 25.6003 6.80595 15.4723 7.63995C10.2723 8.06795 3.21533 5.18494 3.21533 5.18494C4.70886 9.65703 5.16565 14.4103 4.55127 19.085C4.54127 22.596 1.73926 34.4569 1.73926 42.3359C1.80626 44.1809 2.48026 48.836 3.98926 51.004C7.86626 57.756 16.6693 58.9599 19.9203 60.6479C22.931 62.0063 25.7178 63.8142 28.1853 66.0099C30.6532 63.8143 33.4403 62.0063 36.4513 60.6479C39.7023 58.9599 48.5053 57.756 52.3823 51.004C53.8913 48.837 54.5663 44.1809 54.6323 42.3359C54.6323 34.4569 51.8303 22.596 51.8213 19.085ZM36.7094 19.8329C36.8624 19.7059 38.0643 18.9829 38.3683 18.8179C38.6723 18.6529 38.7773 18.718 38.6683 19.15C38.606 19.4586 38.5771 19.7731 38.5823 20.088C38.5823 20.225 38.5063 29.235 38.5063 29.566C38.5077 29.8388 38.5826 30.1062 38.7233 30.34C38.8053 30.45 38.8873 30.864 38.6663 31.001C38.4453 31.138 36.9542 31.99 36.7872 32.127C36.6202 32.264 36.4012 32.042 36.5682 31.739C36.7347 31.3847 36.8295 31.001 36.8473 30.6099C36.8473 30.3339 36.8673 22.0099 36.8683 21.5439C36.8153 21.1025 36.6658 20.6781 36.4303 20.301C36.2973 20.026 36.5434 19.9709 36.7094 19.8329ZM35.8453 20.879C35.8453 21.155 35.9783 23.1949 35.9773 23.4169C35.9763 23.6389 35.6773 23.8839 35.5623 23.5809C35.4458 23.2311 35.2699 22.904 35.0422 22.614C34.9398 22.5303 34.8105 22.4868 34.6783 22.4916C34.5462 22.4964 34.4204 22.5491 34.3243 22.64C34.1583 22.804 34.2133 22.749 34.2123 23.053C34.2113 23.357 34.2753 31.253 34.2733 31.699C34.2833 32.1154 34.3951 32.5229 34.5992 32.8859C34.7382 33.0799 34.9233 33.2339 34.5363 33.4789C34.1493 33.7239 33.2453 34.2609 33.0243 34.3719C32.8033 34.4829 32.6102 34.48 32.7242 34.072C32.8165 33.7118 32.8729 33.3432 32.8923 32.9719C32.9203 32.5869 32.8863 24.437 32.8923 24.105C32.8983 23.773 32.7823 23.416 32.5063 23.605C31.9914 24.1686 31.645 24.8653 31.5063 25.616C31.4333 26.003 31.1183 26.138 31.0923 25.725C31.0663 25.312 31.0423 24.1249 31.0713 23.6559C31.1003 23.1869 31.1283 23.188 31.4033 23.0229C31.7543 22.8139 35.0783 20.7719 35.3843 20.6069C35.6903 20.4419 35.8473 20.603 35.8453 20.879ZM30.1813 34.72C30.127 34.3372 30.0452 33.9589 29.9363 33.588C29.8263 33.258 29.6042 33.3669 29.6042 33.3669C29.6042 33.3669 28.4163 34.0809 28.2523 34.1899C28.1719 34.2362 28.1028 34.2998 28.05 34.3761C27.9973 34.4524 27.9622 34.5395 27.9473 34.631C27.9193 34.823 27.7773 35.9549 27.7473 36.2029C27.7365 36.3405 27.7608 36.4785 27.8182 36.604C27.8756 36.7295 27.9642 36.8382 28.0753 36.92C28.1139 36.9424 28.1459 36.9745 28.1682 37.0132C28.1905 37.0519 28.2021 37.0958 28.2021 37.1404C28.2021 37.1851 28.1905 37.2289 28.1682 37.2676C28.1459 37.3063 28.1139 37.3385 28.0753 37.361C27.8233 37.489 26.4092 38.391 26.1412 38.571C25.8102 38.788 25.7283 38.431 25.8413 38.239C26.0893 37.8139 26.2853 37.3607 26.4253 36.889C26.5643 36.337 28.8052 24.677 28.9172 24.098C29.0292 23.519 29.3063 23.272 29.4413 23.962C29.5533 24.538 31.4853 33.3499 31.6223 33.7089C31.7169 34.0105 31.854 34.297 32.0293 34.5599C32.3033 34.8289 32.1673 34.8599 31.9733 35.0289C31.7793 35.1979 30.8853 35.714 30.4143 35.989C29.9433 36.264 30.1533 35.4649 30.1813 35.3279C30.2092 35.1262 30.2092 34.9217 30.1813 34.72ZM25.4633 9.88794C26.4323 9.30694 29.1322 7.66496 29.7192 7.30896C30.0662 7.09796 30.2443 7.00898 30.2433 7.41998C30.2423 7.83098 30.2123 8.49597 30.2123 8.68896C30.2123 8.88196 29.9632 9.04698 29.8232 8.88098C29.669 8.79574 29.4986 8.74401 29.323 8.72919C29.1474 8.71437 28.9707 8.7368 28.8043 8.79498C28.4199 8.94432 28.0496 9.12802 27.6982 9.34393C27.7262 9.70193 27.6982 12.4979 27.6982 12.6359C28.2363 12.4243 28.7854 12.2421 29.3433 12.09C30.0906 11.8979 30.7818 11.5316 31.3602 11.0209C31.5542 10.7729 31.8603 10.721 31.7183 11.321C31.6165 11.8174 31.3571 12.2675 30.9786 12.6045C30.6002 12.9415 30.1231 13.1472 29.6183 13.191C28.2393 13.27 28.2083 13.419 27.9053 13.655C27.8212 13.7187 27.7544 13.8023 27.7109 13.8984C27.6675 13.9944 27.6487 14.0998 27.6562 14.205C27.6562 14.425 27.6612 17.9839 27.6562 18.1489C27.6513 18.3139 27.8353 18.3149 28.0563 18.2059C29.2533 17.4992 30.216 16.4559 30.8243 15.2059C31.0833 14.5869 31.2663 14.7669 31.2653 15.0699C31.2643 15.3729 31.1783 16.58 31.1503 16.752C31.0943 17.111 31.0662 17.2759 30.2922 17.7419C29.7292 18.0819 26.6173 19.9659 26.3413 20.1299C26.0653 20.2939 25.8723 20.1019 26.0103 19.8539C26.1201 19.6924 26.1691 19.4972 26.1483 19.303C26.1483 19.054 26.1483 11.513 26.1483 11.155C26.1483 10.797 26.0394 10.465 25.7094 10.382C25.3794 10.299 25.1973 10.0499 25.4633 9.88794ZM24.5043 33.7059C24.6173 33.3479 25.2923 28.606 25.3483 28.306C25.3646 27.9843 25.2785 27.6656 25.1023 27.3959C24.9933 27.2299 24.8283 27.064 25.1023 26.843C25.3763 26.622 26.5663 25.993 26.7603 25.855C26.9543 25.717 27.2603 25.801 27.1173 26.132C26.9743 26.463 26.6713 27.785 26.5873 28.145C26.5033 28.505 24.5143 39.1449 24.4303 39.5569C24.3463 39.9689 24.0983 40.2439 23.9303 39.6089C23.7623 38.9739 21.7513 30.888 21.6403 30.446C21.5717 30.1753 21.4186 29.9336 21.2032 29.756C21.0912 29.618 20.8733 29.4229 21.3143 29.1479C21.5233 29.018 22.6963 28.271 22.9143 28.189C23.1323 28.107 23.3572 28.0239 23.2452 28.4379C23.1379 28.8328 23.1084 29.2448 23.1583 29.6509C23.2123 29.9509 24.0843 33.681 24.1663 33.902C24.2483 34.123 24.3973 34.0639 24.5043 33.7059ZM18.3223 14.2609C18.3223 14.2609 19.6953 13.354 19.9443 13.217C20.1933 13.08 20.3583 13.108 20.2443 13.493C20.1329 13.8243 20.0638 14.1683 20.0383 14.517C20.0383 14.793 20.0383 17.244 20.0383 17.244L22.2083 15.9299C22.2083 15.9299 22.2413 13.9169 22.2433 13.5859C22.217 13.2081 22.0799 12.8464 21.8492 12.546C21.6562 12.325 21.6563 12.214 21.9333 12.022C22.2104 11.83 23.0813 11.302 23.4803 11.061C23.6613 10.953 23.8593 10.9769 23.7283 11.4479C23.6708 11.8098 23.6411 12.1755 23.6393 12.5419C23.6103 12.8419 23.6302 19.905 23.6302 20.181C23.6205 20.3217 23.6399 20.4629 23.687 20.5959C23.7341 20.7289 23.8081 20.8508 23.9043 20.954C24.1243 21.175 24.1532 21.41 23.7712 21.642C23.4102 21.862 22.7533 22.273 22.4583 22.442C22.2653 22.551 21.9952 22.55 22.1362 22.054C22.2614 21.5771 22.3187 21.0849 22.3063 20.592C22.3063 19.902 22.2933 17.9439 22.2993 17.5859C22.3073 17.1679 22.4063 17.0489 21.9993 17.2939C21.7993 17.4179 20.5993 18.147 20.2993 18.325C20.1083 18.438 20.0623 18.5249 20.0693 18.6249C20.0893 18.8729 20.0533 22.36 20.0533 22.608C20.0543 22.7177 20.0821 22.8255 20.1344 22.9219C20.1867 23.0183 20.2618 23.1004 20.3533 23.1609C20.5193 23.271 20.6873 23.49 20.2593 23.739C19.8823 23.959 18.9783 24.6169 18.7203 24.7729C18.4863 24.9159 18.3453 24.688 18.4573 24.384C18.5918 24.015 18.6618 23.6257 18.6643 23.233C18.6943 22.654 18.6863 15.9789 18.6873 15.6479C18.6435 15.3393 18.4923 15.0561 18.2603 14.848C18.1273 14.7 17.9893 14.5899 18.3223 14.2609ZM11.9143 16.483L16.2463 13.8469C16.2463 13.8469 16.8163 13.4909 16.8153 14.0159C16.8143 14.5409 16.8053 17.0729 16.8053 17.0729C16.8053 17.0729 16.6653 17.678 16.4193 17.098C16.1733 16.518 16.0082 16.021 15.6772 15.827C15.3462 15.633 15.2372 15.771 15.2352 16.157C15.2332 16.543 15.2352 24.3479 15.2352 24.7339C15.2099 25.1282 15.3267 25.5184 15.5643 25.8339C15.8113 26.0829 16.1553 26.266 15.7123 26.54C15.2693 26.814 13.8713 27.6609 13.8713 27.6609C13.8713 27.6609 13.1853 28.078 13.4073 27.428C13.5793 27.1234 13.6838 26.7854 13.7142 26.437C13.7142 25.966 13.7403 17.776 13.7413 17.361C13.7423 16.946 13.5513 16.534 13.2183 16.809C12.7008 17.849 12.3531 18.9651 12.1882 20.1149C12.0972 20.5269 11.6882 20.9149 11.6882 20.3339C11.6882 19.7529 11.6123 18.0449 11.6143 17.3569C11.6163 16.6689 11.7063 16.61 11.9143 16.483ZM10.3983 38.783C10.5642 39.159 10.6656 39.5603 10.6982 39.97C10.6702 40.27 10.3673 39.9139 10.1743 39.7469C9.98132 39.5799 9.6243 39.332 9.4303 39.166C9.2363 39 8.9643 38.6959 9.1853 38.4769C9.28655 38.1874 9.28749 37.8723 9.18811 37.5822C9.08873 37.292 8.89481 37.0436 8.63733 36.877C8.40568 36.7493 8.14704 36.6783 7.88269 36.6696C7.61834 36.661 7.3557 36.715 7.11621 36.8272C6.87672 36.9394 6.66725 37.1067 6.50476 37.3154C6.34227 37.5241 6.23139 37.7683 6.18127 38.028C6.02427 39.428 7.79027 40.957 8.18127 41.179C9.07027 41.7228 9.78205 42.5133 10.23 43.4542C10.6779 44.3952 10.8428 45.446 10.7043 46.4789C10.4603 48.1009 9.17626 49.9219 7.21826 49.8619C5.26026 49.8019 4.04933 48.804 4.13733 47.04C4.12786 46.7858 4.17485 46.5327 4.27502 46.299C4.37519 46.0652 4.526 45.8565 4.71655 45.688C4.9071 45.5196 5.13265 45.3955 5.37695 45.3248C5.62125 45.254 5.87819 45.2384 6.12927 45.2789C6.42927 45.3909 7.64128 45.8709 7.31128 46.5239C7.17228 46.8009 6.78723 46.441 6.78723 46.441C6.78723 46.441 5.76625 46.492 5.95825 47.241C6.05981 47.5385 6.24675 47.7994 6.49573 47.9913C6.74471 48.1832 7.04473 48.2975 7.35828 48.3199C7.63437 48.3104 7.90524 48.2423 8.15295 48.12C8.40067 47.9977 8.61959 47.8241 8.79504 47.6107C8.9705 47.3973 9.09854 47.149 9.17065 46.8823C9.24277 46.6156 9.25727 46.3367 9.21326 46.064C9.01326 44.556 7.59333 43.439 6.41333 42.364C5.82837 41.8244 5.3665 41.1652 5.05933 40.4311C4.75216 39.697 4.60688 38.9053 4.6333 38.1099C4.69176 37.4852 4.95348 36.8968 5.3783 36.4349C5.80311 35.9731 6.36751 35.6633 6.98523 35.553C7.59725 35.4604 8.22306 35.5584 8.77734 35.8339C9.2593 35.9591 9.7672 35.9415 10.2393 35.783C10.5393 35.618 10.9293 35.3159 10.7393 35.9769C10.437 36.8806 10.3208 37.8361 10.3973 38.7859L10.3983 38.783ZM17.1593 44.0469C16.8433 44.2389 16.2693 44.5849 15.8413 44.812C15.3613 45.067 15.5413 44.2879 15.5673 44.1489C15.6384 43.9454 15.676 43.7316 15.6783 43.5159C15.5827 43.1422 15.4637 42.7748 15.3223 42.416C15.2143 42.083 14.9663 42.1099 14.9663 42.1099C14.9663 42.1099 13.7773 42.824 13.6123 42.934C13.5421 42.9651 13.4817 43.015 13.438 43.0781C13.3942 43.1413 13.3687 43.2152 13.3643 43.2919C13.3343 43.4849 13.1643 44.7809 13.1373 45.0289C13.1103 45.2769 13.5073 45.558 13.7283 45.697C13.9493 45.836 13.9743 45.9969 13.7283 46.1379C13.4823 46.2789 11.7603 47.318 11.4943 47.496C11.1623 47.717 11.1193 47.258 11.2313 47.064C11.427 46.6887 11.5763 46.2911 11.6763 45.8799C11.8153 45.3279 14.0033 32.9519 14.1143 32.3729C14.2253 31.7939 14.5023 31.546 14.6393 32.236C14.7763 32.926 17.1713 42.9169 17.3643 43.2479C17.4396 43.3824 17.4604 43.5406 17.4222 43.6899C17.3841 43.8393 17.2899 43.9682 17.1593 44.0499V44.0469ZM18.3083 43.3259C18.1283 43.4329 17.9782 43.3539 17.9792 42.9949C17.9802 42.6359 18.0683 32.96 18.0693 32.657C18.0291 32.3717 17.893 32.1086 17.6833 31.9109C17.5743 31.8009 17.3833 31.5509 17.7413 31.3329C17.9953 31.1749 19.3723 30.3169 19.6473 30.2059C19.9223 30.0949 20.2543 30.044 20.0333 30.566C19.8512 30.9944 19.7472 31.4519 19.7263 31.9169C19.7263 32.1919 19.6393 41.0419 19.6393 41.0419C19.6393 41.0419 19.6713 41.624 20.1903 41.181C20.9905 40.3545 21.5308 39.3114 21.7443 38.181C21.8293 37.658 22.1873 37.1609 22.1873 37.8519C22.1873 38.5429 22.1783 40.527 22.1233 40.746C22.1087 40.8378 22.0736 40.9251 22.0206 41.0014C21.9676 41.0778 21.8981 41.1412 21.8173 41.187C21.0193 41.702 19.3344 42.728 18.3083 43.329V43.3259ZM27.7843 55.0569C27.5903 55.2219 26.8623 55.64 26.3943 55.915C25.9263 56.19 26.0863 55.3259 26.1143 55.1899C26.1204 54.9162 26.102 54.6424 26.0593 54.3719C26.0303 54.1509 25.9503 53.7369 25.8413 53.2939C25.8295 53.209 25.7986 53.1278 25.7512 53.0563C25.7038 52.9848 25.6409 52.9249 25.5673 52.881C25.5673 52.881 23.7423 54.007 23.5773 54.116C23.5072 54.1477 23.4469 54.1978 23.4031 54.261C23.3592 54.3242 23.3334 54.3982 23.3282 54.475C23.2992 54.668 23.0192 56.265 22.9902 56.514C22.9612 56.763 23.2643 56.9819 23.4843 57.1219C23.7043 57.2619 23.7952 57.5089 23.5472 57.6459C23.2992 57.7829 21.3473 59.005 21.0793 59.184C20.7483 59.403 20.6653 59.045 20.7793 58.851C21.0682 58.3743 21.301 57.866 21.4733 57.3359C21.6133 56.7859 24.2463 43.251 24.3573 42.673C24.4683 42.095 24.7463 41.8469 24.8813 42.5369C24.9883 43.0719 26.5123 49.307 27.2313 52.569C27.3263 53.2274 27.5948 53.8486 28.0093 54.369C28.3123 54.602 27.9783 54.8939 27.7843 55.0599V55.0569ZM36.3923 52.957C36.0873 53.398 34.9254 54.4969 33.9073 53.8849C33.1081 53.4375 32.4793 52.7382 32.1193 51.8959C31.7623 51.1489 30.9413 49.296 30.8053 48.996C30.6693 48.696 30.3373 48.415 30.3053 48.996C30.2733 49.577 30.2922 52.152 30.2922 52.455C30.2922 52.758 30.3443 52.648 30.4553 52.843C30.5663 53.038 30.8412 53.143 30.3702 53.475C29.8992 53.807 29.3773 54.0749 29.1003 54.2449C28.8233 54.4149 28.6003 54.2979 28.7153 53.9449C28.7877 53.6001 28.8039 53.2459 28.7633 52.8959C28.7633 52.4559 28.7753 44.0569 28.7753 43.7269C28.7753 43.3969 28.7523 43.127 28.5573 43.038C28.3623 42.949 27.6123 42.8119 28.3313 42.3719C28.9453 41.9969 29.8503 41.4589 30.2383 41.2189C30.6071 40.9981 31.0268 40.8761 31.4565 40.8647C31.8863 40.8534 32.3116 40.9531 32.6917 41.1542C33.0717 41.3552 33.3935 41.6509 33.6259 42.0126C33.8582 42.3743 33.9934 42.7897 34.0183 43.2189C34.1354 44.0018 34.0427 44.8016 33.7499 45.537C33.457 46.2724 32.9745 46.9169 32.3513 47.405C31.9693 47.798 31.8803 48.0119 31.9893 48.2609C32.6118 49.6122 33.3367 50.914 34.1573 52.155C34.3817 52.3843 34.668 52.5434 34.9812 52.6128C35.2944 52.6822 35.621 52.659 35.9213 52.546C36.3663 52.324 36.6973 52.5149 36.3973 52.9579L36.3923 52.957ZM40.8293 47.124C40.4363 47.347 39.6662 47.785 39.4122 47.96C39.0522 48.207 38.9043 47.904 39.0433 47.545C39.1823 47.186 39.2643 47.2449 39.3223 46.7449C39.3803 46.2449 39.3413 41.145 39.3413 40.869C39.3413 40.593 39.3253 40.2489 39.1583 40.8259C38.9913 41.4029 38.2093 44.411 38.1273 44.577C38.0453 44.743 37.9272 44.961 37.7402 44.629C37.5532 44.297 36.6143 42.6669 36.5333 42.4739C36.4523 42.2809 36.4043 42.446 36.4043 42.639C36.4043 42.832 36.4113 48.0319 36.4093 48.3069C36.4006 48.5553 36.4779 48.7991 36.6283 48.9969C36.7383 49.0789 37.0963 49.3559 36.6813 49.6589C36.2663 49.9619 35.1113 50.59 34.8623 50.726C34.6133 50.862 34.3383 50.7539 34.5883 50.3129C34.8172 49.9289 34.942 49.4919 34.9503 49.045C34.9783 47.966 34.8922 41.817 34.9122 40.429C34.9318 40.2685 34.915 40.1058 34.863 39.9528C34.8111 39.7997 34.7254 39.6604 34.6123 39.545C34.2543 39.352 33.7863 39.131 34.1453 38.881C34.4453 38.681 35.2512 38.169 35.5262 38.032C35.8012 37.895 35.8312 37.977 36.0262 38.254C36.2212 38.531 37.4802 40.684 37.5632 40.824C37.6462 40.964 37.9202 41.129 38.0312 40.715C38.1423 40.301 39.2033 36.167 39.2863 35.915C39.3693 35.663 39.5663 35.559 39.7863 35.394C40.0717 35.2134 40.3669 35.0485 40.6703 34.9C40.9193 34.763 40.9913 34.861 40.9703 35.066C40.9283 35.431 40.8562 36.195 40.8282 36.527C40.8002 36.859 40.8143 45.5129 40.8123 45.8439C40.8047 46.0955 40.8704 46.344 41.0013 46.559C41.1713 46.773 41.1553 46.9409 40.8293 47.1249V47.124ZM39.7183 27.1719C39.3379 25.9855 39.1463 24.7468 39.1503 23.501C39.1113 22.481 39.2013 17.279 41.9563 16.476C43.3313 16.076 44.1563 17.9319 44.2743 18.7029C44.5983 20.9279 44.9843 24.884 43.3413 27.968C42.3453 29.838 40.2193 28.77 39.7183 27.173V27.1719ZM48.3392 32.3329C47.9772 33.2149 46.4773 36.907 46.2833 37.54C46.1379 37.985 46.062 38.4498 46.0583 38.918C46.0294 39.418 46.0463 41.418 46.0443 42.08C45.9903 42.4441 46.0819 42.8148 46.2993 43.1119C46.3431 43.1592 46.3763 43.2151 46.3969 43.2762C46.4174 43.3372 46.4248 43.402 46.4185 43.4661C46.4121 43.5302 46.3922 43.5921 46.3601 43.6479C46.328 43.7038 46.2845 43.7522 46.2323 43.79C45.8383 44.056 44.9823 44.612 44.6783 44.777C44.3743 44.942 44.0393 44.9049 44.2723 44.3339C44.5723 43.5989 44.5722 43.7339 44.5782 43.2059C44.5842 42.6779 44.5673 39.522 44.5693 39.079C44.4739 38.3948 44.2614 37.7321 43.9413 37.1199C43.6933 36.6779 43.0623 35.352 42.8993 35.02C42.7173 34.7352 42.4607 34.5059 42.1573 34.3569C41.9363 34.2179 41.9093 34.108 42.1843 33.916C42.5403 33.668 43.6213 33.0369 43.8973 32.8719C44.1733 32.7069 44.3123 32.8999 44.1973 33.1769C44.1438 33.6975 44.1986 34.2235 44.3583 34.7219C44.4673 35.0519 45.0433 36.185 45.1533 36.379C45.2633 36.573 45.4002 36.8479 45.6772 36.325C46.2738 34.8654 46.7938 33.3757 47.2352 31.8619C47.2829 31.6383 47.2833 31.4071 47.2365 31.1832C47.1896 30.9594 47.0966 30.7478 46.9633 30.562C46.7713 30.342 46.3843 30.148 46.8013 29.817C47.2183 29.486 47.5013 29.2369 47.9313 29.5729C48.2875 29.9279 48.5196 30.3883 48.5931 30.8858C48.6667 31.3833 48.5776 31.8911 48.3392 32.3339V32.3329ZM49.7393 24.926C49.4633 24.982 49.2713 24.7049 49.1393 24.4009C49.0073 24.0969 46.7812 19.0359 46.7812 19.0359C46.7812 19.0359 46.4543 18.5359 46.4503 19.3649C46.4463 20.1939 46.3943 24.206 46.3923 24.647C46.3869 24.7949 46.4162 24.942 46.478 25.0764C46.5399 25.2109 46.6324 25.3289 46.7483 25.421C46.9153 25.586 47.0483 25.8619 46.7483 26.0549C46.3301 26.3454 45.896 26.6126 45.4482 26.855C45.1722 26.964 44.9812 26.908 45.1202 26.355C45.2615 25.8601 45.3547 25.3527 45.3983 24.84C45.4293 24.34 45.4653 17.0209 45.4653 16.5239C45.4653 16.0269 45.3393 15.598 45.1383 15.502C44.7253 15.308 44.6383 15.1429 45.0023 14.8389C45.2509 14.6172 45.5305 14.4329 45.8323 14.2919C46.1323 14.1539 46.3562 13.9059 46.7662 14.7349C47.1762 15.5639 47.9933 17.4349 48.0853 17.6229C48.3033 18.0799 48.4693 18.0229 48.4713 17.5679C48.4713 16.7959 48.5103 13.3059 48.5103 12.7549C48.5002 12.3729 48.3658 12.0046 48.1273 11.7059C47.9903 11.4569 47.6333 11.152 47.9933 10.96C48.3533 10.768 50.0932 9.91798 49.8602 13.42C49.7742 14.74 49.8602 24.075 49.8602 24.351C49.8602 24.627 50.0162 24.8739 49.7402 24.9269L49.7393 24.926Z" fill="white"/>
</g>
<defs>
<clipPath id="clip0_3_2510">
<rect width="56.222" height="67.03" fill="white" transform="translate(0.0771484 0.578003)"/>
</clipPath>
</defs>
</svg>
