<svg width="164" height="38" viewBox="0 0 164 38" fill="none" xmlns="http://www.w3.org/2000/svg">
<g clip-path="url(#clip0_3_2436)">
<path d="M0.453857 31.7065V24.0595L1.23688 24.0995C4.99488 24.2935 8.75486 24.4615 12.5109 24.6895C17.5949 24.9985 22.6779 25.3405 27.7209 26.0775C29.1839 26.2915 30.6299 26.6365 32.0719 26.9725C33.1326 27.2282 34.1145 27.7398 34.9319 28.4625C35.2229 28.7099 35.5351 28.931 35.8649 29.1235C36.3328 29.4386 36.8842 29.6069 37.4484 29.6069C38.0125 29.6069 38.5639 29.4386 39.0319 29.1235C39.7803 28.5973 40.4941 28.0234 41.1689 27.4055C42.3749 26.3725 43.5219 25.2665 44.7749 24.2965C45.4866 23.7693 46.2711 23.3483 47.1039 23.0465C47.9737 22.6552 48.95 22.5683 49.8752 22.7998C50.8005 23.0313 51.6208 23.5677 52.2039 24.3225C53.0039 25.2095 53.7669 26.1225 54.5639 27.0095C54.9103 27.3967 55.2807 27.7617 55.6729 28.1025C55.861 28.3345 56.095 28.5252 56.3601 28.6628C56.6252 28.8004 56.9158 28.8818 57.2138 28.9021C57.5118 28.9224 57.8108 28.881 58.0921 28.7806C58.3734 28.6802 58.6311 28.5229 58.8489 28.3185C59.5649 27.8515 60.2369 27.3185 60.9429 26.8335C62.1529 26.0045 63.3619 25.1735 64.5959 24.3795C65.126 24.0464 65.6829 23.7581 66.2609 23.5175C66.7682 23.2721 67.334 23.1733 67.8945 23.2323C68.455 23.2913 68.9878 23.5058 69.4329 23.8515C70.205 24.4494 70.9419 25.0915 71.6399 25.7745C72.2399 26.3425 72.7559 26.9915 73.3399 27.5745C73.8209 28.0648 74.3373 28.519 74.8849 28.9335C75.4523 29.4016 76.1561 29.673 76.8909 29.707C77.6256 29.7411 78.3516 29.536 78.9599 29.1225C79.8929 28.5125 80.7916 27.8515 81.6519 27.1425C82.9436 26.0164 84.3886 25.0793 85.9438 24.3595C86.827 23.9316 87.8204 23.786 88.7892 23.9423C89.758 24.0987 90.6552 24.5495 91.3589 25.2335C92.4769 26.2685 93.4589 27.4525 94.5049 28.5615C94.9019 29.0057 95.3256 29.4251 95.7739 29.8175C96.2123 30.2721 96.8015 30.5511 97.431 30.6021C98.0605 30.6531 98.687 30.4726 99.1929 30.0945C100.277 29.3304 101.309 28.4935 102.28 27.5895C103.025 26.9335 103.709 26.2075 104.402 25.4955C104.957 24.8736 105.694 24.4417 106.508 24.2605C107.322 24.0793 108.172 24.158 108.939 24.4855C110.554 25.1504 112.017 26.1371 113.239 27.3855C113.834 27.9345 114.402 28.5145 114.968 29.0945C115.439 29.6603 116.089 30.0486 116.811 30.1953C117.533 30.342 118.283 30.2384 118.938 29.9015C119.969 29.3737 120.959 28.7701 121.901 28.0955C122.701 27.5595 123.425 26.9175 124.21 26.3605C125.16 25.5462 126.381 25.1188 127.631 25.1629C128.882 25.2069 130.07 25.7194 130.96 26.5985C131.511 27.0535 131.984 27.5985 132.495 28.1065C133.195 28.7925 133.877 29.4885 134.595 30.1545C134.848 30.376 135.131 30.5612 135.436 30.7045C135.584 30.8023 135.751 30.8695 135.926 30.9022C136.101 30.935 136.28 30.9327 136.454 30.8955C136.628 30.8583 136.793 30.7869 136.939 30.6854C137.085 30.584 137.209 30.4545 137.305 30.3045C137.488 30.0991 137.65 29.8749 137.786 29.6355C138.022 29.2124 138.367 28.8607 138.786 28.6175C139.205 28.3743 139.682 28.2485 140.166 28.2535C142.107 28.1261 144.056 28.3119 145.939 28.8035C149.934 29.6286 153.852 30.7949 157.648 32.2895C159.148 32.8652 160.565 33.6387 161.86 34.5895C162.273 34.9095 162.63 35.3025 163.013 35.6625L162.924 35.7865C162.773 35.7325 162.624 35.6865 162.47 35.6265C158.582 34.1101 154.566 32.947 150.47 32.1515C148.101 31.6444 145.66 31.5655 143.263 31.9185C141.938 32.1172 140.716 32.7478 139.786 33.7125C139.362 34.2296 138.832 34.6491 138.231 34.9425C137.63 35.2359 136.973 35.3962 136.305 35.4125C135.517 35.419 134.748 35.1699 134.113 34.7025C133.167 33.9855 132.293 33.1735 131.385 32.4025C130.585 31.7235 129.813 31.0025 128.963 30.3855C128.491 30.0048 127.9 29.8011 127.294 29.8096C126.687 29.8182 126.103 30.0385 125.642 30.4325C124.664 31.1643 123.735 31.9596 122.861 32.8135C121.081 34.6386 118.688 35.7398 116.144 35.9045C115.027 36.0085 113.902 35.8414 112.864 35.4175C112.231 35.1798 111.671 34.7825 111.237 34.2642C110.804 33.7459 110.511 33.1241 110.389 32.4595C110.262 31.7867 110.057 31.131 109.779 30.5055C109.668 30.2258 109.503 29.9708 109.293 29.7555C109.083 29.5402 108.833 29.3688 108.556 29.2514C108.279 29.1339 107.981 29.0727 107.681 29.0714C107.38 29.07 107.082 29.1286 106.804 29.2435C106.007 29.4791 105.284 29.9153 104.704 30.5105C103.785 31.4505 102.904 32.4315 101.961 33.3425C100.81 34.564 99.3432 35.4416 97.7229 35.8775C95.8003 36.3051 93.7972 36.1968 91.9319 35.5645C91.3766 35.3974 90.8874 35.061 90.5324 34.6024C90.1775 34.1439 89.9745 33.586 89.9518 33.0065C89.8838 32.3535 89.8379 31.6985 89.7629 31.0465C89.6249 29.8465 88.9429 29.3345 87.7949 29.6995C86.9832 29.9632 86.206 30.323 85.4799 30.7715C83.6496 31.9691 81.9334 33.3325 80.3529 34.8445C79.5529 35.5565 78.7419 36.2545 77.8809 36.8845C77.3586 37.2565 76.7863 37.5524 76.1809 37.7635C75.5924 38.0304 74.9274 38.0763 74.3079 37.8926C73.6883 37.7089 73.1558 37.308 72.8079 36.7635C72.2014 35.8334 71.6742 34.854 71.2319 33.8355C70.8079 32.9405 70.4899 31.9965 70.1019 31.0855C69.3019 29.1975 68.0329 28.4245 65.5749 29.0595C64.6635 29.3329 63.8168 29.7878 63.0857 30.3968C62.3547 31.0058 61.7543 31.7565 61.3209 32.6035C60.9995 33.1753 60.6418 33.7257 60.2499 34.2515C59.8402 34.8175 59.3177 35.2925 58.7153 35.6465C58.1129 36.0005 57.4437 36.226 56.7499 36.3085C55.9011 36.4312 55.0352 36.2877 54.2714 35.8978C53.5076 35.5079 52.8834 34.8909 52.4849 34.1315C52.1836 33.6182 51.9398 33.0733 51.7579 32.5065C50.9739 30.0775 49.4079 29.7065 47.1779 30.1365C45.602 30.5051 44.1788 31.3526 43.1039 32.5625C41.6606 34.139 39.8131 35.2899 37.7619 35.8905C36.146 36.3629 34.4163 36.2601 32.8679 35.5995C31.5078 35.0445 30.416 33.9839 29.8219 32.6405C28.9219 30.6405 28.3509 30.3615 26.1689 30.6735C24.3839 30.9285 22.5989 31.2435 20.8029 31.3545C17.5515 31.5545 14.2965 31.6815 11.0379 31.7355C7.67287 31.7935 4.30587 31.7355 0.937866 31.7275C0.791866 31.7275 0.641857 31.7155 0.453857 31.7065Z" fill="white"/>
<path d="M21.0806 5.7097C20.2916 7.9867 19.5466 10.1318 18.8036 12.2778C18.0256 14.5258 17.2476 16.7737 16.4696 19.0217C16.3976 19.2297 16.4016 19.4987 16.0256 19.4887C15.6496 19.4787 15.6586 19.2337 15.5936 19.0117C14.0996 13.873 12.6066 8.73342 11.1146 3.59275C10.7076 2.19275 10.2986 1.88275 8.83957 1.85075C8.80857 1.85075 8.77057 1.86175 8.74857 1.85075C8.64857 1.78875 8.55958 1.71974 8.46558 1.65074C8.56558 1.58774 8.66556 1.47272 8.76556 1.47172C9.66556 1.45672 10.5656 1.46275 11.4736 1.46275C12.7596 1.46275 14.0446 1.45574 15.3296 1.47074C15.4984 1.50281 15.6609 1.56222 15.8106 1.64671C15.6674 1.73539 15.5121 1.80278 15.3496 1.84672C14.9866 1.88972 14.6126 1.85274 14.2496 1.91374C13.5346 2.03374 13.3176 2.3827 13.4966 3.0897C13.6196 3.5777 13.7786 4.05574 13.9186 4.53874C14.9412 8.06874 15.9636 11.5987 16.9856 15.1287C17.0316 15.2857 17.0946 15.4367 17.1856 15.6807C17.7606 14.0057 18.3026 12.4217 18.8456 10.8377C19.4696 9.02075 20.1046 7.20673 20.7076 5.38273C20.7891 5.09637 20.7973 4.79409 20.7316 4.5037C20.6184 3.95092 20.464 3.40742 20.2696 2.87773C20.1921 2.55096 19.9953 2.26494 19.7177 2.07585C19.4402 1.88675 19.102 1.80827 18.7696 1.85575C18.4176 1.85575 18.0646 1.86872 17.7146 1.84672C17.6146 1.84072 17.5146 1.73972 17.4076 1.68272C17.5076 1.61072 17.6146 1.4777 17.7176 1.4777C19.2936 1.4637 20.8706 1.46775 22.4466 1.46775H25.6466C25.7626 1.77575 25.6606 1.86271 25.3946 1.85771C24.9046 1.84871 24.4146 1.84771 23.9256 1.85771C23.0526 1.88371 22.7256 2.31674 22.9596 3.13774C24.1402 7.20974 25.3249 11.2801 26.5136 15.3487C26.5336 15.4187 26.5656 15.4857 26.6276 15.6487C26.6976 15.4727 26.7426 15.3737 26.7776 15.2717C27.7726 12.3087 28.7836 9.3507 29.7506 6.3787C29.9758 5.66707 30.1276 4.9343 30.2036 4.19175C30.2721 3.89742 30.2697 3.59098 30.1965 3.29777C30.1233 3.00456 29.9816 2.73294 29.7828 2.50529C29.5841 2.27764 29.334 2.10045 29.0534 1.98838C28.7727 1.87632 28.4695 1.83255 28.1686 1.8607C27.985 1.86392 27.8014 1.85759 27.6186 1.84172C27.5436 1.82972 27.4826 1.72773 27.4186 1.66673C27.4709 1.59271 27.5347 1.52756 27.6076 1.47373C27.6676 1.44073 27.7576 1.46372 27.8336 1.46372C29.7006 1.46372 31.5676 1.46374 33.4336 1.47074C33.5783 1.49884 33.7173 1.55121 33.8446 1.62571C33.7176 1.71271 33.6006 1.85173 33.4626 1.87773C33.0667 1.94202 32.6917 2.09914 32.3683 2.33622C32.0448 2.5733 31.7821 2.88361 31.6016 3.24174C31.0613 4.26435 30.5935 5.3236 30.2016 6.41172C28.7446 10.6197 27.3416 14.8457 25.9096 19.0617C25.8581 19.2364 25.7399 19.3836 25.5806 19.4717C25.3136 19.5627 25.1236 19.4717 25.0266 19.1277C24.1266 15.9897 23.2076 12.8587 22.2936 9.7277C21.9429 8.5277 21.5919 7.32773 21.2406 6.12773C21.2016 6.02873 21.1626 5.9357 21.0806 5.7097Z" fill="white"/>
<path d="M75.1649 2.64452C75.7093 2.11632 76.1182 1.46451 76.3569 0.744499C76.4509 0.458499 76.5849 0.331474 76.9049 0.469474V7.3355C76.5919 7.4355 76.4799 7.33549 76.4399 7.01049C76.2654 5.30873 75.5408 3.71029 74.3759 2.45751C73.7741 1.7352 72.9838 1.1939 72.0928 0.893791C71.2018 0.593679 70.2451 0.546492 69.3289 0.757499C68.6064 0.922165 67.9573 1.31782 67.4799 1.88451C67.2297 2.13529 67.0357 2.43632 66.9107 2.76775C66.7857 3.09918 66.7325 3.45341 66.7547 3.80694C66.7769 4.16047 66.874 4.50524 67.0396 4.81841C67.2051 5.13158 67.4353 5.40599 67.7149 5.62347C68.5482 6.2376 69.4507 6.75183 70.4039 7.15551C71.8039 7.79751 73.2849 8.26748 74.6679 8.94048C75.5603 9.33953 76.3289 9.97109 76.8935 10.7691C77.458 11.5671 77.7977 12.5022 77.8769 13.4765C77.9579 14.2474 77.8644 15.0266 77.6032 15.7565C77.3421 16.4863 76.92 17.1479 76.3683 17.6924C75.8166 18.2369 75.1495 18.6503 74.4163 18.9018C73.6831 19.1533 72.9027 19.2366 72.1329 19.1455C71.288 19.0479 70.4711 18.782 69.7307 18.3635C68.9902 17.9449 68.3412 17.3821 67.8219 16.7085C67.6569 16.5085 67.5039 16.3005 67.2509 15.9765C66.8059 16.9245 66.3809 17.7925 65.9919 18.6765C65.8709 18.9535 65.7349 19.0685 65.4149 18.9565V10.6155C65.7509 10.4815 65.8509 10.6365 65.9049 10.9365C66.1373 12.4008 66.6018 13.8185 67.2809 15.1365C67.6364 15.9185 68.1489 16.6192 68.7866 17.1948C69.4243 17.7704 70.1736 18.2087 70.9879 18.4825C72.1031 18.8469 73.3068 18.8371 74.4159 18.4545C74.9607 18.2766 75.4496 17.9593 75.8339 17.5341C76.2182 17.1089 76.4847 16.5906 76.6069 16.0307C76.7291 15.4707 76.7028 14.8886 76.5305 14.342C76.3583 13.7953 76.0461 13.3032 75.6249 12.9145C74.7437 12.1262 73.7186 11.5153 72.6059 11.1155C71.3529 10.5895 70.0859 10.0975 68.8389 9.55852C67.7208 9.11546 66.7768 8.3213 66.1489 7.29552C65.7463 6.59006 65.5316 5.79304 65.5251 4.98083C65.5187 4.16862 65.7208 3.36835 66.1122 2.65661C66.5035 1.94486 67.071 1.34551 67.7603 0.915824C68.4495 0.486135 69.2375 0.240516 70.0489 0.202507C71.5017 0.128041 72.926 0.624346 74.0179 1.5855C74.4059 1.9155 74.7639 2.27252 75.1649 2.64452Z" fill="white"/>
<path d="M37.5068 18.9485C37.3888 18.6635 37.4528 18.5406 37.7398 18.5486C37.9838 18.5576 38.2298 18.5546 38.4738 18.5486C38.5928 18.5609 38.713 18.5469 38.826 18.5077C38.9391 18.4685 39.0421 18.405 39.1279 18.3217C39.2137 18.2384 39.2802 18.1373 39.3227 18.0254C39.3652 17.9136 39.3826 17.7938 39.3738 17.6745C39.3928 17.4465 39.3988 17.2165 39.3998 16.9875C39.3998 14.6509 39.3998 12.3142 39.3998 9.97753C39.3998 8.85153 39.0618 8.51555 37.9208 8.49455C37.8146 8.50844 37.7069 8.50506 37.6018 8.48454C37.5128 8.45054 37.4478 8.35153 37.3718 8.28453C37.4398 8.22353 37.5058 8.11552 37.5778 8.11052C38.8258 8.02652 40.0778 7.95455 41.3778 7.87755V10.7956L41.4778 10.8196C41.5478 10.6786 41.6178 10.5376 41.6898 10.3976C41.9777 9.72586 42.4304 9.13758 43.006 8.6873C43.5817 8.23702 44.2616 7.9393 44.9828 7.82158C45.4509 7.74268 45.9305 7.76669 46.3884 7.89202C46.8462 8.01734 47.2712 8.24094 47.6339 8.54723C47.9965 8.85352 48.288 9.23515 48.4882 9.66557C48.6883 10.096 48.7923 10.5649 48.7928 11.0395C48.9198 12.9865 48.8738 14.9395 48.9068 16.8985C48.8992 17.2033 48.9152 17.5082 48.9548 17.8105C49.0458 18.3315 49.2988 18.5266 49.8418 18.5516C50.0858 18.5626 50.3328 18.5405 50.5748 18.5685C50.6608 18.5785 50.7348 18.6916 50.8148 18.7566C50.7338 18.8226 50.6528 18.9455 50.5718 18.9455C48.7218 18.9565 46.8718 18.9546 45.0258 18.9546C44.9108 18.6826 44.9538 18.5546 45.2478 18.5546C45.5078 18.5616 45.7688 18.5605 46.0278 18.5475C46.1396 18.5568 46.2521 18.5423 46.3578 18.5049C46.4636 18.4675 46.5602 18.4081 46.6413 18.3306C46.7224 18.2531 46.7861 18.1592 46.8282 18.0553C46.8704 17.9513 46.89 17.8396 46.8858 17.7275C46.9158 17.3785 46.9108 17.0275 46.9118 16.6745C46.9118 14.9745 46.9228 13.2835 46.9058 11.5885C46.9106 11.0547 46.8644 10.5216 46.7678 9.99657C46.7401 9.71903 46.6481 9.45179 46.4989 9.21611C46.3497 8.98043 46.1476 8.78278 45.9087 8.63896C45.6697 8.49515 45.4004 8.40911 45.1223 8.38768C44.8443 8.36625 44.565 8.41005 44.3068 8.51555C43.5616 8.72122 42.9178 9.19348 42.4978 9.84258C41.7547 10.9739 41.3681 12.3021 41.3878 13.6556C41.3568 14.8916 41.3728 16.1296 41.3828 17.3666C41.3898 18.3006 41.6538 18.5496 42.5968 18.5566C42.7182 18.5416 42.8412 18.5443 42.9618 18.5646C43.0646 18.6163 43.1588 18.6838 43.2408 18.7646C43.1568 18.8276 43.0728 18.9436 42.9878 18.9446C41.1628 18.9506 39.3288 18.9485 37.5068 18.9485Z" fill="white"/>
<path d="M135.164 13.3555C135.196 14.0951 135.079 14.8337 134.82 15.5272C134.561 16.2206 134.165 16.8548 133.655 17.3919C133.145 17.929 132.533 18.3581 131.854 18.6534C131.175 18.9488 130.444 19.1045 129.703 19.1112C128.963 19.1179 128.229 18.9755 127.545 18.6925C126.861 18.4095 126.241 17.9916 125.721 17.4639C125.202 16.9361 124.794 16.3092 124.523 15.6205C124.251 14.9319 124.12 14.1956 124.139 13.4554C124.146 11.9917 124.701 10.5837 125.695 9.50891C126.688 8.43415 128.049 7.77069 129.507 7.64941C130.254 7.65071 130.993 7.79958 131.682 8.0874C132.371 8.37522 132.996 8.79636 133.522 9.3266C134.047 9.85683 134.463 10.4857 134.745 11.1771C135.027 11.8685 135.169 12.6088 135.164 13.3555ZM133.064 13.6475C132.964 12.6335 132.907 11.8574 132.795 11.0894C132.728 10.6992 132.617 10.3178 132.464 9.95245C132.331 9.51873 132.087 9.1269 131.758 8.815C131.428 8.50311 131.024 8.28172 130.583 8.17242C128.621 7.73242 127.317 8.50942 126.773 10.1724C126.378 11.4596 126.244 12.8129 126.38 14.1525C126.435 15.0172 126.591 15.8725 126.843 16.7014C127.002 17.3167 127.374 17.8559 127.892 18.2236C128.41 18.5912 129.042 18.7637 129.675 18.7104C130.325 18.7616 130.972 18.5778 131.497 18.1924C132.023 17.807 132.393 17.2455 132.539 16.6104C132.771 15.6334 132.947 14.6442 133.068 13.6475H133.064Z" fill="white"/>
<path d="M88.9774 1.36359L93.1414 1.04956V1.77155C93.1314 6.50488 93.1228 11.2382 93.1154 15.9716C93.1154 16.5826 93.1405 17.1926 93.1715 17.8026C93.2035 18.4556 93.4575 18.7086 94.1065 18.7436C94.4065 18.7596 94.7154 18.7436 95.0214 18.7436C95.1664 19.0576 95.1004 19.1735 94.7684 19.1725C92.9024 19.1645 91.0365 19.1725 89.1575 19.1725C89.0115 18.8725 89.0905 18.7455 89.4205 18.7535C89.6955 18.7635 89.9709 18.7586 90.2454 18.7386C90.3496 18.7426 90.4535 18.726 90.5512 18.6897C90.6489 18.6534 90.7385 18.5982 90.8148 18.5272C90.8911 18.4562 90.9525 18.3708 90.9957 18.276C91.0389 18.1812 91.063 18.0787 91.0665 17.9745C91.1066 17.7185 91.1263 17.4597 91.1254 17.2006C91.1254 12.6006 91.1254 8.00392 91.1254 3.41058C91.1254 3.27258 91.1255 3.13454 91.1115 2.99854C91.0205 2.04154 90.6975 1.74757 89.7335 1.74457C89.5815 1.74457 89.4275 1.74457 89.2755 1.74457C88.9645 1.73357 88.9644 1.73159 88.9774 1.36359Z" fill="white"/>
<path d="M124.106 16.1813C124.034 16.6546 123.867 17.1083 123.614 17.5146C123.361 17.921 123.027 18.2715 122.634 18.5445C122.241 18.8176 121.796 19.0075 121.327 19.1028C120.858 19.198 120.374 19.1964 119.906 19.0982C119.238 19.0048 118.629 18.6637 118.2 18.1427C117.772 17.6218 117.555 16.9588 117.592 16.2853C117.555 13.8433 117.575 11.4002 117.571 8.95823C117.571 8.77823 117.571 8.59726 117.571 8.35826H115.223C115.114 8.05826 115.082 7.85821 115.414 7.74021C116.288 7.40617 117.063 6.8557 117.666 6.14036C118.27 5.42502 118.682 4.56825 118.864 3.65025C118.958 3.32808 119.021 2.99754 119.052 2.66325C119.084 2.25525 119.276 2.17226 119.675 2.30326V7.58921H123.439V8.32426H119.647V8.82426C119.647 11.2976 119.647 13.7702 119.647 16.2422C119.647 16.4102 119.657 16.5782 119.671 16.7422C119.664 17.0657 119.752 17.3841 119.924 17.6579C120.097 17.9316 120.346 18.1488 120.641 18.2823C120.963 18.4345 121.325 18.4841 121.676 18.4244C122.028 18.3647 122.353 18.1984 122.607 17.9482C123.005 17.4959 123.331 16.985 123.574 16.4333C123.706 16.1893 123.817 16.0893 124.106 16.1813Z" fill="white"/>
<path d="M60.5066 12.9975H52.7756C52.6326 14.4121 52.8554 15.8398 53.4226 17.1435C53.7618 17.7889 54.3295 18.2845 55.0147 18.5334C55.6999 18.7824 56.4533 18.7667 57.1276 18.4895C57.8754 18.2315 58.5434 17.7838 59.0664 17.1903C59.5894 16.5968 59.9496 15.8778 60.1116 15.1036C60.2116 14.7686 60.2116 14.7685 60.6006 14.8205C60.475 15.686 60.131 16.5052 59.6011 17.2009C59.0711 17.8965 58.3726 18.4457 57.5716 18.7966C56.7786 19.1589 55.8989 19.2884 55.0351 19.17C54.1712 19.0515 53.3589 18.69 52.6926 18.1275C52.0542 17.5874 51.5306 16.9247 51.1529 16.1786C50.7753 15.4325 50.5512 14.6182 50.4939 13.7839C50.4367 12.9496 50.5474 12.1123 50.8196 11.3216C51.0918 10.5309 51.52 9.80279 52.0786 9.18053C52.5171 8.7031 53.0514 8.32363 53.6466 8.06688C54.2418 7.81013 54.8845 7.68192 55.5327 7.6906C56.1809 7.69928 56.8199 7.84463 57.408 8.11723C57.9961 8.38984 58.5201 8.78357 58.9456 9.27257C59.8709 10.3028 60.421 11.6154 60.5066 12.9975ZM52.7716 12.4886C54.4356 12.4886 56.0506 12.4886 57.6656 12.4886C57.739 12.4921 57.8122 12.4803 57.8808 12.454C57.9494 12.4278 58.0118 12.3876 58.064 12.336C58.1163 12.2844 58.1573 12.2225 58.1844 12.1543C58.2115 12.086 58.2242 12.0129 58.2216 11.9396C58.3147 11.1152 58.1667 10.2815 57.7956 9.53954C57.5938 9.08967 57.2612 8.711 56.8412 8.45274C56.4212 8.19449 55.9332 8.06861 55.4406 8.09154C54.9791 8.10085 54.5309 8.24813 54.1538 8.51439C53.7766 8.78066 53.4879 9.15374 53.3246 9.58556C52.9178 10.4973 52.7282 11.4911 52.7706 12.4886H52.7716Z" fill="white"/>
<path d="M81.5939 12.9429C81.4812 14.2539 81.6538 15.5739 82.0998 16.8119C82.247 17.1885 82.4702 17.5308 82.7555 17.8174C83.0407 18.104 83.3819 18.3288 83.7578 18.4778C84.1337 18.6268 84.5363 18.6967 84.9405 18.6833C85.3446 18.6699 85.7416 18.5734 86.1069 18.3998C87.0762 18.0379 87.8839 17.3409 88.3838 16.4349C88.5069 16.2774 88.686 16.1735 88.8838 16.1449C88.6514 16.7834 88.2795 17.3619 87.7951 17.8383C87.3107 18.3148 86.7261 18.6771 86.0838 18.8989C85.2009 19.2267 84.2397 19.2813 83.3254 19.0555C82.411 18.8297 81.5857 18.334 80.9569 17.6329C79.9406 16.5381 79.3443 15.1192 79.2735 13.6271C79.2027 12.135 79.6619 10.666 80.5699 9.47986C80.9839 8.93073 81.515 8.48074 82.1247 8.1626C82.7344 7.84447 83.4073 7.66623 84.0946 7.64075C84.7818 7.61528 85.4661 7.7432 86.0977 8.01532C86.7293 8.28745 87.2923 8.69689 87.7458 9.21387C88.6775 10.2443 89.237 11.5572 89.3349 12.9429H81.5939ZM81.6029 12.4689C83.2399 12.4689 84.8279 12.4759 86.4169 12.4639C86.4985 12.4669 86.58 12.4527 86.6557 12.4221C86.7315 12.3915 86.8 12.3452 86.8566 12.2863C86.9133 12.2273 86.9569 12.1571 86.9845 12.0802C87.0121 12.0033 87.0231 11.9213 87.0168 11.8398C87.0912 11.0138 86.9358 10.1832 86.5679 9.43988C86.3653 9.00571 86.0389 8.64114 85.6296 8.39203C85.2204 8.14292 84.7466 8.02037 84.2679 8.03986C83.8122 8.04263 83.3676 8.18069 82.9905 8.43653C82.6134 8.69237 82.3208 9.05448 82.1498 9.47687C81.7108 10.4098 81.5233 11.4412 81.6058 12.4689H81.6029Z" fill="white"/>
<path d="M104.817 12.8901H96.9843C97.0773 13.8571 97.1623 14.772 97.2563 15.69C97.2794 15.8407 97.3158 15.9889 97.3653 16.133C97.4529 16.6198 97.6575 17.078 97.9615 17.4681C98.2655 17.8582 98.6597 18.1685 99.1103 18.3724C99.5609 18.5763 100.054 18.6676 100.548 18.6385C101.042 18.6093 101.521 18.4606 101.944 18.2051C102.745 17.8125 103.407 17.1867 103.844 16.4101C103.976 16.2395 104.165 16.1228 104.376 16.0821C104.117 16.7946 103.686 17.4321 103.121 17.938C102.556 18.4439 101.875 18.8025 101.138 18.982C100.319 19.1989 99.457 19.1912 98.642 18.9594C97.8271 18.7276 97.0896 18.2805 96.5073 17.6651C95.4845 16.599 94.8663 15.2091 94.7595 13.7356C94.6527 12.2621 95.064 10.7975 95.9223 9.59507C96.3483 8.98303 96.9148 8.48198 97.5743 8.13395C98.2338 7.78592 98.9671 7.60104 99.7128 7.59477C100.458 7.5885 101.195 7.76105 101.86 8.09794C102.525 8.43484 103.1 8.92626 103.536 9.53105C104.275 10.5053 104.72 11.671 104.817 12.8901ZM97.0673 12.4051C98.7143 12.4051 100.304 12.4051 101.894 12.4051C102.359 12.4051 102.494 12.0791 102.506 11.7051C102.568 10.8779 102.394 10.0501 102.006 9.31706C101.796 8.90519 101.473 8.56206 101.074 8.32817C100.675 8.09427 100.217 7.97936 99.7553 7.99705C99.3237 7.99686 98.901 8.11995 98.5369 8.35185C98.1729 8.58375 97.8826 8.91482 97.7003 9.30607C97.2208 10.2655 97.0025 11.3344 97.0673 12.4051Z" fill="white"/>
<path d="M134.38 8.1848C134.473 8.0938 134.561 7.93179 134.66 7.92479C135.345 7.87479 136.034 7.87681 136.72 7.82481C137.406 7.77281 138.081 7.67478 138.804 7.59178V10.5668L138.897 10.5938L139.261 9.79381C139.522 9.10481 139.959 8.49608 140.529 8.02781C140.814 7.80208 141.149 7.64881 141.506 7.58116C141.863 7.5135 142.232 7.53343 142.579 7.63933C142.927 7.74522 143.244 7.9339 143.503 8.18913C143.762 8.44436 143.955 8.75855 144.066 9.10478C144.15 9.50497 144.133 9.91999 144.016 10.3118C143.982 10.4625 143.916 10.6039 143.821 10.7258C143.727 10.8476 143.606 10.9469 143.468 11.0164C143.331 11.0859 143.179 11.1238 143.025 11.1275C142.871 11.1312 142.718 11.1006 142.577 11.0378C142.434 10.9714 142.307 10.8775 142.201 10.7614C142.096 10.6453 142.014 10.5094 141.961 10.3616C141.909 10.2138 141.886 10.0569 141.894 9.90025C141.903 9.74355 141.942 9.59009 142.011 9.44877C142.168 9.20838 142.343 8.98009 142.534 8.76579C142.634 8.61679 142.804 8.3968 142.757 8.2888C142.702 8.2112 142.632 8.14613 142.55 8.098C142.469 8.04988 142.378 8.01982 142.284 8.00981C141.933 7.96282 141.576 8.00484 141.245 8.13206C140.915 8.25928 140.621 8.46757 140.393 8.73778C139.546 9.65915 139.053 10.8512 139.003 12.1018C138.909 13.9758 138.903 15.8548 138.893 17.7318C138.887 18.4938 139.202 18.7768 139.958 18.8008C140.23 18.8098 140.502 18.8008 140.769 18.8008C140.874 19.0848 140.818 19.2008 140.53 19.2008C138.709 19.1935 136.888 19.1935 135.068 19.2008C134.793 19.2008 134.708 19.1008 134.828 18.8008C135.105 18.8008 135.393 18.8068 135.68 18.8008C136.455 18.7818 136.773 18.4868 136.78 17.7128C136.8 16.3688 136.792 15.0248 136.793 13.6808C136.794 12.3368 136.799 10.9928 136.793 9.64879C136.787 8.69879 136.435 8.34877 135.493 8.33177C135.159 8.32477 134.824 8.33177 134.493 8.33177L134.38 8.1848Z" fill="white"/>
<path d="M152.53 7.87547C152.53 9.21747 152.53 10.5605 152.522 11.9025C152.522 11.9925 152.416 12.0815 152.358 12.1715C152.275 12.0865 152.15 12.0165 152.114 11.9145C151.999 11.5845 151.94 11.2335 151.814 10.9065C151.593 10.1937 151.177 9.5568 150.614 9.06742C150.05 8.57804 149.362 8.2556 148.625 8.13645C148.284 8.07382 147.934 8.08611 147.599 8.17246C147.264 8.25881 146.952 8.41714 146.684 8.63645C146.473 8.77861 146.302 8.9714 146.185 9.19712C146.068 9.42284 146.01 9.67429 146.016 9.92832C146.022 10.1824 146.091 10.4309 146.218 10.651C146.345 10.8712 146.525 11.056 146.742 11.1885C147.421 11.562 148.134 11.871 148.871 12.1115C149.723 12.4435 150.621 12.6735 151.441 13.0685C151.821 13.2072 152.169 13.4202 152.466 13.6949C152.762 13.9696 153.001 14.3005 153.169 14.6685C153.336 15.0365 153.429 15.4342 153.441 15.8383C153.454 16.2424 153.386 16.645 153.241 17.0225C152.956 17.7896 152.409 18.4313 151.697 18.8339C150.985 19.2365 150.153 19.3741 149.349 19.2225C148.407 19.0702 147.536 18.6288 146.856 17.9594L146.509 17.6275C145.892 18.0465 145.909 18.9425 145.156 19.3455V14.3455C145.427 14.2335 145.525 14.3335 145.611 14.5955C145.794 15.2709 146.041 15.9272 146.349 16.5555C146.708 17.2903 147.282 17.8988 147.994 18.3002C148.707 18.7017 149.524 18.8772 150.339 18.8035C150.793 18.7606 151.23 18.6079 151.612 18.3585C151.867 18.2139 152.081 18.0053 152.231 17.7532C152.381 17.5011 152.464 17.2142 152.469 16.9208C152.475 16.6273 152.404 16.3373 152.264 16.0795C152.124 15.8217 151.918 15.6049 151.669 15.4505C150.958 15.0388 150.21 14.694 149.435 14.4205C148.618 14.0825 147.757 13.8405 146.963 13.4585C146.533 13.2923 146.15 13.023 145.848 12.6743C145.546 12.3256 145.334 11.9081 145.231 11.4585C145.08 10.8759 145.109 10.2612 145.314 9.69535C145.519 9.12951 145.891 8.63904 146.38 8.28849C146.867 7.92255 147.451 7.7065 148.059 7.66673C148.667 7.62695 149.274 7.76516 149.805 8.06449C150.353 8.37997 150.879 8.73277 151.379 9.12046C151.59 8.78246 151.799 8.42047 152.035 8.08347C152.141 7.96257 152.26 7.85481 152.392 7.76249L152.53 7.87547Z" fill="white"/>
<path d="M115.347 16.0882C115.178 16.6572 114.89 17.184 114.503 17.634C114.116 18.084 113.638 18.4471 113.1 18.6996C112.563 18.9521 111.978 19.0882 111.385 19.099C110.791 19.1097 110.202 18.995 109.656 18.7622C108.84 18.4017 108.116 17.8596 107.541 17.1772C106.965 16.4948 106.553 15.6902 106.336 14.8245C106.118 13.9589 106.101 13.055 106.286 12.1817C106.47 11.3084 106.852 10.4888 107.401 9.78523C107.857 9.09899 108.481 8.54154 109.215 8.16658C109.948 7.79161 110.766 7.61175 111.589 7.64424C112.297 7.6666 112.987 7.86987 113.594 8.23469C114.2 8.59951 114.703 9.11371 115.055 9.72822C115.241 10.0102 115.361 10.3311 115.404 10.6664C115.447 11.0016 115.412 11.3423 115.303 11.6622C115.233 11.9335 115.072 12.1724 114.846 12.3381C114.62 12.5038 114.343 12.5861 114.064 12.5712C113.784 12.5562 113.518 12.4448 113.311 12.256C113.104 12.0671 112.968 11.8125 112.928 11.5352C112.843 11.2701 112.855 10.9833 112.963 10.7265C113.071 10.4698 113.267 10.26 113.516 10.1352C114.285 9.68621 114.316 9.26023 113.569 8.76423C113.143 8.46276 112.657 8.25668 112.144 8.16005C111.631 8.06341 111.103 8.07849 110.596 8.20424C110.194 8.30657 109.824 8.50959 109.521 8.7942C109.219 9.07882 108.994 9.43564 108.867 9.83119C108.521 10.8271 108.359 11.8774 108.388 12.9312C108.331 14.0615 108.463 15.1932 108.778 16.2802C108.882 16.8572 109.16 17.3887 109.574 17.8039C109.988 18.2191 110.518 18.4983 111.095 18.6042C111.744 18.7047 112.408 18.6085 113.001 18.3279C113.594 18.0473 114.09 17.5953 114.424 17.0302C114.574 16.8181 114.695 16.5875 114.786 16.3442C114.892 16.0362 115.075 15.9922 115.347 16.0882Z" fill="white"/>
<path d="M31.0993 8.15143L35.0373 7.85645V8.53442C35.0373 11.2838 35.035 14.0325 35.0303 16.7805C35.0303 17.0555 35.0303 17.3304 35.0523 17.6044C35.0983 18.2884 35.3443 18.5244 36.0293 18.5464C36.3023 18.5554 36.5753 18.5464 36.8363 18.5464C36.9673 18.8404 36.8883 18.9465 36.6093 18.9465C34.8963 18.9465 33.1823 18.9464 31.4693 18.9354C31.3633 18.9354 31.2593 18.8014 31.1543 18.7294C31.2543 18.6684 31.3543 18.5664 31.4543 18.5554C31.7273 18.5274 32.0043 18.5494 32.2793 18.5334C32.4657 18.541 32.648 18.4771 32.7889 18.3548C32.9298 18.2325 33.0186 18.061 33.0373 17.8754C33.0821 17.5892 33.1055 17.3001 33.1073 17.0104C33.1133 14.6584 33.1133 12.3068 33.1073 9.95544C33.1073 8.87744 32.7363 8.50745 31.6443 8.48645C31.5236 8.50336 31.4009 8.49997 31.2813 8.47644C31.1675 8.4104 31.0643 8.32749 30.9753 8.23047L31.0993 8.15143Z" fill="white"/>
<path d="M34.1245 5.89854C33.8697 5.89733 33.621 5.82094 33.4095 5.67894C33.1979 5.53694 33.033 5.33566 32.9354 5.10033C32.8378 4.86499 32.8118 4.60609 32.8608 4.35606C32.9097 4.10603 33.0313 3.87599 33.2104 3.69481C33.3895 3.51363 33.6182 3.38936 33.8676 3.33757C34.1171 3.28578 34.3762 3.30877 34.6127 3.40367C34.8491 3.49858 35.0523 3.66119 35.1967 3.87108C35.3411 4.08097 35.4203 4.3288 35.4245 4.58354C35.4295 4.75633 35.3995 4.92833 35.3361 5.08916C35.2727 5.24998 35.1774 5.39628 35.0559 5.51921C34.9344 5.64214 34.7892 5.73917 34.6291 5.80437C34.469 5.86956 34.2973 5.90159 34.1245 5.89854Z" fill="white"/>
</g>
<defs>
<clipPath id="clip0_3_2436">
<rect width="162.558" height="37.784" fill="white" transform="translate(0.453857 0.20105)"/>
</clipPath>
</defs>
</svg>
