<svg width="121" height="50" viewBox="0 0 121 50" fill="none" xmlns="http://www.w3.org/2000/svg">
<g clip-path="url(#clip0_3_2456)">
<path d="M74.872 38.97C74.872 38.416 74.472 38.098 73.972 37.841L72.672 37.169C72.3513 37.0369 72.0747 36.8163 71.8745 36.533C71.6742 36.2498 71.5586 35.9155 71.541 35.569C71.5665 35.31 71.6433 35.0586 71.7671 34.8295C71.8909 34.6005 72.0591 34.3985 72.2619 34.2352C72.4647 34.072 72.6981 33.9508 72.9483 33.8789C73.1985 33.8069 73.4605 33.7856 73.719 33.8161C74.2771 33.8037 74.8319 33.9058 75.349 34.116C75.449 34.156 75.515 34.206 75.515 34.284C75.5122 34.3153 75.5048 34.3459 75.493 34.375L75.339 34.775C75.3308 34.8069 75.3121 34.8351 75.286 34.8552C75.26 34.8753 75.2279 34.8862 75.195 34.886C75.1526 34.8851 75.111 34.8749 75.073 34.856C74.6613 34.6804 74.2204 34.5827 73.773 34.568C73.197 34.568 72.53 34.8241 72.53 35.4881C72.53 36.0031 72.9 36.288 73.33 36.508L74.43 37.0711C75.23 37.4881 75.83 37.982 75.83 38.904C75.83 40.204 74.71 40.853 73.447 40.853C72.8617 40.8473 72.2806 40.7539 71.723 40.576C71.6965 40.5708 71.6714 40.5598 71.6497 40.5438C71.6279 40.5277 71.6101 40.507 71.5973 40.4832C71.5846 40.4593 71.5773 40.4329 71.576 40.4059C71.5748 40.3789 71.5795 40.352 71.59 40.327L71.723 39.884C71.764 39.755 71.866 39.735 71.99 39.784C72.4558 39.9619 72.9485 40.059 73.447 40.0711C74.147 40.0711 74.884 39.755 74.884 38.971M83.772 34.161L81.699 38.0611V40.575C81.699 40.702 81.648 40.753 81.524 40.753H80.924C80.8 40.753 80.749 40.703 80.749 40.565V38.081L78.549 34.1311C78.5296 34.1012 78.5186 34.0666 78.517 34.031C78.517 33.971 78.568 33.931 78.671 33.931H79.245C79.419 33.931 79.523 33.968 79.584 34.096L81.267 37.305H81.277L82.899 34.127C82.9182 34.0602 82.9614 34.0029 83.0202 33.966C83.0791 33.9291 83.1495 33.9152 83.218 33.927H83.648C83.761 33.927 83.812 33.9641 83.812 34.0271C83.8111 34.0731 83.7969 34.1179 83.771 34.156M90.587 35.146C90.0554 34.7887 89.4186 34.6213 88.78 34.671H87.805V40.015H88.687C89.0439 40.0622 89.4067 40.0374 89.754 39.9423C90.1012 39.8471 90.4259 39.6835 90.709 39.461C90.9683 39.1791 91.1681 38.8479 91.2968 38.4871C91.4255 38.1264 91.4803 37.7434 91.458 37.361C91.4887 36.9497 91.4263 36.5366 91.2755 36.1527C91.1248 35.7687 90.8894 35.4236 90.587 35.143M91.417 40.024C90.6867 40.5537 89.7929 40.809 88.893 40.745H87.106C86.912 40.745 86.851 40.686 86.851 40.508V34.203C86.851 34.003 86.922 33.927 87.151 33.927H88.446C89.3512 33.8364 90.2633 34.0075 91.074 34.4201C91.547 34.745 91.926 35.1888 92.1729 35.7069C92.4197 36.225 92.5257 36.799 92.48 37.371C92.504 37.8633 92.4219 38.355 92.2392 38.8128C92.0564 39.2705 91.7774 39.6836 91.421 40.024M101.397 40.538C101.397 40.705 101.346 40.744 101.223 40.744H100.752C100.689 40.7432 100.627 40.7254 100.573 40.6925C100.518 40.6596 100.474 40.6128 100.444 40.557L96.737 35.55H96.718V40.538C96.7216 40.5659 96.7188 40.5943 96.7097 40.6209C96.7006 40.6476 96.6855 40.6718 96.6656 40.6917C96.6457 40.7116 96.6215 40.7266 96.5949 40.7357C96.5682 40.7448 96.5399 40.7476 96.512 40.744H96.04C95.896 40.744 95.834 40.686 95.834 40.538V34.138C95.8294 34.1099 95.8315 34.0811 95.8402 34.0539C95.8489 34.0267 95.8639 34.002 95.884 33.9818C95.9041 33.9616 95.9288 33.9465 95.9559 33.9376C95.983 33.9288 96.0118 33.9265 96.04 33.931H96.45C96.5043 33.9262 96.5589 33.9378 96.6066 33.9641C96.6543 33.9905 96.6931 34.0305 96.718 34.0791L100.495 39.1961H100.514V34.138C100.514 33.98 100.578 33.931 100.714 33.931H101.207C101.36 33.931 101.401 33.989 101.401 34.138V40.538M109.058 40.567C109.058 40.686 109.006 40.745 108.858 40.745H105.275C105.1 40.745 105.058 40.705 105.058 40.536V34.124C105.058 33.986 105.111 33.924 105.258 33.924H108.871C109.025 33.924 109.045 33.992 109.036 34.111L108.995 34.487C108.984 34.626 108.895 34.646 108.717 34.646H106.017V36.813H108.428C108.571 36.813 108.634 36.873 108.634 36.992V37.347C108.634 37.486 108.581 37.526 108.439 37.526H106.017V40.021H108.848C109.003 40.021 109.064 40.07 109.064 40.189V40.565M117.04 34.151L114.966 38.051V40.565C114.966 40.692 114.914 40.7431 114.791 40.7431H114.185C114.064 40.7431 114.011 40.693 114.011 40.555V38.0711L111.811 34.121C111.794 34.0905 111.784 34.0562 111.782 34.021C111.782 33.961 111.833 33.921 111.934 33.921H112.509C112.683 33.921 112.787 33.958 112.848 34.086L114.509 37.3081H114.521L116.142 34.13C116.161 34.0633 116.204 34.006 116.263 33.9691C116.321 33.9321 116.392 33.9182 116.46 33.93H116.892C117.003 33.93 117.056 33.967 117.056 34.03C117.054 34.076 117.04 34.1206 117.015 34.159M92.693 19.122C91.015 19.122 89.693 20.937 89.693 23.722C89.693 26.465 90.448 29.034 92.693 29.034C94.938 29.034 95.711 26.465 95.711 23.722C95.711 20.939 94.37 19.122 92.693 19.122ZM92.693 31.362C88.102 31.362 84.411 28.5341 84.411 24.1521C84.411 19.8131 88.102 16.9621 92.693 16.9621C97.284 16.9621 100.974 19.8131 100.974 24.1521C100.974 28.5341 97.283 31.362 92.693 31.362ZM110.593 19.123C108.916 19.123 107.593 20.938 107.593 23.723C107.593 26.466 108.348 29.035 110.593 29.035C112.838 29.035 113.611 26.466 113.611 23.723C113.611 20.94 112.27 19.123 110.593 19.123ZM110.593 31.3631C106.001 31.3631 102.312 28.535 102.312 24.153C102.312 19.814 106.001 16.963 110.593 16.963C115.185 16.963 118.873 19.814 118.873 24.153C118.873 28.535 115.184 31.3631 110.593 31.3631ZM83.465 28.273C83.3825 28.205 83.2789 28.1679 83.172 28.168H77.217C78.852 24.406 82.562 23.056 83.439 19.834C83.6307 19.1802 83.728 18.5024 83.728 17.8211C83.7289 17.767 83.7192 17.7131 83.6993 17.6628C83.6795 17.6125 83.6499 17.5666 83.6123 17.5277C83.5747 17.4888 83.5298 17.4576 83.4801 17.4361C83.4305 17.4145 83.3771 17.403 83.323 17.4021H72.19C72.0783 17.4045 71.9705 17.4442 71.884 17.515C71.725 17.6822 71.6025 17.8807 71.5243 18.0978C71.4462 18.3149 71.4141 18.5458 71.43 18.776V18.785C71.4177 19.0173 71.4526 19.2497 71.5325 19.4681C71.6124 19.6865 71.7357 19.8865 71.895 20.056C71.9804 20.123 72.0864 20.1583 72.195 20.156H77.972C76.995 23.124 71.182 25.164 71.182 30.511C71.1813 30.5653 71.1915 30.6193 71.2118 30.6696C71.2321 30.72 71.2621 30.7658 71.3003 30.8045C71.3384 30.8432 71.3838 30.8739 71.4339 30.895C71.4839 30.916 71.5377 30.9269 71.592 30.927H83.182C83.2941 30.923 83.4018 30.8818 83.488 30.81C83.6466 30.6426 83.7688 30.4441 83.8468 30.2271C83.9247 30.01 83.9568 29.7791 83.941 29.549C83.9532 29.3168 83.9183 29.0845 83.8383 28.866C83.7584 28.6476 83.6352 28.4476 83.476 28.278M92.976 10.338C92.301 10.338 91.769 11.068 91.769 12.188C91.769 13.288 92.069 14.327 92.976 14.327C93.883 14.327 94.191 13.292 94.191 12.188C94.191 11.068 93.65 10.338 92.976 10.338ZM92.976 15.2641C91.129 15.2641 89.643 14.125 89.643 12.364C89.7563 11.5607 90.1559 10.8254 90.7683 10.2933C91.3807 9.76121 92.1647 9.46822 92.976 9.46822C93.7872 9.46822 94.5712 9.76121 95.1836 10.2933C95.796 10.8254 96.1957 11.5607 96.309 12.364C96.309 14.127 94.824 15.2641 92.976 15.2641ZM76.401 9.68202C76.3701 9.65331 76.3292 9.6379 76.287 9.63905H71.702C71.6576 9.64008 71.6149 9.65628 71.581 9.68501C71.5175 9.75228 71.4685 9.83195 71.4372 9.91902C71.4058 10.0061 71.3929 10.0987 71.399 10.1911C71.394 10.2844 71.408 10.3778 71.4402 10.4657C71.4723 10.5535 71.5219 10.6339 71.586 10.702C71.6183 10.7297 71.6595 10.7447 71.702 10.744H73.009V14.912C73.0095 14.9567 73.0275 14.9994 73.0591 15.031C73.0906 15.0625 73.1333 15.0805 73.178 15.081H74.809C74.8534 15.081 74.896 15.0635 74.9275 15.0322C74.9589 15.0009 74.9768 14.9584 74.977 14.914V10.744H76.284C76.3276 10.7444 76.3698 10.7284 76.402 10.6991C76.4665 10.6323 76.5162 10.5528 76.5479 10.4656C76.5796 10.3784 76.5926 10.2855 76.586 10.193C76.5911 10.0995 76.577 10.006 76.5447 9.91817C76.5124 9.8303 76.4624 9.74992 76.398 9.68202M78.483 13.004L79.206 11.0791L79.796 13.004H78.483ZM82.717 14.852L80.624 9.87502C80.5785 9.80304 80.5155 9.74385 80.4408 9.70308C80.366 9.6623 80.2821 9.64132 80.197 9.64204H78.671C78.586 9.64149 78.5024 9.66256 78.4278 9.70332C78.3533 9.74409 78.2904 9.80319 78.245 9.87502L76.153 14.852C76.1429 14.8718 76.1381 14.8939 76.139 14.916C76.1394 14.9384 76.1442 14.9605 76.1532 14.981C76.1621 15.0015 76.1751 15.0199 76.1913 15.0354C76.2075 15.0508 76.2266 15.0629 76.2475 15.0709C76.2684 15.0789 76.2907 15.0827 76.313 15.082H77.513C77.5467 15.0829 77.5798 15.0738 77.6084 15.056C77.637 15.0383 77.6598 15.0125 77.674 14.982L78.169 13.796H80.084L80.55 14.982C80.5648 15.0123 80.5878 15.0378 80.6165 15.0555C80.6452 15.0732 80.6783 15.0824 80.712 15.082H82.558C82.5803 15.0826 82.6026 15.0787 82.6234 15.0706C82.6442 15.0626 82.6633 15.0505 82.6794 15.0351C82.6956 15.0197 82.7085 15.0012 82.7176 14.9808C82.7266 14.9604 82.7315 14.9384 82.732 14.916C82.7323 14.894 82.7279 14.8722 82.719 14.852H82.717ZM112.882 13.004L113.607 11.0791L114.195 13.004H112.882ZM117.116 14.852L115.023 9.87502C114.978 9.80319 114.915 9.74409 114.84 9.70332C114.766 9.66256 114.682 9.64149 114.597 9.64204H113.071C112.986 9.64166 112.903 9.66281 112.828 9.70357C112.754 9.74433 112.691 9.80333 112.646 9.87502L110.552 14.852C110.544 14.8723 110.539 14.8941 110.539 14.916C110.539 14.9383 110.544 14.9603 110.553 14.9807C110.562 15.0011 110.574 15.0195 110.59 15.035C110.606 15.0504 110.625 15.0625 110.646 15.0706C110.667 15.0787 110.689 15.0826 110.711 15.082H111.911C111.945 15.0826 111.978 15.0735 112.006 15.0557C112.035 15.038 112.058 15.0124 112.072 14.982L112.566 13.796H114.482L114.949 14.982C114.963 15.0125 114.986 15.0383 115.015 15.056C115.043 15.0738 115.076 15.0829 115.11 15.082H116.955C116.977 15.083 116.999 15.0795 117.02 15.0717C117.041 15.0639 117.06 15.052 117.077 15.0367C117.093 15.0214 117.106 15.0031 117.115 14.9827C117.124 14.9623 117.129 14.9403 117.129 14.918C117.13 14.896 117.125 14.874 117.116 14.854V14.852ZM110.109 14.213C110.108 14.2944 110.087 14.3743 110.047 14.4453C110.007 14.5164 109.951 14.5764 109.882 14.62C109.229 15.0388 108.47 15.2623 107.694 15.2641C105.77 15.2641 104.2 14.101 104.2 12.364C104.2 10.608 105.77 9.47005 107.693 9.47005C108.453 9.46614 109.199 9.67388 109.847 10.07C109.927 10.119 110.01 10.193 110.01 10.276C109.993 10.3946 109.936 10.5037 109.847 10.584C109.777 10.6598 109.692 10.7204 109.598 10.7619C109.503 10.8033 109.401 10.8248 109.298 10.825C109.2 10.8259 109.105 10.7958 109.025 10.739C108.679 10.4959 108.268 10.3631 107.846 10.358C106.969 10.358 106.361 10.865 106.361 12.358C106.361 13.851 106.961 14.399 107.938 14.399C108.086 14.4085 108.235 14.3916 108.377 14.349V12.815H107.709C107.675 12.8141 107.643 12.801 107.618 12.778C107.514 12.6525 107.461 12.492 107.471 12.3291C107.459 12.168 107.511 12.0087 107.615 11.885C107.64 11.8606 107.674 11.8464 107.709 11.845H109.945C109.967 11.8449 109.989 11.8491 110.009 11.8574C110.029 11.8656 110.048 11.8779 110.063 11.8933C110.079 11.9087 110.091 11.927 110.1 11.9472C110.108 11.9674 110.113 11.9891 110.113 12.011V14.211M103.245 9.81105C103.245 9.78899 103.241 9.76708 103.233 9.7466C103.225 9.72611 103.213 9.70745 103.197 9.69167C103.182 9.67588 103.163 9.66324 103.143 9.65456C103.123 9.64587 103.101 9.64127 103.079 9.64101H101.749C101.705 9.6418 101.662 9.66009 101.631 9.69191C101.6 9.72373 101.583 9.76657 101.583 9.81105V12.935L99.614 9.98103C99.5511 9.87607 99.4617 9.78941 99.3549 9.72975C99.248 9.67009 99.1273 9.6395 99.005 9.64101H97.448C97.4035 9.64179 97.361 9.66005 97.3297 9.69185C97.2985 9.72365 97.281 9.76648 97.281 9.81105V14.911C97.2808 14.933 97.2851 14.9549 97.2934 14.9752C97.3018 14.9956 97.314 15.0141 97.3296 15.0297C97.3451 15.0454 97.3636 15.0578 97.3839 15.0662C97.4042 15.0747 97.426 15.0791 97.448 15.0791H98.772C98.8167 15.0791 98.8595 15.0613 98.8911 15.0299C98.9228 14.9984 98.9407 14.9557 98.941 14.911V12.149L100.785 14.867C100.829 14.9322 100.889 14.9857 100.959 15.0228C101.028 15.0599 101.106 15.0795 101.185 15.08H103.085C103.129 15.08 103.171 15.0626 103.202 15.0317C103.233 15.0007 103.25 14.9588 103.25 14.9151V9.80501M89.773 14.895C89.773 14.745 89.564 14.768 88.955 13.964C88.5477 13.2866 87.8958 12.7915 87.134 12.581C87.134 12.581 88.734 12.599 88.734 11.107C88.734 10.041 87.734 9.636 86.134 9.636H83.89C83.7631 9.63627 83.6416 9.68689 83.552 9.77669C83.4624 9.86649 83.412 9.98814 83.412 10.115V14.9151C83.412 14.9596 83.4297 15.0023 83.4612 15.0338C83.4927 15.0653 83.5354 15.083 83.58 15.083H85.209C85.231 15.0833 85.2529 15.0792 85.2733 15.071C85.2937 15.0628 85.3123 15.0506 85.328 15.0352C85.3437 15.0197 85.3563 15.0014 85.3648 14.9811C85.3734 14.9608 85.3779 14.939 85.378 14.917V10.471H85.832C85.9443 10.4648 86.0566 10.4818 86.1621 10.521C86.2675 10.5601 86.3638 10.6205 86.4449 10.6985C86.5259 10.7765 86.5901 10.8703 86.6333 10.9741C86.6765 11.078 86.6978 11.1896 86.696 11.302C86.7132 11.5495 86.6349 11.7941 86.4771 11.9855C86.3194 12.177 86.0942 12.3006 85.848 12.331C85.681 12.384 85.648 12.546 85.998 13.141C86.3173 13.6858 86.6901 14.1973 87.111 14.668C87.2139 14.7866 87.3351 14.8879 87.47 14.968C87.9296 15.1865 88.4391 15.2783 88.946 15.234C89.719 15.2 89.769 14.978 89.769 14.899M119.469 29.648H119.369V30.114H119.488C119.521 30.1182 119.555 30.115 119.587 30.1046C119.619 30.0943 119.648 30.0771 119.672 30.0542C119.697 30.0312 119.716 30.0032 119.728 29.9721C119.741 29.9409 119.746 29.9075 119.744 29.874C119.744 29.707 119.633 29.648 119.465 29.648M120.046 30.794H119.871C119.856 30.7956 119.841 30.7928 119.827 30.7858C119.814 30.7789 119.803 30.7682 119.795 30.755L119.517 30.301H119.369V30.746C119.369 30.774 119.357 30.794 119.324 30.794H119.166C119.134 30.794 119.12 30.778 119.12 30.746V29.5141C119.12 29.4721 119.129 29.458 119.172 29.458H119.458C119.538 29.4495 119.62 29.4579 119.697 29.4825C119.774 29.5071 119.844 29.5475 119.905 29.601C119.967 29.6772 120 29.7729 119.998 29.871C120.001 29.953 119.978 30.0337 119.933 30.1024C119.889 30.1711 119.824 30.2243 119.748 30.255L120.065 30.7431C120.071 30.7509 120.074 30.7603 120.075 30.77C120.075 30.786 120.063 30.794 120.046 30.794ZM118.694 30.145C118.69 30.2601 118.709 30.3748 118.751 30.4823C118.792 30.5897 118.855 30.6878 118.935 30.7706C119.015 30.8534 119.11 30.9192 119.216 30.9642C119.322 31.0092 119.436 31.0323 119.551 31.0323C119.667 31.0323 119.781 31.0092 119.887 30.9642C119.993 30.9192 120.088 30.8534 120.168 30.7706C120.249 30.6878 120.311 30.5897 120.352 30.4823C120.394 30.3748 120.413 30.2601 120.409 30.145C120.413 30.0298 120.394 29.915 120.352 29.8074C120.311 29.6998 120.248 29.6016 120.168 29.5188C120.088 29.4359 119.992 29.37 119.886 29.325C119.78 29.2799 119.666 29.2567 119.551 29.2567C119.435 29.2567 119.321 29.2799 119.215 29.325C119.109 29.37 119.013 29.4359 118.933 29.5188C118.853 29.6016 118.79 29.6998 118.749 29.8074C118.707 29.915 118.688 30.0298 118.692 30.145M118.545 30.145C118.548 29.9468 118.61 29.7538 118.722 29.5905C118.835 29.4272 118.993 29.3008 119.177 29.2271C119.361 29.1534 119.563 29.1357 119.757 29.1763C119.951 29.217 120.129 29.314 120.268 29.4553C120.407 29.5966 120.501 29.7759 120.539 29.9706C120.576 30.1653 120.555 30.3667 120.479 30.5496C120.402 30.7325 120.273 30.8887 120.108 30.9986C119.943 31.1084 119.749 31.167 119.551 31.167C119.418 31.1661 119.286 31.1389 119.163 31.0871C119.041 31.0352 118.929 30.9596 118.836 30.8647C118.743 30.7698 118.669 30.6573 118.619 30.5338C118.569 30.4103 118.544 30.2782 118.545 30.145ZM71.255 42.9931C70.631 42.6671 68.345 42.024 66.41 41.02C64.177 39.6453 62.0642 38.0844 60.094 36.354C58.048 34.661 56.394 35.629 56.336 35.664C55.8498 35.8906 55.4402 36.2542 55.1576 36.7102C54.875 37.1662 54.7316 37.6947 54.745 38.231C54.7507 39.1253 54.9353 40.0093 55.288 40.831C55.369 41.021 55.363 41.064 55.299 41.081C54.421 41.281 54.131 41.501 54.099 42.442C54.079 45.657 61.814 49.493 65.467 49.853C66.3243 49.981 67.1994 49.9135 68.0269 49.6557C68.8545 49.3978 69.6131 48.9563 70.246 48.364C73.189 45.683 72.474 43.635 71.253 42.996M52.926 39.959C52.626 40.527 51.637 40.59 50.726 40.101C49.815 39.612 49.326 38.757 49.626 38.187C49.926 37.617 50.918 37.5561 51.826 38.0451C52.734 38.5341 53.226 39.392 52.926 39.959ZM49.609 43.025C50.335 42.959 50.389 43.579 49.955 43.869C46.3976 46.4634 42.1059 47.8564 37.703 47.846C32.3526 47.8161 27.2162 45.7416 23.3456 42.0475C19.4751 38.3534 17.1634 33.3192 16.884 27.976C16.8844 27.9012 16.9051 27.828 16.9438 27.764C16.9825 27.7 17.0378 27.6477 17.1038 27.6126C17.1699 27.5776 17.2442 27.561 17.3189 27.5648C17.3936 27.5685 17.4658 27.5925 17.528 27.634C19.8055 29.1035 22.4006 30.0089 25.098 30.275C25.411 30.3 25.85 30.275 26.022 30.745C26.222 31.245 26.822 32.876 30.773 35.458C30.973 35.595 31.036 35.658 30.999 35.787C30.999 35.787 30.824 36.5171 29.68 36.3371C27.739 36.0431 26.723 34.291 26.187 34.099C26.0215 34.0316 25.8394 34.0163 25.665 34.055C24.7614 34.1903 23.9462 34.673 23.3932 35.4003C22.8401 36.1276 22.5928 37.0421 22.704 37.9491C22.874 39.416 24.204 42.241 28.695 43.391C30.3838 43.7182 32.1213 43.7009 33.8033 43.34C35.4853 42.9792 37.077 42.2822 38.483 41.291C38.821 41.05 39.3 40.691 40.642 41.341C43.3144 42.5491 46.2264 43.1339 49.158 43.051L49.616 43.025M25.194 11.5C26.415 11.6 28.223 11.6521 30.034 11.7821C33.514 12.0109 36.9492 12.6923 40.253 13.809C42.7636 14.6722 45.1086 15.9573 47.187 17.609C47.439 17.795 47.525 17.819 47.598 17.762C47.688 17.693 47.698 17.496 47.59 17.142C47.2366 16.348 46.6713 15.6668 45.956 15.173C45.382 14.712 45.465 14.553 45.797 14.267C46.4224 13.7533 47.2131 13.4843 48.022 13.51C49.799 13.51 54.291 14.652 54.291 19.749C54.3414 20.6132 54.2646 21.4802 54.063 22.322C53.932 22.782 53.935 22.9071 54.088 23.1001C55.2104 24.3952 56.1165 25.8631 56.771 27.447C56.864 27.675 57.025 27.611 57.133 27.465C57.9844 25.9194 58.1996 24.1028 57.733 22.401C55.878 13.301 47.019 6.51802 37.713 6.51802C33.3804 6.62769 29.1693 7.97246 25.575 10.3941C25.406 10.5191 25.242 10.646 25.086 10.774C24.71 11.086 24.349 11.42 25.198 11.496M33.29 13.577C32.2113 13.417 31.1277 13.2974 30.039 13.218C28.308 13.093 25.358 12.948 25.358 12.948C16.574 12.384 11.158 4.67305 9.75803 3.19405C6.22103 -0.848954 3.58201 0.257051 2.20901 1.08705C1.56613 1.49872 1.06897 2.10213 0.787932 2.8119C0.506894 3.52168 0.456173 4.30183 0.642974 5.04201C1.36597 9.51801 4.87399 12.271 7.76199 13.817C9.82772 14.9004 12.0318 15.6964 14.313 16.1831C17.372 16.7731 17.54 18.434 17.543 18.445C17.6101 19.3358 17.9771 20.1776 18.584 20.833C18.791 21.088 18.684 21.192 18.339 21.07C16.9577 20.5976 15.77 19.684 14.959 18.47C14.719 18.076 14.579 18.129 14.359 18.182C13.9776 18.2505 13.617 18.4056 13.305 18.6353C12.9929 18.865 12.7377 19.1632 12.559 19.507C12.3868 19.9914 12.3298 20.5091 12.3927 21.0193C12.4555 21.5295 12.6364 22.018 12.921 22.4461C16.282 27.5361 24.821 28.381 31.386 28.195C35.9424 28.0352 40.4769 27.4893 44.941 26.563C45.18 26.517 45.25 26.663 45.051 26.834C44.42 27.365 41.225 28.511 38.111 29.45L37.92 29.505L38.103 29.575C47.503 33.264 53.786 29.797 53.855 29.763C54.193 29.603 54.661 29.335 54.414 28.83C52.316 24.826 49.3161 21.3643 45.6513 18.7179C41.9864 16.0716 37.7568 14.313 33.296 13.581" fill="white"/>
</g>
<defs>
<clipPath id="clip0_3_2456">
<rect width="119.995" height="49.592" fill="white" transform="translate(0.563599 0.296997)"/>
</clipPath>
</defs>
</svg>
