<svg width="150" height="45" viewBox="0 0 150 45" fill="none" xmlns="http://www.w3.org/2000/svg">
<g clip-path="url(#clip0_3_2459)">
<path d="M1.11139 0.457212C1.09339 0.511212 0.791382 1.78422 0.791382 1.94922C0.791382 2.11422 0.885393 2.17517 0.965393 2.17517C1.02084 2.17145 1.07359 2.15003 1.11591 2.11401C1.15822 2.078 1.18784 2.02935 1.20038 1.97522L1.4234 1.57019C1.6174 1.28119 1.91038 1.1942 2.73938 1.1792L4.6604 1.1532V6.85321C4.6604 8.13721 4.6604 9.24822 4.5954 9.81622C4.5374 10.2252 4.47338 10.4412 4.27838 10.4822L3.88837 10.5352C3.86185 10.532 3.83496 10.5343 3.80945 10.5422C3.78393 10.5501 3.76039 10.5634 3.74036 10.5811C3.72032 10.5987 3.70426 10.6204 3.69324 10.6448C3.68221 10.6691 3.67648 10.6955 3.67639 10.7222C3.67639 10.9352 3.91939 10.9352 3.99939 10.9352L5.12238 10.9022L5.3454 10.8942L5.50439 10.8992L7.03137 10.9352C7.32537 10.9352 7.35638 10.7862 7.35638 10.7222C7.356 10.6955 7.35 10.6691 7.33881 10.6449C7.32762 10.6206 7.31145 10.599 7.29138 10.5814C7.27131 10.5638 7.24779 10.5506 7.22229 10.5426C7.19679 10.5346 7.1699 10.5321 7.14337 10.5352L6.5434 10.4822C6.2164 10.4362 6.14339 10.2252 6.09839 9.81921C6.02839 9.24821 6.02838 8.13918 6.02838 6.85418V1.15417L7.65039 1.18121C8.97139 1.20921 9.19335 1.53217 9.23535 1.84717L9.24939 1.99322C9.25839 2.12422 9.27638 2.32123 9.46338 2.32123C9.49638 2.32123 9.66339 2.30818 9.66339 2.03918L9.67639 1.60119L9.70441 0.531186C9.70441 0.449186 9.7044 0.259214 9.5304 0.259214L9.36835 0.285215C8.97367 0.36657 8.57132 0.404439 8.1684 0.398191H3.02136L1.95038 0.331174L1.50739 0.216184L1.33435 0.16522C1.21135 0.15722 1.15739 0.309212 1.11139 0.457212Z" fill="white"/>
<path d="M19.5831 0.382141L19.3611 0.390137L19.1841 0.383118L17.8091 0.349121C17.7291 0.349121 17.4841 0.349148 17.4841 0.564148C17.4857 0.590612 17.4926 0.616482 17.5043 0.640259C17.5161 0.664036 17.5324 0.685235 17.5524 0.702637C17.5724 0.720038 17.5957 0.733312 17.6209 0.741638C17.6461 0.749965 17.6727 0.753199 17.6991 0.75116L18.144 0.787109C18.516 0.869109 18.6261 1.01714 18.6531 1.47614L18.6791 4.43317V4.72211L12.8791 4.69714L12.9011 4.43317L12.9291 1.47614C12.9551 1.01014 13.0581 0.843147 13.3541 0.788147L13.6771 0.75116C13.7035 0.753199 13.7301 0.749965 13.7552 0.741638C13.7804 0.733312 13.8037 0.720038 13.8237 0.702637C13.8437 0.685235 13.8601 0.664036 13.8718 0.640259C13.8836 0.616482 13.8904 0.590612 13.8921 0.564148C13.8921 0.421148 13.7841 0.349121 13.5671 0.349121L12.4481 0.382141L12.222 0.390137L12.0411 0.383118L10.6691 0.349121C10.4541 0.349121 10.3461 0.421148 10.3461 0.564148C10.3477 0.590432 10.3545 0.616132 10.3661 0.639771C10.3778 0.663409 10.394 0.684529 10.4138 0.701904C10.4335 0.719279 10.4566 0.732575 10.4815 0.741028C10.5064 0.74948 10.5328 0.752923 10.5591 0.75116L11.0011 0.787109C11.3761 0.869109 11.4861 1.01714 11.5091 1.47614L11.5391 4.43414V6.85114C11.5391 8.13614 11.539 9.24512 11.472 9.81512C11.414 10.2231 11.35 10.4401 11.157 10.4811L10.7661 10.5331C10.7394 10.5298 10.7123 10.532 10.6865 10.5399C10.6608 10.5477 10.637 10.5608 10.6167 10.5785C10.5964 10.5961 10.5801 10.6179 10.5688 10.6423C10.5575 10.6667 10.5514 10.6933 10.5511 10.7202C10.5511 10.9342 10.7961 10.9341 10.8761 10.9341L11.993 10.9011L12.2181 10.8931L12.3791 10.8991L13.907 10.9341C14.197 10.9341 14.2281 10.7842 14.2281 10.7202C14.228 10.6935 14.2223 10.6672 14.2113 10.6429C14.2003 10.6187 14.1843 10.5971 14.1644 10.5794C14.1445 10.5618 14.1211 10.5485 14.0957 10.5405C14.0703 10.5326 14.0435 10.53 14.0171 10.5331L13.4111 10.4811C13.0881 10.4351 13.0111 10.2231 12.9661 9.81812C12.8961 9.24712 12.8961 8.13815 12.8961 6.85315V5.41516L18.696 5.43811L18.6711 6.85712C18.6711 8.14212 18.6711 9.25113 18.6021 9.82013C18.5491 10.2201 18.4841 10.4451 18.2891 10.4861L17.9001 10.5391C17.8733 10.5358 17.8461 10.538 17.8203 10.5458C17.7944 10.5536 17.7705 10.5668 17.75 10.5844C17.7295 10.602 17.7131 10.6238 17.7015 10.6482C17.69 10.6726 17.6837 10.6991 17.683 10.7261C17.683 10.9391 17.9281 10.9391 18.0081 10.9391L19.1321 10.9061L19.3531 10.8981H19.5091L21.0401 10.9341C21.3401 10.9341 21.3671 10.7851 21.3671 10.7211C21.3664 10.6943 21.3602 10.668 21.3488 10.6437C21.3373 10.6195 21.321 10.5979 21.3008 10.5803C21.2806 10.5627 21.2569 10.5494 21.2313 10.5415C21.2057 10.5336 21.1787 10.5311 21.1521 10.5341L20.5521 10.4811C20.2251 10.4351 20.1451 10.2242 20.1041 9.81915C20.0381 9.24915 20.0381 8.13813 20.0381 6.85413V4.43713L20.0641 1.48016C20.0941 1.00916 20.1921 0.848114 20.4881 0.792114L20.8091 0.755127C20.8357 0.757446 20.8625 0.754415 20.8879 0.746216C20.9133 0.738017 20.9368 0.724826 20.957 0.707397C20.9773 0.689969 20.9938 0.668693 21.0056 0.644775C21.0175 0.620858 21.0244 0.594763 21.0261 0.568115C21.0261 0.353115 20.781 0.353149 20.701 0.353149L19.5831 0.382141Z" fill="white"/>
<path d="M28.3495 0.285217L28.2835 0.311218L27.7145 0.378174L24.5775 0.390198L24.3915 0.383179L23.0266 0.349182C22.9466 0.349182 22.7015 0.349209 22.7015 0.564209C22.7032 0.590493 22.71 0.616193 22.7216 0.639832C22.7332 0.66347 22.7494 0.68459 22.7692 0.701965C22.789 0.71934 22.812 0.732636 22.8369 0.741089C22.8619 0.749541 22.8883 0.752984 22.9146 0.751221L23.3565 0.78717C23.7325 0.86917 23.8405 1.0172 23.8665 1.4762L23.8945 4.43323V6.85022C23.8945 8.13422 23.8945 9.24417 23.8275 9.81317C23.7695 10.2232 23.7055 10.4382 23.5105 10.4792L23.1195 10.5322C23.093 10.529 23.0662 10.5313 23.0407 10.5392C23.0152 10.5472 22.9918 10.5604 22.9718 10.5781C22.9518 10.5957 22.9359 10.6175 22.925 10.6418C22.9141 10.6662 22.9084 10.6925 22.9085 10.7192C22.9085 10.9322 23.1495 10.9322 23.2295 10.9322L24.3455 10.8992L24.5755 10.8912L25.0975 10.9092L27.9655 10.9732C28.5065 10.9732 28.6885 10.9732 28.8055 10.5412C28.8899 10.092 28.9513 9.63873 28.9895 9.18323C28.9895 9.08323 28.9895 8.87317 28.7985 8.87317C28.6245 8.87317 28.5985 9.06322 28.5775 9.16522C28.4855 9.69522 28.3345 9.9412 28.0195 10.0752C27.6051 10.1916 27.1743 10.2389 26.7445 10.2152C25.4155 10.2152 25.2925 10.0482 25.2575 9.18921V5.6402C25.2575 5.6472 27.2005 5.71619 27.2005 5.71619C27.6665 5.76319 27.7765 5.94621 27.8225 6.11621L27.8735 6.54321C27.8708 6.57135 27.8738 6.59976 27.8826 6.62665C27.8913 6.65353 27.9055 6.67827 27.9243 6.6994C27.9431 6.72053 27.9661 6.73756 27.9918 6.74939C28.0174 6.76122 28.0453 6.76763 28.0735 6.76819C28.2735 6.76819 28.2735 6.52323 28.2735 6.40723L28.3275 5.53717L28.4355 4.75818C28.4355 4.55818 28.3045 4.54523 28.2645 4.54523L27.9875 4.74518C27.8875 4.86218 27.7215 4.88718 27.4035 4.91418L25.2315 4.94122L25.2535 1.12122C25.4185 1.09022 26.8765 1.1012 27.0965 1.1272C27.8485 1.2092 27.9205 1.37422 27.9895 1.52722L28.0635 1.98022C28.0635 2.23422 28.2145 2.26019 28.2785 2.26019C28.3425 2.26019 28.4375 2.21918 28.4785 2.02618C28.4785 2.02118 28.5305 1.32617 28.5305 1.32617L28.5455 1.1062L28.6276 0.638184L28.6586 0.4552C28.6586 0.2412 28.5356 0.22522 28.4976 0.22522L28.3495 0.285217Z" fill="white"/>
<path d="M43.9967 0.380127L43.7637 0.390137L43.5717 0.383118L42.3066 0.349121C42.2276 0.349121 41.9846 0.349148 41.9846 0.564148C41.9863 0.590432 41.9932 0.616132 42.0048 0.639771C42.0164 0.663409 42.0325 0.684529 42.0522 0.701904C42.072 0.719279 42.0952 0.732575 42.1201 0.741028C42.1451 0.74948 42.1714 0.752923 42.1976 0.75116L42.6406 0.787109C43.0406 0.874109 43.1236 1.04414 43.1516 1.47614L43.1776 4.43317V6.14911C43.3049 7.30487 43.0329 8.46945 42.4066 9.44916C42.1486 9.74591 41.8303 9.98412 41.4728 10.1479C41.1153 10.3118 40.7269 10.3974 40.3336 10.3991C39.9677 10.4282 39.5998 10.3785 39.2548 10.2533C38.9097 10.128 38.5956 9.93023 38.3336 9.67316C37.8416 9.20316 37.3386 8.44211 37.3386 6.36011V4.44012L37.3646 1.48315C37.3926 1.00615 37.4956 0.838143 37.7826 0.796143L38.1096 0.758118C38.1361 0.760297 38.1628 0.757164 38.1881 0.748901C38.2134 0.740638 38.2368 0.727437 38.257 0.710022C38.2771 0.692607 38.2935 0.671369 38.3053 0.647522C38.3171 0.623675 38.324 0.597723 38.3257 0.571167C38.3257 0.356167 38.0827 0.35614 38.0027 0.35614L36.9817 0.386108L36.6406 0.397156L36.3567 0.387146L35.0626 0.35614C34.9816 0.35614 34.7386 0.356167 34.7386 0.571167C34.7403 0.597631 34.7472 0.623501 34.7589 0.647278C34.7706 0.671055 34.787 0.692255 34.807 0.709656C34.827 0.727057 34.8503 0.74027 34.8755 0.748596C34.9007 0.756923 34.9272 0.760157 34.9536 0.758118L35.3966 0.794128C35.7716 0.876128 35.8797 1.02415 35.9037 1.48315L35.9316 4.44214V6.44214C35.9316 8.66014 36.5867 9.57915 37.1597 10.1292C37.9699 10.8088 39.0028 11.165 40.0597 11.1292C41.1244 11.1669 42.1628 10.7934 42.9596 10.0861C44.1096 9.06312 44.2596 7.31413 44.2596 5.90613V4.43616L44.2856 1.48016C44.3116 1.00916 44.4106 0.848114 44.7086 0.792114C44.7136 0.792114 45.0326 0.75415 45.0326 0.75415C45.059 0.756766 45.0858 0.75392 45.1111 0.745789C45.1364 0.737657 45.1597 0.724382 45.1797 0.706848C45.1997 0.689314 45.2158 0.667896 45.2272 0.64386C45.2385 0.619824 45.2448 0.593702 45.2456 0.567139C45.2456 0.352139 45.0026 0.352112 44.9226 0.352112L43.9967 0.380127Z" fill="white"/>
<path d="M47.6783 0.946289L47.6654 8.81024C47.6654 10.0392 47.5964 10.3773 47.3284 10.4553L46.7954 10.5303C46.7688 10.5269 46.7417 10.5292 46.7161 10.537C46.6904 10.5448 46.6668 10.558 46.6466 10.5757C46.6265 10.5934 46.6103 10.6152 46.5992 10.6396C46.5882 10.664 46.5825 10.6905 46.5824 10.7173C46.5824 10.9303 46.8084 10.9302 46.9054 10.9302L47.9984 10.8992L48.2234 10.8893L48.4233 10.8983L49.6753 10.9302C49.7753 10.9302 50.0264 10.9303 50.0264 10.7173C50.0263 10.6903 50.0205 10.6636 50.0093 10.639C49.9981 10.6145 49.9818 10.5925 49.9614 10.5748C49.9411 10.5571 49.9171 10.544 49.8912 10.5363C49.8654 10.5286 49.8381 10.5266 49.8114 10.5303L49.1533 10.4532C48.8763 10.3692 48.7264 10.1153 48.6974 8.95825C48.6974 8.95825 48.5413 3.18224 48.5283 2.66724L51.9193 6.39728C53.4093 7.99728 55.3623 9.99023 55.5063 10.1232C56.2893 10.9012 56.4253 11.0233 56.5793 11.0233C56.7913 11.0233 56.8074 10.8582 56.8074 9.94324L56.8324 1.90527C56.8324 1.04827 56.9044 0.859288 57.2594 0.782288L57.5674 0.746277C57.7434 0.746277 57.8234 0.646265 57.8234 0.546265C57.8234 0.346265 57.5854 0.346252 57.4724 0.346252L56.5514 0.375244L56.3053 0.387268L56.0123 0.377258L54.8783 0.346252C54.7453 0.346252 54.4994 0.346265 54.4994 0.546265C54.4977 0.574292 54.5022 0.60234 54.5126 0.628418C54.523 0.654496 54.539 0.677957 54.5596 0.697083C54.5801 0.716208 54.6047 0.730509 54.6315 0.739014C54.6582 0.747518 54.6865 0.750025 54.7144 0.746277L55.3634 0.812256C55.6924 0.897256 55.8033 1.08227 55.8153 2.01227C55.8153 2.01227 55.9334 7.42628 55.9624 8.71228C55.6974 8.42328 54.9393 7.60126 54.9393 7.60126L52.8553 5.33228L48.3723 0.49823C48.1783 0.28423 48.0523 0.155273 47.9343 0.155273C47.6963 0.157273 47.6783 0.470289 47.6783 0.946289Z" fill="white"/>
<path d="M61.739 0.382141L61.517 0.390137L61.306 0.382141L60.131 0.349121C60.052 0.349121 59.807 0.349148 59.807 0.564148C59.8104 0.617048 59.8345 0.666475 59.8743 0.701538C59.914 0.736602 59.9661 0.754446 60.019 0.75116L60.4191 0.80011C60.6301 0.85111 60.775 0.984135 60.806 1.47614L60.832 4.43317V6.85016C60.832 8.13416 60.8321 9.24411 60.7631 9.81311C60.7041 10.2311 60.644 10.4381 60.448 10.4791L60.058 10.5322C60.0313 10.5289 60.0043 10.5313 59.9786 10.5392C59.953 10.5471 59.9292 10.5603 59.9089 10.5779C59.8887 10.5955 59.8723 10.6172 59.861 10.6415C59.8496 10.6659 59.8435 10.6923 59.843 10.7191C59.843 10.9321 60.087 10.9321 60.168 10.9321L61.29 10.8991L61.5131 10.8911L61.6691 10.8961L63.2 10.9321C63.494 10.9321 63.525 10.7831 63.525 10.7191C63.5246 10.6925 63.5187 10.6663 63.5076 10.6421C63.4964 10.6179 63.4803 10.5963 63.4603 10.5787C63.4404 10.5611 63.417 10.5479 63.3916 10.5399C63.3662 10.5318 63.3394 10.5292 63.313 10.5322L62.713 10.4791C62.386 10.4351 62.3061 10.2222 62.2631 9.81616C62.1931 9.24716 62.193 8.13614 62.193 6.85114V4.43414L62.222 1.47815C62.249 1.01215 62.352 0.844147 62.644 0.788147L62.967 0.75116C62.9936 0.753479 63.0204 0.750447 63.0458 0.742249C63.0712 0.73405 63.0948 0.720797 63.115 0.703369C63.1352 0.685941 63.1517 0.664665 63.1636 0.640747C63.1754 0.616829 63.1823 0.590795 63.184 0.564148C63.184 0.349148 62.9381 0.349121 62.8571 0.349121L61.739 0.382141Z" fill="white"/>
<path d="M74.0118 0.380127L73.8118 0.390137L73.4929 0.378113L72.4678 0.349121C72.3268 0.349121 72.0628 0.349148 72.0628 0.564148C72.0628 0.634148 72.0948 0.75116 72.3168 0.75116L72.8038 0.798157C72.8394 0.821516 72.8684 0.853861 72.8875 0.891968C72.9066 0.930074 72.9153 0.97257 72.9128 1.01514L72.7928 1.50214C72.5158 2.41114 70.8158 6.85815 69.9618 8.87115L67.4188 2.09015C67.2592 1.73726 67.1372 1.36853 67.0547 0.990112C67.0514 0.950705 67.0614 0.911315 67.0832 0.878296C67.105 0.845277 67.1372 0.820608 67.1747 0.808167L67.6518 0.750122C67.8698 0.750122 67.8928 0.60911 67.8928 0.55011C67.8928 0.35011 67.5928 0.350159 67.4178 0.350159L66.4178 0.37915L66.1388 0.391113L65.8008 0.381165L64.5337 0.350159C64.3397 0.350159 64.0728 0.35011 64.0728 0.55011C64.0716 0.577999 64.0765 0.605827 64.0871 0.631653C64.0977 0.657479 64.1138 0.680694 64.1342 0.699707C64.1546 0.71872 64.179 0.733118 64.2055 0.741821C64.232 0.750524 64.26 0.75333 64.2878 0.750122L64.7798 0.799133C65.2098 0.924133 65.4018 1.04213 65.6988 1.79913L69.0919 10.2991C69.3459 10.9411 69.4238 11.1351 69.6528 11.1351C69.8218 11.1351 69.8827 10.9981 70.0857 10.5441L70.3209 10.0291L72.0208 6.05511L72.8328 4.09412L73.6327 2.14612C73.9927 1.24112 74.1888 1.01411 74.3488 0.904114C74.5316 0.801224 74.7392 0.750711 74.9488 0.758118C75.1828 0.758118 75.2178 0.632167 75.2178 0.558167C75.2178 0.425167 75.1038 0.358154 74.8798 0.358154L74.0118 0.380127Z" fill="white"/>
<path d="M81.5057 0.286194L81.4448 0.311218L80.8718 0.378174L77.7347 0.390198L77.5537 0.383179L76.1858 0.349182C76.1058 0.349182 75.8597 0.349209 75.8597 0.564209C75.8614 0.590765 75.8683 0.616717 75.8801 0.640564C75.8919 0.664411 75.9084 0.685649 75.9285 0.703064C75.9486 0.720479 75.972 0.733741 75.9973 0.742004C76.0226 0.750267 76.0493 0.7534 76.0758 0.751221L76.5188 0.78717C76.8918 0.86917 77.0018 1.0172 77.0258 1.4762L77.0558 4.4342V6.8512C77.0558 8.1362 77.0558 9.24519 76.9868 9.81519C76.9288 10.2252 76.8648 10.4402 76.6718 10.4812L76.2798 10.5332C76.2532 10.5303 76.2263 10.5329 76.2008 10.5409C76.1753 10.5489 76.1518 10.5621 76.1317 10.5797C76.1116 10.5973 76.0953 10.6188 76.084 10.643C76.0726 10.6672 76.0665 10.6935 76.0658 10.7202C76.0658 10.9342 76.3107 10.9342 76.3907 10.9342L77.5098 10.9012L77.7347 10.8932L78.2578 10.9112L81.1248 10.9732C81.6678 10.9732 81.8518 10.9732 81.9668 10.5412C82.0338 10.2492 82.1467 9.30823 82.1467 9.18323C82.1467 9.08323 82.1467 8.87317 81.9597 8.87317C81.7887 8.87317 81.7598 9.04721 81.7338 9.16321C81.6428 9.69521 81.4938 9.9412 81.1808 10.0752C80.7663 10.1913 80.3356 10.2386 79.9058 10.2152C78.5768 10.2152 78.4538 10.0482 78.4188 9.18921V5.6402C78.4188 5.6472 80.3638 5.71619 80.3638 5.71619C80.8838 5.76819 80.9528 5.99822 80.9868 6.12122L81.0358 6.5462C81.0322 6.57449 81.0348 6.6032 81.0432 6.63043C81.0517 6.65766 81.0658 6.68279 81.0847 6.7041C81.1037 6.72541 81.1269 6.74239 81.153 6.75397C81.179 6.76554 81.2072 6.7714 81.2357 6.77118C81.4357 6.77118 81.4358 6.52622 81.4358 6.41022L81.4928 5.54022L81.6007 4.76117C81.6007 4.56117 81.4678 4.54822 81.4268 4.54822L81.1748 4.7262C81.0478 4.8662 80.8877 4.89121 80.5677 4.91821L78.3988 4.94519L78.4198 1.12518C78.3988 1.09418 80.2657 1.13123 80.2657 1.13123C81.0117 1.21323 81.0857 1.37817 81.1567 1.53717L81.2288 1.99017C81.2288 2.24417 81.3797 2.2702 81.4437 2.2702C81.5077 2.2702 81.6048 2.23923 81.6438 2.03223L81.6978 1.3822L81.7158 1.12018L81.8258 0.467224C81.8258 0.260224 81.7157 0.237183 81.6667 0.237183L81.5057 0.286194Z" fill="white"/>
<path d="M86.5054 5.70311C86.4906 5.69604 86.4783 5.68476 86.47 5.6707C86.4616 5.65665 86.4576 5.64047 86.4584 5.62413V1.13811C86.4561 1.12388 86.4592 1.10932 86.4669 1.09716C86.4747 1.085 86.4865 1.07611 86.5004 1.07213C86.7911 1.01493 87.0872 0.989093 87.3834 0.995106C88.8064 0.995106 89.6523 1.98313 89.6523 3.63714C89.6883 4.01313 89.6354 4.39231 89.4978 4.74407C89.3602 5.09583 89.1419 5.41028 88.8604 5.6621C88.5699 5.84148 88.2311 5.92643 87.8904 5.90514C87.4201 5.92583 86.9501 5.85726 86.5054 5.70311ZM86.2924 0.377125L85.8324 0.390126L85.6523 0.383107L84.2823 0.34911C84.2013 0.34911 83.9594 0.349137 83.9594 0.564137C83.961 0.590602 83.9679 0.616471 83.9796 0.640248C83.9914 0.664025 84.0077 0.685225 84.0277 0.702626C84.0477 0.720027 84.071 0.733301 84.0962 0.741627C84.1214 0.749954 84.1479 0.753188 84.1743 0.751149L84.6134 0.787098C84.9894 0.869098 85.0974 1.01712 85.1244 1.47612L85.1514 4.43316V6.85015C85.1514 8.13415 85.1514 9.2441 85.0814 9.8131C85.0274 10.2131 84.9634 10.4381 84.7664 10.4791L84.3754 10.5322C84.3488 10.5288 84.3218 10.531 84.2961 10.5389C84.2705 10.5467 84.2468 10.5599 84.2267 10.5776C84.2065 10.5953 84.1904 10.617 84.1793 10.6414C84.1682 10.6658 84.1624 10.6923 84.1624 10.7191C84.1624 10.9321 84.4074 10.9321 84.4874 10.9321L85.7214 10.8942C85.7754 10.8942 85.9393 10.8942 85.9393 10.8942L87.4634 10.9282C87.7634 10.9282 87.7924 10.7791 87.7924 10.7151C87.7916 10.688 87.7851 10.6613 87.7734 10.6368C87.7617 10.6123 87.7451 10.5906 87.7245 10.573C87.7038 10.5554 87.6797 10.5423 87.6537 10.5345C87.6277 10.5268 87.6003 10.5246 87.5734 10.5281L86.9734 10.4751C86.6464 10.4291 86.5673 10.2181 86.5283 9.81212C86.4583 9.24112 86.4584 8.1321 86.4584 6.8471V6.51714C86.4514 6.51714 88.1384 6.53911 88.1384 6.53911L88.2463 6.59514L88.7194 7.24315L89.7284 8.61315L89.9133 8.85613C90.3526 9.56483 90.9309 10.1771 91.6134 10.6561C92.0848 10.8835 92.6093 10.978 93.1304 10.9291H94.1053C94.2773 10.9291 94.5404 10.9291 94.5404 10.7151C94.5339 10.6602 94.5062 10.61 94.4633 10.5751C94.4203 10.5402 94.3655 10.5233 94.3104 10.5281L93.7924 10.4891C93.159 10.3706 92.5878 10.0324 92.1793 9.53411C91.4603 8.76811 90.6224 7.69014 89.6504 6.43914C89.6504 6.43914 89.4624 6.19513 89.3844 6.09813C89.8661 5.71526 90.2605 5.23399 90.5413 4.68645C90.822 4.13892 90.9826 3.53774 91.0123 2.92315C91.0041 2.54401 90.9108 2.17158 90.7393 1.83336C90.5677 1.49515 90.3224 1.19976 90.0214 0.969105C89.25 0.499109 88.3512 0.281649 87.4503 0.347096L86.2924 0.377125Z" fill="white"/>
<path d="M95.1554 2.73116C95.1554 3.66816 95.4664 4.54618 96.9774 5.79018L97.5944 6.29714C98.8054 7.29714 99.1364 7.80817 99.1364 8.68917C99.1353 8.92644 99.0856 9.16093 98.9901 9.37814C98.8946 9.59534 98.7553 9.79061 98.5812 9.95174C98.407 10.1129 98.2016 10.2364 97.9777 10.3148C97.7537 10.3931 97.516 10.4246 97.2794 10.4072C96.8535 10.4537 96.4248 10.3467 96.0707 10.1054C95.7165 9.8642 95.4601 9.50456 95.3474 9.09115L95.3114 8.60519C95.3114 8.52819 95.3113 8.35116 95.1113 8.35116C94.9293 8.35116 94.9114 8.55117 94.8954 8.66317L94.8854 8.79714L94.8264 10.1301C94.8264 10.4992 94.8373 10.6201 95.0903 10.7451C95.6813 11.0169 96.3272 11.1483 96.9774 11.1292C97.7322 11.1524 98.4758 10.9429 99.1074 10.5291C99.4803 10.2575 99.7842 9.90204 99.9945 9.49142C100.205 9.08079 100.316 8.62654 100.318 8.16518C100.318 7.09018 99.9834 6.20518 98.2744 4.85818L97.8914 4.55819C96.5774 3.48219 96.2573 3.04517 96.2573 2.33517C96.2518 2.13031 96.2896 1.92656 96.3683 1.73733C96.447 1.5481 96.5648 1.37765 96.714 1.23714C96.8632 1.09664 97.0404 0.989293 97.234 0.922081C97.4276 0.85487 97.6332 0.829295 97.8374 0.84713C98.9734 0.84713 99.3524 1.31914 99.4624 1.52114C99.5479 1.72765 99.6041 1.94508 99.6294 2.16714C99.6404 2.26714 99.6624 2.44015 99.8414 2.44015C100.041 2.44015 100.041 2.16615 100.041 2.01815L100.087 0.668175L100.092 0.568139C100.092 0.368139 99.9124 0.368187 99.8544 0.368187L99.3954 0.302147C98.9693 0.20346 98.5327 0.156809 98.0953 0.16317C96.3403 0.15717 95.1554 1.19216 95.1554 2.73116Z" fill="white"/>
<path d="M104.366 0.382141L104.138 0.390137L103.928 0.382141L102.755 0.349121C102.539 0.349121 102.43 0.421148 102.43 0.564148C102.432 0.590612 102.439 0.616482 102.45 0.640259C102.462 0.664036 102.478 0.685235 102.498 0.702637C102.518 0.720038 102.542 0.733312 102.567 0.741638C102.592 0.749965 102.619 0.753199 102.645 0.75116L103.045 0.80011C103.232 0.84411 103.406 0.956135 103.436 1.47614L103.462 4.43317V6.85016C103.462 8.13416 103.462 9.24411 103.395 9.81311C103.337 10.2221 103.273 10.4381 103.078 10.4791L102.688 10.5322C102.662 10.5291 102.635 10.5316 102.609 10.5396C102.583 10.5475 102.56 10.5607 102.54 10.5783C102.52 10.5959 102.503 10.6175 102.492 10.6418C102.481 10.666 102.475 10.6924 102.474 10.7191C102.474 10.9321 102.717 10.9321 102.796 10.9321L103.921 10.8991L104.141 10.8911L104.304 10.8981L105.833 10.9321C106.123 10.9321 106.153 10.7831 106.153 10.7191C106.153 10.6923 106.147 10.6658 106.136 10.6414C106.125 10.617 106.109 10.5953 106.089 10.5776C106.069 10.5599 106.045 10.5467 106.019 10.5389C105.994 10.531 105.967 10.5288 105.94 10.5322L105.34 10.4791C105.014 10.4331 104.94 10.2222 104.894 9.81616C104.823 9.24516 104.823 8.13614 104.823 6.85114V4.43414L104.853 1.47815C104.877 1.01215 104.981 0.844147 105.276 0.788147L105.598 0.75116C105.625 0.753199 105.651 0.749965 105.676 0.741638C105.701 0.733312 105.725 0.720038 105.745 0.702637C105.765 0.685235 105.781 0.664036 105.793 0.640259C105.805 0.616482 105.811 0.590612 105.813 0.564148C105.813 0.349148 105.567 0.349121 105.486 0.349121L104.366 0.382141Z" fill="white"/>
<path d="M107.43 0.486959C107.424 0.510959 107.12 1.78697 107.12 1.94997C107.12 2.11297 107.213 2.17696 107.292 2.17696C107.429 2.17696 107.493 2.06795 107.529 1.97695L107.754 1.56997C107.944 1.28097 108.239 1.193 109.065 1.178L110.99 1.152V6.85195C110.99 8.13595 110.99 9.24596 110.923 9.81496C110.87 10.215 110.804 10.44 110.609 10.481L110.217 10.534C110.19 10.5306 110.163 10.5328 110.137 10.5407C110.111 10.5485 110.088 10.5617 110.068 10.5794C110.047 10.597 110.031 10.6188 110.02 10.6432C110.009 10.6676 110.003 10.6941 110.003 10.721C110.003 10.934 110.246 10.934 110.326 10.934L111.445 10.901L111.672 10.893L111.833 10.9L113.357 10.934C113.641 10.934 113.683 10.801 113.683 10.721C113.683 10.6942 113.677 10.6679 113.666 10.6436C113.654 10.6194 113.638 10.5977 113.618 10.5801C113.598 10.5625 113.574 10.5493 113.549 10.5413C113.523 10.5334 113.496 10.5309 113.469 10.534L112.87 10.481C112.547 10.437 112.469 10.224 112.423 9.81795C112.354 9.24895 112.354 8.13799 112.354 6.85299V1.15297L113.978 1.17995C115.3 1.20795 115.522 1.53197 115.566 1.84597L115.578 1.99196C115.586 2.12196 115.601 2.31997 115.794 2.31997C115.827 2.31997 115.994 2.30698 115.994 2.03798L116.005 1.59798L116.031 0.527975C116.031 0.445975 116.032 0.256002 115.859 0.256002L115.697 0.280966C115.304 0.362029 114.903 0.399958 114.501 0.394003H109.357L108.28 0.325949L107.837 0.211996L107.667 0.160971C107.546 0.156971 107.491 0.299959 107.43 0.486959Z" fill="white"/>
<path d="M125.277 0.378418L124.916 0.390442L124.696 0.378418L124.01 0.349426C123.728 0.349426 123.685 0.465424 123.685 0.534424C123.685 0.677424 123.82 0.721418 123.951 0.766418C124.01 0.782418 124.112 0.808458 124.112 1.05646C124.1 1.28807 124.024 1.51179 123.892 1.70245C123.659 2.09145 122.12 4.74042 121.692 5.57642C121.237 4.81342 119.469 1.77642 119.267 1.40442C119.174 1.25838 119.117 1.09261 119.101 0.920471C119.101 0.859471 119.142 0.807465 119.223 0.764465L119.293 0.738464C119.382 0.702464 119.485 0.662438 119.485 0.549438C119.485 0.416438 119.392 0.349426 119.205 0.349426L118.236 0.382446L118.049 0.390442L117.728 0.38147L116.694 0.349426C116.422 0.349426 116.409 0.515438 116.409 0.549438C116.411 0.578763 116.418 0.607387 116.432 0.633545C116.445 0.659703 116.464 0.682877 116.487 0.701599C116.509 0.720322 116.535 0.7342 116.564 0.742432C116.592 0.750663 116.621 0.753053 116.651 0.749451C116.842 0.773221 117.025 0.841753 117.185 0.949463C117.54 1.22321 117.844 1.55686 118.085 1.93542C118.579 2.66542 120.409 5.67146 120.492 5.87146C120.714 6.3034 120.821 6.78585 120.801 7.27142V8.45245L120.758 9.81445C120.74 10.0865 120.666 10.4245 120.417 10.4755L120.026 10.5284C119.999 10.5251 119.972 10.5273 119.946 10.5352C119.92 10.543 119.897 10.5561 119.876 10.5738C119.856 10.5914 119.84 10.6132 119.828 10.6376C119.817 10.662 119.811 10.6886 119.811 10.7155C119.811 10.9285 120.054 10.9285 120.135 10.9285L121.258 10.8954L121.478 10.8875L121.641 10.8945L123.165 10.9285C123.459 10.9285 123.49 10.7795 123.49 10.7155C123.489 10.6886 123.483 10.6621 123.472 10.6378C123.46 10.6135 123.444 10.5918 123.424 10.5742C123.403 10.5565 123.38 10.5434 123.354 10.5355C123.328 10.5276 123.301 10.5252 123.275 10.5284L122.675 10.4755C122.375 10.4325 122.233 10.2415 122.201 9.81647L122.161 8.45447V7.27246C122.132 6.81996 122.2 6.36655 122.361 5.94244C123.145 4.44681 124.015 2.9977 124.967 1.60242C125.152 1.33268 125.39 1.10312 125.667 0.927429C125.839 0.818308 126.037 0.756547 126.241 0.748413C126.451 0.748413 126.525 0.632471 126.525 0.532471C126.525 0.432471 126.451 0.346436 126.241 0.346436L125.277 0.378418Z" fill="white"/>
<path d="M132.664 5.24216C132.664 2.52116 134.157 0.831147 136.563 0.831147C138.522 0.831147 140.633 2.38317 140.633 5.79117C140.633 10.1712 137.564 10.3911 136.949 10.3911C134.426 10.3941 132.664 8.27416 132.664 5.24216ZM131.148 5.62418C131.111 6.35016 131.226 7.07574 131.485 7.75485C131.745 8.43397 132.142 9.05178 132.653 9.569C133.164 10.0862 133.776 10.4916 134.452 10.7593C135.128 11.027 135.852 11.1513 136.578 11.1242C137.328 11.1406 138.072 11.0028 138.766 10.7193C139.46 10.4358 140.088 10.0127 140.611 9.47629C141.134 8.93984 141.541 8.30151 141.807 7.60098C142.073 6.90045 142.193 6.15268 142.157 5.40415C142.157 2.26315 139.949 0.155183 136.657 0.155183C135.933 0.140367 135.213 0.271359 134.541 0.540437C133.868 0.809514 133.257 1.21114 132.743 1.72141C132.229 2.23167 131.823 2.84018 131.549 3.51065C131.274 4.18113 131.138 4.8999 131.148 5.62418Z" fill="white"/>
<path d="M149.288 0.289978L149.212 0.325928L148.794 0.367981L148.633 0.376953L145.263 0.387939L145.082 0.381958L143.712 0.346924C143.632 0.346924 143.387 0.346951 143.387 0.561951C143.389 0.588598 143.396 0.614632 143.408 0.63855C143.419 0.662467 143.436 0.683805 143.456 0.701233C143.476 0.718661 143.5 0.731852 143.525 0.740051C143.551 0.74825 143.578 0.751282 143.604 0.748962L144.044 0.784973C144.419 0.865973 144.529 1.01494 144.554 1.47394L144.583 4.43298V6.84998C144.583 8.13398 144.583 9.24393 144.514 9.81293C144.457 10.2229 144.391 10.4379 144.199 10.4789L143.809 10.532C143.782 10.5286 143.755 10.5309 143.73 10.5387C143.704 10.5465 143.68 10.5597 143.66 10.5773C143.639 10.595 143.623 10.6167 143.612 10.6411C143.601 10.6655 143.594 10.692 143.594 10.7189C143.594 10.9319 143.838 10.9319 143.919 10.9319L145.038 10.8989L145.263 10.8909L145.427 10.8979L146.949 10.9319C147.243 10.9319 147.274 10.7829 147.274 10.7189C147.274 10.6919 147.268 10.6654 147.256 10.6409C147.245 10.6164 147.229 10.5946 147.208 10.5769C147.188 10.5592 147.164 10.5461 147.138 10.5383C147.112 10.5306 147.085 10.5284 147.058 10.532L146.458 10.4789C146.131 10.4329 146.051 10.222 146.013 9.81598C145.943 9.24498 145.943 8.13595 145.943 6.85095V5.68298C146.453 5.66298 147.69 5.66798 147.994 5.70398C148.128 5.71128 148.258 5.75508 148.369 5.83069C148.48 5.9063 148.568 6.0108 148.624 6.13293L148.689 6.52295L148.697 6.60498C148.695 6.63248 148.699 6.66007 148.708 6.6861C148.717 6.71212 148.731 6.73597 148.75 6.75616C148.769 6.77636 148.792 6.79243 148.817 6.80341C148.842 6.81438 148.87 6.82002 148.897 6.81995C149.097 6.81995 149.097 6.58198 149.097 6.45398L149.153 5.54694L149.263 4.76697C149.263 4.56697 149.132 4.55396 149.092 4.55396C148.992 4.55396 148.933 4.63297 148.881 4.70197C148.766 4.86397 148.641 4.90997 148.303 4.93597L147.693 4.95093L145.935 4.96393L145.944 1.15796C145.96 1.10996 148.072 1.15094 148.072 1.15094C148.233 1.13838 148.395 1.16651 148.543 1.23273C148.691 1.29894 148.819 1.40115 148.917 1.52997L149.028 2.00897C149.028 2.26397 149.196 2.27698 149.228 2.27698C149.301 2.27698 149.397 2.23693 149.44 2.04193C149.44 2.03693 149.494 1.36096 149.494 1.36096L149.509 1.12292L149.589 0.655945L149.619 0.471924C149.619 0.336924 149.542 0.241943 149.432 0.241943L149.288 0.289978Z" fill="white"/>
<path d="M148.853 18.8835H2.48279V19.7185H148.853V18.8835Z" fill="white"/>
<path d="M17.2303 27.6801C17.2303 27.6801 11.9894 38.6851 11.5134 39.6801L5.7774 27.8281C5.5114 27.2951 5.37235 27.1422 5.15735 27.1422C5.01735 27.1422 4.83236 27.2421 4.74536 27.7361L2.64539 41.5521C2.53039 42.3311 2.35141 43.0682 1.81641 43.1812L1.19141 43.2451C1.09141 43.2451 0.799377 43.2451 0.799377 43.4451C0.799377 43.7321 1.11437 43.7321 1.23438 43.7321L2.53436 43.6942L3.32837 43.6691L4.00739 43.6912L5.55341 43.7321C5.82441 43.7321 6.11438 43.7111 6.11438 43.4451C6.11438 43.3181 5.97936 43.2451 5.74536 43.2451L4.86536 43.1401C4.46536 43.0471 4.27136 42.8401 4.27136 42.5131L4.33435 41.5241C4.33435 41.5241 5.29736 34.1442 5.42236 33.1942C5.59636 33.4792 6.45038 35.2941 6.45038 35.2941L7.62439 37.8041C7.87539 38.3881 9.52438 41.5812 10.0624 42.6182L10.1244 42.7351C10.4464 43.3351 10.6394 43.7061 10.8494 43.7061C11.0784 43.7061 11.1914 43.4941 11.6804 42.4921L16.2994 32.8721C16.2994 32.9571 17.5554 42.1791 17.5554 42.1791C17.5789 42.3317 17.5916 42.4858 17.5934 42.6401C17.5934 42.8971 17.5424 43.0141 17.4854 43.0331C17.3444 43.0941 17.2164 43.1702 17.2164 43.3162C17.2164 43.5082 17.4394 43.5621 17.8774 43.6011C18.7124 43.6631 21.6334 43.7291 22.1833 43.7291C22.5714 43.7291 22.7834 43.6291 22.7834 43.4421C22.7834 43.2551 22.5194 43.2421 22.3914 43.2421C21.9496 43.2421 21.5107 43.1713 21.0914 43.0322C20.4674 42.8452 20.2724 42.2071 20.0914 40.9321L18.1614 27.8391C18.0944 27.3661 17.9534 27.1392 17.7284 27.1392C17.5034 27.1392 17.3993 27.3451 17.2303 27.6801Z" fill="white"/>
<path d="M33.8114 27.4882L33.6864 27.5242L32.7804 27.6502C32.4214 27.6702 28.9594 27.6722 27.4894 27.6722L26.4044 27.6392L26.1564 27.6292L24.4384 27.6082C24.1874 27.6082 23.9203 27.6262 23.9203 27.8502C23.9203 28.0932 24.1994 28.0932 24.3324 28.0932L25.1464 28.1542C25.8384 28.3022 25.9774 28.6462 26.0174 29.3162C26.0574 29.9862 26.0594 30.5742 26.0594 33.8052V37.5352C26.0594 39.4762 26.0594 41.1542 25.9594 42.0402C25.8594 42.7262 25.7494 43.0872 25.3854 43.1612L24.6324 43.2452C24.4654 43.2452 24.2424 43.2682 24.2424 43.4662C24.2424 43.6402 24.4024 43.7302 24.7174 43.7302L26.1814 43.6882L27.3894 43.6662L29.5894 43.7302L30.2043 43.7452L33.2563 43.7942C34.0713 43.7942 34.2933 43.7942 34.4503 43.2052C34.6007 42.4244 34.6937 41.6336 34.7284 40.8392C34.7284 40.6262 34.7283 40.4062 34.5063 40.4062C34.3063 40.4062 34.2604 40.5572 34.2224 40.7672C34.0714 41.6412 33.8223 42.0572 33.2983 42.2962C32.663 42.5016 31.9949 42.5864 31.3284 42.5462C29.1284 42.5462 28.8784 42.1962 28.8374 40.8162V38.4072V37.5352V35.8612C28.8374 35.7002 28.8753 35.7002 28.9133 35.7002C29.3883 35.7002 31.5133 35.7212 31.9133 35.7642C32.5843 35.8362 32.9374 36.0792 33.0554 36.5502L33.1234 37.1082L33.1394 37.3082C33.136 37.3408 33.1399 37.3736 33.151 37.4044C33.1621 37.4352 33.18 37.4631 33.2034 37.486C33.2267 37.5089 33.255 37.5261 33.286 37.5366C33.317 37.547 33.3499 37.5503 33.3823 37.5462C33.6253 37.5462 33.6254 37.2612 33.6254 37.0922L33.6644 36.4242L33.7103 35.6742L33.8534 34.3532L33.8794 34.1252C33.8794 33.9842 33.8053 33.9042 33.6793 33.9042C33.5533 33.9042 33.4653 34.0042 33.3293 34.1632C33.0496 34.4027 32.6867 34.5224 32.3193 34.4962C32.0053 34.5242 30.8024 34.5392 28.9324 34.5392C28.8664 34.5392 28.8374 34.5222 28.8374 34.3572V28.9962C28.8374 28.8372 28.8884 28.8372 28.9324 28.8372C29.3424 28.8372 31.5694 28.8782 31.9324 28.9212C32.9954 29.0492 33.1744 29.3052 33.3104 29.6512C33.3927 29.8902 33.4342 30.1414 33.4333 30.3942C33.4333 30.4942 33.4334 30.7442 33.6764 30.7442C33.8834 30.7442 33.9244 30.5442 33.9404 30.4682L34.0173 29.4972L34.0474 29.0632L34.1864 27.8922L34.2164 27.6822C34.2164 27.6232 34.2164 27.4392 34.0354 27.4392L33.8114 27.4882Z" fill="white"/>
<path d="M41.983 27.6472L40.8609 27.6732L39.7859 27.6472L37.9579 27.6092C37.7069 27.6092 37.44 27.6272 37.44 27.8522C37.44 28.0952 37.719 28.0952 37.852 28.0952L38.539 28.1562C39.232 28.3032 39.371 28.6482 39.41 29.3172C39.449 29.9862 39.4529 30.5762 39.4529 33.8072V37.5362C39.4529 39.4772 39.453 41.1562 39.353 42.0422C39.258 42.7282 39.1429 43.0892 38.7809 43.1622L38.0269 43.2462C37.8599 43.2462 37.6369 43.2692 37.6369 43.4682C37.6369 43.7322 37.995 43.7322 38.113 43.7322L39.5749 43.6892L40.7819 43.6682L44.0899 43.7502L46.947 43.7962C48.061 43.7962 48.1949 43.6882 48.3329 43.1842C48.4998 42.3766 48.6064 41.5576 48.6519 40.7342C48.6519 40.5342 48.652 40.3222 48.43 40.3222C48.186 40.3222 48.159 40.5592 48.145 40.6872C48.0787 41.1411 47.8926 41.5691 47.6059 41.9272C47.1059 42.4652 46.3529 42.5032 45.1669 42.5032C43.4719 42.5032 42.967 42.3442 42.638 42.0502C42.211 41.6822 42.211 40.2092 42.211 37.5332V33.8032C42.211 30.5732 42.211 29.9902 42.254 29.3142C42.298 28.5412 42.4849 28.2492 42.9959 28.1542L43.8129 28.0922C44.0379 28.0922 44.248 28.0622 44.248 27.8492C44.248 27.6362 44.008 27.6062 43.748 27.6062L41.983 27.6472Z" fill="white"/>
<path d="M55.0565 27.6351L53.5305 27.6721L52.7155 27.6501L50.6495 27.6081C50.3985 27.6081 50.1314 27.6261 50.1314 27.8501C50.1314 28.0931 50.4104 28.0931 50.5424 28.0931L51.3565 28.1541C52.0495 28.3021 52.1905 28.6461 52.2285 29.3161C52.2665 29.9861 52.2704 30.5741 52.2704 33.8051V37.5351C52.2704 39.4761 52.2705 41.1541 52.1705 42.0401C52.0915 42.6061 51.9945 43.0801 51.5975 43.1611L50.8444 43.2451C50.6774 43.2451 50.4544 43.2681 50.4544 43.4661C50.4544 43.7301 50.8105 43.7301 50.9295 43.7301L52.3914 43.688L53.5994 43.6661L55.1865 43.7301L56.0114 43.7661L56.6714 43.7931C60.6154 43.7931 62.3814 41.4461 62.3814 39.1211C62.3814 36.7211 60.4285 35.1851 58.5695 34.5211C59.1957 34.1243 59.7157 33.581 60.0845 32.938C60.4534 32.295 60.66 31.5718 60.6865 30.8311C60.6865 30.0731 60.3575 27.6021 56.1215 27.6021L55.0565 27.6351ZM55.7564 28.5811C57.6484 28.5811 58.3565 30.564 58.3565 31.813C58.3895 32.2207 58.3303 32.6306 58.1833 33.0123C58.0363 33.394 57.8054 33.7378 57.5075 34.0181C57.0762 34.3288 56.5447 34.4682 56.0164 34.4091L55.0314 34.3461C54.9674 34.3321 54.9234 34.3101 54.9234 34.1641V28.9301C54.9234 28.7041 54.9625 28.6531 55.0765 28.6201L55.7564 28.5811ZM55.6285 42.4861C54.9805 42.2241 54.9195 41.8991 54.9195 40.5011V35.4791C54.9195 35.3901 54.9514 35.3791 54.9954 35.3791L55.9045 35.4011C56.5186 35.3856 57.1224 35.5602 57.6335 35.9011C58.2817 36.3833 58.8046 37.0141 59.1584 37.7404C59.5122 38.4668 59.6864 39.2674 59.6664 40.0751C59.7019 40.4205 59.6625 40.7695 59.5508 41.0983C59.4392 41.427 59.258 41.7279 59.0196 41.9803C58.7812 42.2328 58.4912 42.4309 58.1694 42.5611C57.8475 42.6913 57.5013 42.7507 57.1545 42.735C56.6337 42.7594 56.1136 42.6746 55.6275 42.4861H55.6285Z" fill="white"/>
<path d="M64.5181 35.6711C64.5181 39.6971 67.206 44.0291 73.11 44.0291C74.2776 44.0892 75.4448 43.9048 76.537 43.4879C77.6293 43.071 78.6225 42.4307 79.4531 41.6079C80.2836 40.7852 80.9333 39.7981 81.3605 38.7098C81.7878 37.6216 81.983 36.4562 81.934 35.2881C81.934 30.3671 78.6341 27.3121 73.3211 27.3121C67.2731 27.3151 64.5181 31.6441 64.5181 35.6711ZM67.5471 35.0131C67.5471 29.2881 70.781 28.4332 72.709 28.4332C76.334 28.4332 78.8651 31.5732 78.8651 36.0712C78.8651 42.2012 75.4651 42.8641 74.0001 42.8641C70.2001 42.8641 67.5471 39.6361 67.5471 35.0151V35.0131Z" fill="white"/>
<path d="M98.1935 27.6539L97.5816 27.6729C97.5226 27.6729 95.1456 27.6089 95.1456 27.6089C94.9056 27.6089 94.6456 27.6269 94.6456 27.8519C94.6456 28.0949 94.9226 28.0949 95.0576 28.0949L95.8076 28.1559C96.4996 28.3029 96.6395 28.6479 96.6785 29.3169C96.7175 29.9859 96.7216 30.5759 96.7216 33.8069V36.4549C96.7216 38.7239 96.6326 40.5469 95.5076 41.6729C94.7275 42.4084 93.6927 42.813 92.6205 42.8019C91.6736 42.8444 90.7437 42.5396 90.0056 41.9449C89.1576 41.2509 88.3716 40.1449 88.3716 36.7729V33.8069C88.3716 30.5759 88.3716 29.9929 88.4136 29.3169C88.4586 28.5439 88.6455 28.2519 89.1575 28.1569L89.7576 28.0949C89.8746 28.0949 90.1486 28.0949 90.1486 27.8519C90.1486 27.6269 89.8805 27.6089 89.6315 27.6089L88.0826 27.6449L87.0246 27.6719L85.8926 27.6449L83.9316 27.6079C83.6806 27.6079 83.4146 27.6259 83.4146 27.8499C83.4146 28.0929 83.6916 28.0929 83.8266 28.0929L84.6406 28.1539C85.3326 28.3019 85.4735 28.6459 85.5115 29.3159C85.5495 29.9859 85.5526 30.5739 85.5526 33.8049V36.8979C85.5526 39.5839 86.1526 41.3809 87.4526 42.5519C88.7941 43.6154 90.4835 44.1412 92.1916 44.0269C93.8138 44.0952 95.4014 43.5451 96.6336 42.4879C98.4186 40.9589 98.6646 38.4989 98.6646 36.0709V33.8049C98.6646 30.5739 98.6646 29.9919 98.7076 29.3159C98.7516 28.5429 98.9386 28.2509 99.4476 28.1559L100.048 28.0929C100.273 28.0929 100.481 28.0639 100.481 27.8499C100.481 27.6359 100.225 27.6079 99.9855 27.6079L98.1935 27.6539Z" fill="white"/>
<path d="M107.361 27.6388L105.806 27.6717L104.958 27.6498L102.903 27.6078C102.654 27.6078 102.385 27.6258 102.385 27.8498C102.385 28.0928 102.664 28.0928 102.797 28.0928L103.611 28.1537C104.303 28.3017 104.442 28.6458 104.482 29.3158C104.522 29.9858 104.525 30.5737 104.525 33.8047V37.5337C104.525 39.4757 104.525 41.1538 104.425 42.0398C104.347 42.6058 104.251 43.0798 103.852 43.1608L103.099 43.2447C102.931 43.2447 102.707 43.2667 102.707 43.4657C102.707 43.7297 103.064 43.7298 103.184 43.7298L104.91 43.6908L105.77 43.6678L106.454 43.6838L108.884 43.7317C109.002 43.7317 109.36 43.7318 109.36 43.4678C109.36 43.3998 109.331 43.2458 109.06 43.2458L108.028 43.1608C107.462 43.0848 107.316 42.7097 107.247 42.0417C107.142 41.1537 107.142 39.4667 107.142 37.5127V37.2128C107.142 37.1248 107.171 37.0967 107.258 37.0967L109.101 37.1388C109.165 37.1315 109.229 37.1395 109.289 37.1621C109.348 37.1847 109.402 37.2213 109.444 37.2688L110.458 38.6687L111.539 40.1897C112.28 41.4286 113.275 42.4956 114.46 43.3198C115.173 43.6602 115.965 43.8015 116.752 43.7287H118.764C118.913 43.7287 119.22 43.7288 119.22 43.4648C119.22 43.3968 119.19 43.2428 118.913 43.2428L118.329 43.1788C117.411 42.9772 116.586 42.4754 115.984 41.7527C114.906 40.6187 113.684 39.0737 112.131 37.1197L111.419 36.2198C113.364 34.6318 114.199 33.2078 114.199 31.4678C114.198 30.8972 114.065 30.3346 113.811 29.8235C113.557 29.3125 113.189 28.8667 112.735 28.5207C111.548 27.8265 110.179 27.506 108.807 27.6008L107.361 27.6388ZM107.283 35.8118C107.168 35.7608 107.127 35.7047 107.127 35.4787V29.0378C107.127 28.8808 107.161 28.8247 107.279 28.7917C107.645 28.7185 108.017 28.6906 108.389 28.7087C109.573 28.7087 111.578 29.5138 111.578 32.5348C111.642 33.1179 111.564 33.7079 111.35 34.2541C111.136 34.8004 110.793 35.2865 110.349 35.6708C109.92 35.9685 109.394 36.0932 108.876 36.0198C108.338 36.0303 107.801 35.9612 107.283 35.8147V35.8118Z" fill="white"/>
<path d="M121.745 28.0215L121.555 40.5635C121.533 42.3905 121.446 42.9845 120.934 43.1435C120.627 43.216 120.312 43.2497 119.996 43.2435C119.889 43.2435 119.604 43.2435 119.604 43.4655C119.604 43.7295 119.904 43.7295 120.122 43.7295L122.055 43.6785L122.411 43.6655L123 43.6835L125.038 43.7295C125.212 43.7295 125.578 43.7295 125.578 43.4655C125.578 43.2435 125.289 43.2435 125.166 43.2435C124.799 43.2557 124.432 43.2063 124.081 43.0975C123.624 42.9365 123.412 42.2495 123.374 40.7975C123.374 40.7975 123.148 32.1865 123.144 31.9975C123.263 32.0975 123.574 32.4395 123.574 32.4395C124.465 33.4185 126.319 35.4555 128.159 37.2795L130.971 40.0935L134.411 43.5055C134.654 43.7485 134.911 43.9855 135.168 43.9855C135.457 43.9855 135.494 43.6275 135.494 43.2765L135.729 29.9065C135.75 28.7225 135.924 28.3115 136.474 28.1545L137.096 28.0935C137.384 28.0935 137.53 28.0115 137.53 27.8505C137.53 27.6085 137.206 27.6085 136.991 27.6085L135.301 27.6555L134.915 27.6735L134.168 27.6525L132.352 27.6095C132.098 27.6095 131.752 27.6095 131.752 27.8525C131.752 28.0675 131.962 28.0955 132.144 28.0955C132.515 28.0768 132.886 28.1183 133.244 28.2185C133.692 28.4055 133.908 28.7325 133.93 30.0775C133.93 30.0775 134.13 38.9775 134.141 39.5385H134.09C134.09 39.5175 132.604 37.9735 132.604 37.9735L129.465 34.7225C126.242 31.5225 122.931 27.9555 122.898 27.9225L122.698 27.7075C122.449 27.4315 122.283 27.2495 122.075 27.2495C121.779 27.2485 121.745 27.6905 121.745 28.0215Z" fill="white"/>
<path d="M148.339 27.4892L148.215 27.5262L147.31 27.6522C146.95 27.6722 143.49 27.6732 142.018 27.6732L140.935 27.6402L140.684 27.6312L138.966 27.6092C138.717 27.6092 138.448 27.6272 138.448 27.8522C138.448 28.0952 138.725 28.0952 138.86 28.0952L139.673 28.1562C140.366 28.3032 140.505 28.6482 140.545 29.3172C140.585 29.9862 140.589 30.5762 140.589 33.8072V37.5362C140.589 39.4772 140.589 41.1562 140.489 42.0422C140.412 42.6062 140.315 43.0822 139.916 43.1632L139.163 43.2462C138.996 43.2462 138.771 43.2692 138.771 43.4682C138.771 43.7322 139.13 43.7322 139.248 43.7322L140.71 43.6892L141.92 43.6682L144.12 43.7322L144.735 43.7472L147.789 43.7962C148.589 43.7962 148.826 43.7962 148.983 43.2072C149.133 42.4264 149.226 41.6356 149.261 40.8412C149.261 40.6272 149.261 40.4082 149.039 40.4082C148.839 40.4082 148.793 40.5592 148.755 40.7692C148.606 41.6412 148.355 42.0572 147.832 42.2982C147.196 42.5026 146.528 42.587 145.861 42.5472C143.661 42.5472 143.413 42.1982 143.372 40.8182V38.4092V37.5362V35.8632C143.372 35.7022 143.408 35.7022 143.446 35.7022C143.922 35.7022 146.041 35.7232 146.446 35.7662C147.117 35.8382 147.47 36.0812 147.586 36.5522L147.655 37.1162L147.67 37.3082C147.667 37.3407 147.671 37.3735 147.682 37.4042C147.693 37.4349 147.711 37.4627 147.734 37.4855C147.758 37.5084 147.786 37.5257 147.817 37.5362C147.848 37.5467 147.88 37.5501 147.913 37.5462C148.156 37.5462 148.156 37.2612 148.156 37.0922L148.195 36.4062L148.241 35.6752L148.384 34.3562L148.41 34.1252C148.41 33.9842 148.336 33.9032 148.21 33.9032C148.084 33.9032 147.997 34.0032 147.86 34.1642C147.579 34.4019 147.217 34.521 146.85 34.4962C146.538 34.5242 145.335 34.5382 143.465 34.5382C143.397 34.5382 143.365 34.5222 143.365 34.3562V28.9962C143.365 28.8372 143.418 28.8372 143.465 28.8372C143.873 28.8372 146.101 28.8782 146.465 28.9202C147.53 29.0482 147.707 29.3042 147.842 29.6502C147.925 29.8895 147.967 30.141 147.967 30.3942C147.967 30.4942 147.967 30.7432 148.21 30.7432C148.418 30.7432 148.459 30.5352 148.472 30.4682L148.549 29.4982L148.579 29.0632L148.72 27.8902L148.749 27.6812C148.749 27.5212 148.689 27.4392 148.569 27.4392L148.339 27.4892Z" fill="white"/>
</g>
<defs>
<clipPath id="clip0_3_2459">
<rect width="148.832" height="43.872" fill="white" transform="translate(0.787476 0.156982)"/>
</clipPath>
</defs>
</svg>
