<svg width="64" height="69" viewBox="0 0 64 69" fill="none" xmlns="http://www.w3.org/2000/svg">
<g clip-path="url(#clip0_3_2453)">
<path d="M17.2507 52.7081L7.06869 40.7511H2.75564V59.4671H6.95565V47.5361L17.1087 59.4671H21.4497V40.7511H17.2497L17.2507 52.7081ZM57.5897 40.7531L54.8026 52.735L51.8757 40.7531H47.8507L44.8757 52.5991L42.1757 40.7531H37.7757L42.6436 59.4641H46.9727L49.8286 47.6261L52.7287 59.4641H56.9807L57.0236 59.3041L61.9237 40.7531H57.5897ZM2.30868 65.2061V65.1901C2.30264 64.7958 2.37566 64.4044 2.52346 64.0389C2.67127 63.6734 2.89085 63.3412 3.16921 63.062C3.44758 62.7828 3.77913 62.5622 4.14419 62.4133C4.50925 62.2644 4.90041 62.1902 5.29464 62.1951C6.11144 62.1562 6.91109 62.4383 7.52267 62.9811L6.87667 63.7511C6.6604 63.5461 6.40579 63.3857 6.12747 63.2791C5.84915 63.1726 5.55257 63.1219 5.25466 63.1301C4.99698 63.1404 4.74388 63.2014 4.50985 63.3098C4.27583 63.4181 4.06547 63.5715 3.89089 63.7614C3.71632 63.9512 3.58094 64.1736 3.49252 64.4158C3.4041 64.6581 3.36443 64.9155 3.3757 65.1731V65.1901C3.35704 65.4581 3.39436 65.7271 3.48538 65.9799C3.57639 66.2327 3.71903 66.4638 3.90426 66.6584C4.08949 66.8531 4.31325 67.007 4.56124 67.1104C4.80923 67.2138 5.07606 67.2645 5.34469 67.2591C5.84631 67.2653 6.33676 67.1111 6.74465 66.8191V65.7361H5.2637V64.8491H7.73068V67.2821C7.05903 67.8623 6.20122 68.1817 5.31368 68.1821C4.91675 68.1996 4.52046 68.1347 4.14987 67.9915C3.77928 67.8482 3.44244 67.6296 3.16055 67.3496C2.87866 67.0696 2.65787 66.7342 2.51211 66.3646C2.36635 65.9949 2.29879 65.5991 2.31368 65.2021M8.34866 65.2021V65.1861C8.34493 64.7882 8.42125 64.3936 8.57308 64.0258C8.72492 63.6579 8.94918 63.3245 9.23251 63.045C9.51583 62.7656 9.85242 62.5461 10.2223 62.3994C10.5922 62.2527 10.9878 62.1818 11.3856 62.1911C11.7816 62.1801 12.1757 62.2493 12.5443 62.3946C12.9128 62.5398 13.2482 62.7581 13.5302 63.0363C13.8122 63.3145 14.035 63.6469 14.1853 64.0134C14.3356 64.3799 14.4102 64.773 14.4047 65.1691V65.1861C14.4068 65.9892 14.0898 66.7602 13.5235 67.3295C12.9571 67.8989 12.1877 68.2199 11.3847 68.222C10.5816 68.2242 9.81054 67.9072 9.24117 67.3409C8.67181 66.7745 8.35078 66.0052 8.34866 65.2021ZM13.3386 65.2021V65.1861C13.3487 64.9204 13.3053 64.6553 13.2109 64.4067C13.1165 64.1581 12.9732 63.9309 12.7893 63.7388C12.6055 63.5466 12.3849 63.3933 12.1407 63.2881C11.8965 63.1828 11.6336 63.1278 11.3676 63.1261C11.1037 63.1264 10.8425 63.18 10.5999 63.284C10.3572 63.3879 10.1381 63.54 9.95584 63.7309C9.77353 63.9218 9.63175 64.1477 9.53909 64.3948C9.44643 64.642 9.40477 64.9054 9.41665 65.1691V65.1861C9.40646 65.4517 9.44978 65.7167 9.54397 65.9652C9.63816 66.2138 9.78133 66.4408 9.96499 66.633C10.1487 66.8251 10.3691 66.9784 10.6131 67.0837C10.8572 67.1891 11.1198 67.2443 11.3856 67.2461C11.6498 67.2458 11.9112 67.1921 12.154 67.0881C12.3968 66.9841 12.6161 66.832 12.7985 66.6411C12.981 66.4501 13.123 66.2241 13.2158 65.9768C13.3086 65.7295 13.3504 65.466 13.3386 65.2021ZM14.3327 62.2891H15.4577L17.2036 66.7421L18.9417 62.2891H20.0417L17.6337 68.1241H16.7396L14.3327 62.2891ZM20.7277 62.2891H25.0277V63.2001H21.7517V64.7151H24.6517V65.6261H21.7517V67.1811H25.0706V68.0901H20.7327L20.7277 62.2891ZM26.0526 62.2891H28.6337C29.2454 62.2556 29.8457 62.4635 30.3057 62.8681C30.4637 63.0348 30.5874 63.231 30.6696 63.4454C30.7518 63.6599 30.7909 63.8885 30.7847 64.1181V64.1351C30.797 64.5431 30.6653 64.9425 30.4129 65.2634C30.1604 65.5842 29.8032 65.806 29.4037 65.8901L30.9677 68.0811H29.7677L28.3447 66.063H27.0706V68.0811H26.0526V62.2891ZM28.5597 65.1611C29.2877 65.1611 29.7517 64.7801 29.7517 64.1921V64.1761C29.7517 63.5561 29.3047 63.2161 28.5517 63.2161H27.0717V65.1611H28.5597ZM31.6837 62.2891H32.6247L35.7247 66.2891V62.2891H36.7247V68.0811H35.8707L32.6767 63.9601V68.0811H31.6767L31.6837 62.2891ZM37.7637 62.2891H38.8477L40.6096 65.0291L42.3726 62.2891H43.4567V68.0811H42.4397V63.9281L40.6096 66.6591H40.5777L38.7656 63.9441V68.0811H37.7656L37.7637 62.2891ZM44.4276 62.2891H48.7207V63.2001H45.4387V64.7151H48.3386V65.6261H45.4387V67.1811H48.7577V68.0901H44.4217L44.4276 62.2891ZM49.7656 62.2891H50.7086L53.8087 66.2891V62.2891H54.8087V68.0811H53.9567L50.7627 63.9601V68.0811H49.7627L49.7656 62.2891ZM57.4567 63.2331H55.6207V62.2891H60.3206V63.2331H58.4846V68.0811H57.4577L57.4567 63.2331ZM22.6087 56.8611L25.0807 53.9001C26.6312 55.3308 28.6477 56.151 30.7567 56.209C32.4687 56.209 33.5017 55.5291 33.5017 54.4171V54.3611C33.5017 53.3031 32.8497 52.7611 29.6707 51.9441C25.8407 50.9671 23.3707 49.9081 23.3707 46.1331V46.0781C23.3707 42.6291 26.1417 40.347 30.0257 40.347C32.5894 40.3061 35.087 41.1613 37.0877 42.7651L34.9087 45.9151C33.4872 44.8057 31.7633 44.1524 29.9636 44.0411C28.3636 44.0411 27.5207 44.7741 27.5207 45.6981V45.7531C27.5207 47.0021 28.3337 47.409 31.6207 48.2531C35.4787 49.2531 37.6517 50.6431 37.6517 53.9531V54.0071C37.6517 57.7831 34.7727 59.9011 30.6707 59.9011C27.7014 59.9113 24.832 58.8293 22.6087 56.8611ZM32.5366 36.4611H32.5557C32.5656 36.3598 32.554 36.2576 32.5217 36.1611L32.5357 36.3461C32.5382 36.385 32.5382 36.4241 32.5357 36.4631M31.0966 36.1631C31.0648 36.2597 31.0529 36.3617 31.0617 36.4631H31.0827C31.0797 36.4228 31.0797 36.3824 31.0827 36.3421L31.0966 36.1631ZM12.7617 5.23309C12.8895 5.23562 13.0155 5.26313 13.1327 5.31409H13.1387C13.1387 5.31409 13.3267 5.38208 13.6707 5.54108C16.1027 6.61071 18.4463 7.87095 20.6797 9.31006C20.4223 9.45599 20.2001 9.65652 20.0285 9.89752C19.857 10.1385 19.7403 10.4142 19.6867 10.7051C19.6867 10.7121 19.6867 10.7311 19.6757 10.7601C19.0284 13.8978 18.695 17.0923 18.6807 20.2961C18.6307 23.2398 19.0316 26.1738 19.8697 28.9961C20.5372 31.1054 21.8408 32.9566 23.6016 34.2961C20.2106 34.1861 17.1706 32.0781 15.0186 28.3351C12.2186 23.4281 11.6276 17.0281 11.6276 12.5231C11.6276 10.5231 11.7447 8.84107 11.8437 7.78107C11.9497 6.62107 12.0437 5.94006 12.0437 5.94006C12.1287 5.48306 12.3627 5.25305 12.7567 5.24005M42.2177 10.5011C42.4177 10.5011 42.5307 10.7781 42.5897 11.0011C42.5897 11.0011 42.6437 11.2581 42.7367 11.7291C43.2636 14.5576 43.5351 17.4278 43.5477 20.3051C43.5947 23.111 43.2239 25.9083 42.4477 28.6051C41.0847 32.9931 37.1396 34.9671 34.7736 34.9671H34.7497C34.3126 34.9804 33.8774 34.903 33.4716 34.7401C32.6925 34.3956 32.0679 33.7757 31.7177 32.9991C31.2923 32.0304 31.0948 30.9771 31.1406 29.9201C31.194 27.8958 31.5476 25.8906 32.1897 23.9701C33.4248 20.4188 35.3877 17.1644 37.9527 14.4151C38.8394 13.4362 39.776 12.5036 40.7587 11.6211C41.1477 11.2771 41.4277 11.0351 41.6247 10.8771C41.8217 10.7191 41.9246 10.6291 41.9246 10.6271C42.0062 10.5549 42.1091 10.5114 42.2177 10.5031M21.4037 10.5031C21.5159 10.5143 21.6225 10.5577 21.7107 10.6281C21.7107 10.6281 21.8207 10.7101 22.0327 10.8821C22.7017 11.4141 28.6327 16.2481 31.2097 22.6601C31.1807 22.7461 31.1517 22.8311 31.1217 22.9171C31.0467 23.1321 30.9697 23.3561 30.9057 23.5741C30.2244 25.6253 29.8421 27.7639 29.7707 29.9241C29.7401 31.1819 29.9877 32.431 30.4957 33.5821C30.6308 33.868 30.7925 34.1405 30.9787 34.3961C30.4094 34.7898 29.7285 34.99 29.0366 34.9671H29.0127C27.2136 34.8145 25.502 34.1248 24.0998 32.9875C22.6975 31.8503 21.6693 30.3178 21.1486 28.5891C20.3549 25.9025 19.9785 23.1099 20.0327 20.3091C20.0415 18.1124 20.2038 15.9191 20.5186 13.7451C20.6596 12.7581 20.7907 12.062 20.8557 11.735C20.9417 11.307 20.9947 11.0561 21.0037 11.0121C21.0717 10.7771 21.1966 10.5031 21.4037 10.5031ZM31.7897 0.00805664C31.8377 0.00805664 32.0077 0.0320503 32.2127 0.33905C32.2127 0.33905 32.3226 0.517088 32.5366 0.853088C34.7342 4.52869 36.5305 8.42973 37.8947 12.4891C35.4495 14.9534 33.4276 17.8044 31.9107 20.9271C30.3343 17.7496 28.235 14.8596 25.7006 12.3781C26.2466 10.7411 26.8707 9.12407 27.5557 7.57007C28.5557 5.29107 29.5247 3.46009 30.1637 2.32709C30.4497 1.82709 30.7337 1.34709 31.0297 0.853088C31.2297 0.524088 31.3477 0.353093 31.3497 0.345093C31.4997 0.121093 31.6497 0.00805664 31.7897 0.00805664ZM50.7967 5.24207C50.9836 5.24137 51.1636 5.31303 51.2989 5.44202C51.4342 5.571 51.5144 5.74732 51.5227 5.93408C51.5227 5.94108 51.6177 6.62208 51.7227 7.77008C51.8657 9.33008 51.9387 10.9311 51.9387 12.5251C51.9387 17.0301 51.3507 23.4251 48.5467 28.3371C46.4217 32.0371 43.4277 34.1371 40.0867 34.2941C41.8182 32.9464 43.0929 31.0984 43.7377 29.0011C44.5535 26.177 44.9444 23.2473 44.8977 20.3081C44.884 17.105 44.5557 13.911 43.9177 10.7721C43.9117 10.7431 43.9076 10.725 43.9036 10.709C43.8503 10.4171 43.733 10.1406 43.5601 9.89941C43.3872 9.65821 43.163 9.45831 42.9036 9.31409C43.0796 9.19809 43.2586 9.08509 43.4376 8.98309C45.0331 7.97806 46.6834 7.06264 48.3806 6.24109L48.5737 6.15106C49.1277 5.89106 49.5667 5.68609 49.8977 5.55109C50.2367 5.39509 50.4227 5.32709 50.4257 5.32709H50.4307C50.5437 5.27731 50.6652 5.24982 50.7887 5.24609M41.5167 1.43707C41.6777 1.44181 41.8325 1.49957 41.9573 1.60138C42.0821 1.70318 42.1698 1.84332 42.2067 2.00006C42.2117 2.01306 42.2167 2.03109 42.2257 2.05609C42.7671 3.78126 43.2118 5.5353 43.5576 7.31006C41.8674 8.31959 40.2419 9.43376 38.6906 10.6461C38.0076 8.77406 37.2137 6.89608 36.3277 5.05408C37.5487 4.04408 38.5447 3.30206 39.1737 2.85406C40.3057 2.04106 41.0387 1.5911 41.0467 1.5871H41.0517C41.1451 1.51797 41.2545 1.47356 41.3697 1.45807H41.3797C41.4237 1.45184 41.4682 1.44849 41.5127 1.44806M22.0297 1.44806C22.0745 1.44853 22.1193 1.45188 22.1637 1.45807H22.1737C22.2886 1.47343 22.3977 1.51785 22.4907 1.5871H22.4957C22.5037 1.5871 23.2367 2.04106 24.3697 2.85406C25.2937 3.51606 26.2507 4.25408 27.2147 5.05408C26.3267 6.87372 25.5378 8.74013 24.8516 10.6451C23.3003 9.43322 21.6748 8.31936 19.9846 7.31006C20.3302 5.53513 20.7752 3.78107 21.3177 2.05609L21.3357 2.00006C21.3728 1.8434 21.4605 1.70334 21.5852 1.60156C21.71 1.49978 21.8647 1.44198 22.0257 1.43707M5.68868 13.5981C5.85468 13.5981 6.03167 13.5981 6.22067 13.5981C7.09767 13.6081 8.50668 13.6571 10.2957 13.8251C10.3361 15.8251 10.5129 17.8201 10.8247 19.7961C9.38367 20.3441 7.89669 20.9961 6.39669 21.7411C3.47269 18.0531 3.02166 15.6041 2.95266 14.9271C2.94155 14.6716 3.01157 14.4193 3.15267 14.2061C3.26003 14.0402 3.40425 13.9014 3.57406 13.8005C3.74387 13.6995 3.9347 13.6392 4.13168 13.6241C4.13768 13.6241 4.70766 13.5951 5.68966 13.5951M57.8897 13.5951C58.8657 13.5951 59.4466 13.6241 59.4506 13.6241C59.6483 13.6389 59.8399 13.6993 60.0103 13.8007C60.1807 13.902 60.3253 14.0414 60.4326 14.2081C60.5649 14.4226 60.6343 14.67 60.6327 14.9221C60.5657 15.5911 60.1196 18.0441 57.1876 21.7411C55.6876 20.9971 54.1997 20.3411 52.7587 19.7961C53.0669 17.8196 53.244 15.8249 53.2887 13.8251C55.0767 13.6571 56.4886 13.6081 57.3646 13.5981C57.5506 13.5981 57.7267 13.5981 57.8917 13.5981M52.5147 21.1641C53.8888 21.6881 55.2344 22.2843 56.5457 22.9501C58.1114 23.7334 59.6348 24.5986 61.1096 25.5421L61.4447 25.7621C61.8447 26.0261 62.1677 26.2351 62.3877 26.4021C62.6797 26.6021 62.8427 26.709 62.8437 26.709C62.9979 26.8293 63.1226 26.9834 63.208 27.1593C63.2935 27.3353 63.3375 27.5285 63.3367 27.7241C63.3373 27.9696 63.2649 28.2098 63.1287 28.4141C62.7187 28.9311 58.7907 33.4141 44.8737 34.1651C46.9127 32.8927 48.5844 31.1103 49.7237 28.9941C51.0671 26.5476 52.0078 23.9007 52.5097 21.1551M11.0727 21.1551C11.5753 23.9003 12.5157 26.547 13.8577 28.9941C15.0063 31.1077 16.6766 32.8923 18.7097 34.1781C13.8781 34.0503 9.10774 33.0639 4.62167 31.2651C3.42115 30.7515 2.29908 30.0711 1.28866 29.2441C1.05177 29.0508 0.828595 28.8413 0.620691 28.6171C0.600691 28.5941 0.582675 28.5711 0.566675 28.5511C0.532675 28.5091 0.504672 28.4751 0.475672 28.4441C0.46813 28.4312 0.459755 28.4189 0.450647 28.4071C0.315447 28.2039 0.243746 27.9651 0.244653 27.7211C0.243448 27.527 0.286646 27.3351 0.370874 27.1603C0.455103 26.9854 0.578158 26.8321 0.730676 26.7121C0.736676 26.7121 0.898689 26.6001 1.18069 26.3981C4.26081 24.2682 7.58097 22.5085 11.0727 21.1551ZM50.7647 35.1831C51.7307 35.1831 51.9186 35.4471 51.9766 36.0361C51.9877 36.1939 51.9646 36.3522 51.9088 36.5003C51.8531 36.6484 51.766 36.7827 51.6536 36.8941C50.9346 37.6811 49.1886 38.1501 46.9846 38.1501C45.2472 38.1251 43.5212 37.8647 41.8537 37.3761C39.9213 36.8205 37.9222 36.5311 35.9116 36.5161C35.2116 36.5161 34.4636 36.5501 33.6926 36.6161C33.6606 36.6161 33.6317 36.6161 33.6027 36.6161C33.5027 36.6161 33.3817 36.5941 33.3717 36.5311C33.3741 36.4855 33.3906 36.4418 33.4189 36.406C33.4472 36.3702 33.4859 36.344 33.5297 36.3311C35.446 35.8729 37.4141 35.6678 39.3837 35.7211C40.2037 35.7211 41.0217 35.7391 41.7437 35.7551H41.8107C42.5697 35.7721 43.2867 35.7881 43.9787 35.7881C44.8736 35.8013 45.7683 35.7532 46.6566 35.6441L47.4017 35.5441C48.5149 35.3586 49.6376 35.2368 50.7647 35.1791M12.8117 35.1791C13.9347 35.2363 15.0535 35.3575 16.1627 35.5421L16.9246 35.6471C17.8136 35.7563 18.7091 35.8043 19.6046 35.7911C20.2956 35.7911 21.0117 35.7751 21.7707 35.7581H21.8397C22.5617 35.7421 23.3797 35.7241 24.1997 35.7241C26.1676 35.6707 28.1341 35.8758 30.0487 36.334C30.0933 36.346 30.133 36.3718 30.1621 36.4078C30.1912 36.4437 30.2082 36.4879 30.2107 36.5341C30.2017 36.5971 30.0806 36.6191 29.9796 36.6191C29.9516 36.6191 29.9217 36.6191 29.8887 36.6191C29.1197 36.5501 28.3727 36.5191 27.6707 36.5191C25.6601 36.5336 23.6609 36.823 21.7287 37.3791C20.0611 37.8676 18.3351 38.1279 16.5977 38.1531C14.4157 38.1531 12.6227 37.6701 11.9177 36.8921C11.8072 36.7813 11.722 36.6478 11.6682 36.5009C11.6143 36.3539 11.593 36.1971 11.6057 36.0411C11.6627 35.4501 11.8507 35.1861 12.8107 35.1861" fill="white"/>
</g>
<defs>
<clipPath id="clip0_3_2453">
<rect width="63.094" height="68.186" fill="white" transform="translate(0.240723)"/>
</clipPath>
</defs>
</svg>
