<svg width="123" height="38" viewBox="0 0 123 38" fill="none" xmlns="http://www.w3.org/2000/svg">
<g clip-path="url(#clip0_3_2521)">
<path d="M74.4773 14.3435C74.4773 15.9435 72.9662 17.3135 70.5692 17.3135C69.8052 17.3516 69.0414 17.2327 68.3251 16.9642C67.6087 16.6958 66.9551 16.2834 66.4043 15.7525L67.9652 14.4845C68.2626 14.8563 68.6448 15.1514 69.0798 15.3448C69.5148 15.5383 69.9899 15.6246 70.4652 15.5965C71.7152 15.5965 72.1653 14.9535 72.1653 14.5715C72.1653 14.0715 71.6782 13.8785 70.8802 13.7395L69.8042 13.5475C69.1292 13.4275 66.7832 12.9925 66.7832 10.9475C66.7832 9.23051 68.4322 8.11853 70.5162 8.11853C71.2183 8.10207 71.9156 8.23799 72.5601 8.51697C73.2045 8.79595 73.7808 9.21133 74.2493 9.7345L72.7753 11.1075C72.5506 10.6835 72.2083 10.3335 71.7894 10.0995C71.3706 9.86555 70.893 9.75753 70.4142 9.78851C70.0142 9.78851 68.9733 9.90848 68.9733 10.6885C68.9733 11.2625 69.4923 11.4365 70.7443 11.6615L72.1503 11.9235C72.7726 11.9569 73.359 12.2253 73.791 12.6746C74.223 13.1238 74.4683 13.7203 74.4773 14.3435ZM99.2772 4.79352H97.1603V17.0495H99.2772V4.79352ZM116.957 17.0495V13.2835C116.957 11.7905 117.15 11.0615 117.774 10.5415C118.079 10.2806 118.467 10.1386 118.868 10.1415C120.153 10.1415 120.396 11.2165 120.396 12.1715V17.0485H122.513V11.0095C122.552 10.6265 122.507 10.2396 122.38 9.87592C122.254 9.51227 122.049 9.18066 121.781 8.90436C121.513 8.62806 121.188 8.41374 120.828 8.27643C120.469 8.13912 120.083 8.08215 119.699 8.1095C119.175 8.10265 118.655 8.21482 118.181 8.43756C117.706 8.6603 117.287 8.98784 116.957 9.39551V8.37152H114.84V17.0505H116.957V17.0495ZM65.0253 8.37048H62.9253V12.1395C62.9253 13.6315 62.7333 14.3615 62.1083 14.8815C61.8041 15.1423 61.4159 15.2844 61.0153 15.2815C59.7303 15.2815 59.4862 14.2065 59.4862 13.2515V8.37152H57.3693V14.4155C57.3302 14.7986 57.3755 15.1855 57.5018 15.5493C57.6282 15.913 57.8326 16.2447 58.1007 16.521C58.3689 16.7973 58.6942 17.0117 59.054 17.1489C59.4137 17.2862 59.7992 17.343 60.1832 17.3155C60.7077 17.3226 61.227 17.2107 61.7019 16.9881C62.1769 16.7655 62.5952 16.4381 62.9253 16.0305V17.0545H65.0422V8.37549L65.0253 8.37048ZM63.0883 30.4265L64.8602 31.4505C64.3894 32.1374 63.7564 32.6975 63.0173 33.0812C62.2783 33.465 61.456 33.6605 60.6233 33.6505C60.0146 33.6741 59.4078 33.5684 58.8429 33.3403C58.278 33.1123 57.7679 32.7671 57.3462 32.3275C56.9245 31.8879 56.6008 31.364 56.3964 30.7902C56.1919 30.2163 56.1115 29.6057 56.1603 28.9985C56.1091 28.4045 56.1851 27.8065 56.3833 27.2443C56.5815 26.6821 56.8973 26.1686 57.3096 25.738C57.7219 25.3075 58.2213 24.9697 58.7744 24.7474C59.3275 24.525 59.9216 24.4231 60.5172 24.4485C63.8332 24.4485 64.7882 27.1065 64.7882 29.4675H58.3643C58.416 30.0728 58.6996 30.6346 59.1558 31.0358C59.6119 31.4369 60.2054 31.6464 60.8123 31.6205C61.2645 31.6455 61.7151 31.5478 62.1163 31.3376C62.5175 31.1274 62.8543 30.8126 63.0912 30.4265H63.0883ZM58.4332 27.9425H62.4972C62.4905 27.6948 62.4348 27.4508 62.3333 27.2247C62.2317 26.9987 62.0863 26.795 61.9055 26.6255C61.7247 26.456 61.5121 26.324 61.28 26.2371C61.0479 26.1503 60.8009 26.1103 60.5532 26.1195C60.0374 26.1077 59.5355 26.2876 59.1445 26.6243C58.7535 26.961 58.5012 27.4306 58.4363 27.9425H58.4332ZM111.696 28.2545L110.29 27.9935C109.041 27.7685 108.518 27.5935 108.518 27.0205C108.518 26.2395 109.56 26.1205 109.96 26.1205C110.439 26.0892 110.916 26.1971 111.335 26.4309C111.754 26.6648 112.096 27.0146 112.32 27.4385L113.795 26.0665C113.327 25.5429 112.751 25.1272 112.106 24.8482C111.462 24.5692 110.764 24.4335 110.062 24.4505C107.978 24.4505 106.329 25.5615 106.329 27.2795C106.329 29.3275 108.672 29.7635 109.35 29.8795L110.425 30.0715C111.225 30.2095 111.711 30.4025 111.711 30.9035C111.711 31.2845 111.26 31.9275 110.011 31.9275C109.536 31.9565 109.061 31.8707 108.626 31.6774C108.19 31.484 107.808 31.1887 107.511 30.8165L105.95 32.0835C106.501 32.6149 107.154 33.0277 107.871 33.2964C108.587 33.5651 109.351 33.6839 110.115 33.6455C112.515 33.6455 114.022 32.2735 114.022 30.6755C114.011 30.0536 113.766 29.4588 113.336 29.0099C112.905 28.561 112.321 28.2912 111.7 28.2545H111.696ZM120.672 28.2545L119.267 27.9935C118.018 27.7685 117.495 27.5935 117.495 27.0205C117.495 26.2395 118.537 26.1205 118.937 26.1205C119.416 26.0892 119.893 26.1971 120.312 26.4309C120.731 26.6648 121.073 27.0146 121.297 27.4385L122.772 26.0665C122.304 25.5431 121.728 25.1275 121.083 24.8485C120.439 24.5695 119.741 24.4337 119.039 24.4505C116.954 24.4505 115.306 25.5615 115.306 27.2795C115.306 29.3275 117.648 29.7635 118.327 29.8795L119.402 30.0715C120.202 30.2095 120.688 30.4025 120.688 30.9035C120.688 31.2845 120.237 31.9275 118.988 31.9275C118.513 31.9568 118.038 31.8711 117.602 31.6777C117.167 31.4843 116.785 31.1889 116.488 30.8165L114.926 32.0835C115.477 32.6147 116.131 33.0274 116.847 33.296C117.564 33.5647 118.328 33.6836 119.092 33.6455C121.492 33.6455 122.999 32.2735 122.999 30.6755C122.987 30.0536 122.742 29.4592 122.311 29.0105C121.88 28.5618 121.296 28.2919 120.675 28.2545H120.672ZM83.8232 13.3345C83.7968 12.8548 83.8495 12.3741 83.9792 11.9115C84.1759 11.3957 84.5373 10.9592 85.0074 10.6699C85.4776 10.3806 86.0301 10.2546 86.5792 10.3115V8.17548H86.4043C85.8829 8.14445 85.3634 8.26178 84.9059 8.51379C84.4484 8.76581 84.0716 9.14221 83.8192 9.59949V8.36853H81.7013V17.0475H83.8192L83.8232 13.3345ZM92.9132 25.9455V24.7155H90.8003V33.3955H92.9172V29.6805C92.8907 29.2004 92.9437 28.7193 93.0742 28.2565C93.2707 27.7406 93.6321 27.304 94.1023 27.0146C94.5725 26.7253 95.1251 26.5994 95.6742 26.6565V24.5215H95.5002C94.9792 24.492 94.4605 24.6099 94.0034 24.8618C93.5464 25.1137 93.1696 25.4893 92.9163 25.9455H92.9132ZM105.17 29.0535C105.144 29.9305 104.859 30.7801 104.353 31.4965C103.846 32.2128 103.14 32.764 102.322 33.0813C101.504 33.3986 100.611 33.4678 99.7537 33.2805C98.8966 33.0931 98.1136 32.6573 97.5027 32.0276C96.8918 31.398 96.4799 30.6022 96.3185 29.7399C96.1571 28.8775 96.2534 27.9867 96.5952 27.1787C96.9371 26.3707 97.5094 25.6813 98.2407 25.1967C98.972 24.712 99.8299 24.4535 100.707 24.4535C101.308 24.4421 101.905 24.5544 102.461 24.7833C103.017 25.0122 103.52 25.3528 103.939 25.7841C104.357 26.2154 104.683 26.7282 104.896 27.2906C105.108 27.853 105.202 28.4531 105.173 29.0535H105.17ZM102.97 29.0535C102.901 28.6193 102.709 28.2139 102.417 27.8855C102.125 27.5571 101.744 27.3193 101.321 27.2003C100.898 27.0814 100.449 27.0862 100.029 27.2142C99.6082 27.3423 99.2331 27.5883 98.948 27.923C98.6629 28.2577 98.4797 28.667 98.42 29.1026C98.3604 29.5382 98.4269 29.9818 98.6116 30.3807C98.7963 30.7797 99.0914 31.1174 99.4622 31.3538C99.8329 31.5902 100.264 31.7153 100.703 31.7145C101.032 31.7029 101.355 31.6231 101.651 31.4802C101.948 31.3372 102.211 31.1341 102.425 30.8839C102.639 30.6337 102.799 30.3418 102.894 30.0267C102.989 29.7116 103.017 29.3802 102.977 29.0535H102.97ZM72.1703 21.1375H74.2872V33.3935H72.1703V32.5615C71.8815 32.9201 71.5124 33.2058 71.0929 33.3956C70.6734 33.5855 70.2153 33.6741 69.7552 33.6545C67.9322 33.6545 65.9022 32.3875 65.9022 29.2275C65.9022 26.1195 67.7943 24.4525 69.8423 24.4525C70.2767 24.4434 70.7082 24.5252 71.1091 24.6928C71.5101 24.8604 71.8715 25.1099 72.1703 25.4255V21.1375ZM72.2242 29.0535C72.2242 27.7145 71.5633 26.3925 70.1493 26.3925C68.7353 26.3925 68.0742 27.7145 68.0742 29.0535C68.0742 30.3925 68.7343 31.7145 70.1493 31.7145C71.5643 31.7145 72.2273 30.3935 72.2273 29.0535H72.2242ZM80.4053 17.0535V15.2955C80.1212 15.3647 79.8296 15.3982 79.5372 15.3955C79.2533 15.4097 78.9745 15.3166 78.7562 15.1345C78.5847 14.8607 78.5116 14.5365 78.5492 14.2155V9.83948H80.4082V8.36548H78.5492V5.27448H76.4323V8.36548H75.1642V9.83948H76.4323V15.0155C76.4323 16.4385 77.0233 17.3065 78.8793 17.3065C79.3987 17.2958 79.9138 17.2092 80.4082 17.0495L80.4053 17.0535ZM92.9862 16.3895C92.2592 16.9686 91.3625 17.2935 90.4332 17.3145C88.4542 17.3145 87.2732 16.0775 87.2732 14.6145C87.2732 12.7225 88.7153 11.9755 90.3643 11.6805C91.2693 11.53 92.1626 11.3155 93.0372 11.0385C93.0372 10.3775 92.8442 9.73853 91.5442 9.73853C89.9642 9.73853 89.7903 10.5885 89.7903 11.0385L87.6732 10.9175C87.7092 10.3445 87.8293 8.1095 91.4733 8.1095C94.0263 8.1095 95.1193 9.06152 95.1193 10.5875V15.6575C95.0685 16.1522 95.2021 16.6481 95.4943 17.0505H93.0353L92.9862 16.3895ZM93.0403 13.9095V12.7465C92.5201 12.9957 91.9634 13.1601 91.3912 13.2335C90.4362 13.3715 89.4812 13.5635 89.4812 14.4335C89.4812 15.0075 89.8623 15.4935 90.9043 15.4935C91.8623 15.4845 93.0432 14.9985 93.0432 13.9055L93.0403 13.9095ZM108.203 17.3095C106.224 17.3095 105.044 16.0725 105.044 14.6095C105.044 12.7175 106.485 11.9705 108.134 11.6755C109.039 11.525 109.933 11.3105 110.807 11.0335C110.807 10.3725 110.615 9.73352 109.314 9.73352C107.734 9.73352 107.56 10.5835 107.56 11.0335L105.443 10.9125C105.479 10.3395 105.599 8.10449 109.243 8.10449C111.796 8.10449 112.889 9.05652 112.889 10.5825V15.6525C112.839 16.1472 112.972 16.6432 113.264 17.0455H110.805L110.754 16.3815C110.03 16.9623 109.135 17.2886 108.206 17.3105L108.203 17.3095ZM108.672 15.4835C109.627 15.4835 110.807 14.9975 110.807 13.9045V12.7415C110.287 12.9907 109.73 13.1551 109.158 13.2285C108.203 13.3665 107.248 13.5585 107.248 14.4285C107.251 14.9985 107.632 15.4845 108.675 15.4845L108.672 15.4835ZM103.521 4.79248H101.404V6.84052H103.521V4.79248ZM103.521 8.36951H101.404V17.0485H103.521V8.36951ZM51.9733 4.79248L56.1243 17.0485H53.6582L52.9463 14.6485H48.3633L47.6512 17.0485H45.1863L49.3363 4.79248H51.9733ZM52.3373 12.6395L50.6522 7.05353L48.9673 12.6395H52.3373ZM53.1372 28.3915L55.8643 33.3915H53.2433L50.8282 28.8415H48.7622V33.3915H46.4883V21.1375H51.5072C52.0351 21.0984 52.5655 21.171 53.0635 21.3505C53.5615 21.53 54.0161 21.8124 54.3977 22.1793C54.7793 22.5462 55.0793 22.9893 55.2782 23.4799C55.4771 23.9705 55.5705 24.4974 55.5522 25.0265C55.5879 25.7775 55.3688 26.5185 54.9307 27.1294C54.4925 27.7403 53.8609 28.1854 53.1382 28.3925L53.1372 28.3915ZM53.2252 25.0435C53.2252 23.7485 52.3252 23.1845 50.8462 23.1845H48.7622V26.9355H50.5343C52.1833 26.9365 53.2262 26.4585 53.2262 25.0445L53.2252 25.0435ZM84.5632 31.5005C81.8362 31.5005 81.1632 28.8305 81.1632 27.1785C81.1632 24.4785 82.5863 22.9585 84.5833 22.9585C85.2235 22.9373 85.8485 23.1575 86.3341 23.5753C86.8197 23.9932 87.1306 24.5782 87.2052 25.2145L89.4792 24.6285C89.221 23.5176 88.5804 22.5329 87.6694 21.8466C86.7585 21.1604 85.6352 20.8163 84.4962 20.8745C80.2262 20.8745 78.6792 24.4395 78.6792 27.1425C78.6792 31.6895 81.5083 33.6535 84.4093 33.6535C85.5687 33.6686 86.7037 33.3197 87.6544 32.656C88.6052 31.9923 89.3238 31.0471 89.7092 29.9535L87.5382 29.0585C87.3798 29.7359 87.0026 30.3422 86.4651 30.7838C85.9275 31.2254 85.2595 31.4776 84.5642 31.5015L84.5632 31.5005Z" fill="white"/>
<path d="M37.3 12.9655H25.047V0.708496H12.788V12.9655H0.531982V25.2215H12.788V37.4775H25.047V25.2215H37.3V12.9655Z" fill="white"/>
</g>
<defs>
<clipPath id="clip0_3_2521">
<rect width="122.472" height="36.769" fill="white" transform="translate(0.527954 0.708496)"/>
</clipPath>
</defs>
</svg>
